{"glyphs":{"0":{"ha":560,"x_min":44,"x_max":540,"o":"m 229 -17 q 128 10 172 -17 q 65 91 85 36 q 56 232 44 146 l 107 593 q 193 774 124 715 q 351 832 263 832 q 489 773 438 832 q 524 593 540 714 l 472 232 q 425 89 461 144 q 338 8 389 33 q 229 -17 288 -17 m 235 26 q 343 74 296 26 q 401 210 390 122 l 457 604 q 436 740 469 692 q 342 788 403 788 q 236 740 283 788 q 175 604 189 692 l 121 210 q 142 74 108 122 q 235 26 176 26 z "},"1":{"ha":333,"x_min":93,"x_max":306,"o":"m 121 0 l 222 717 l 93 717 l 99 757 l 175 757 q 221 772 206 758 q 249 821 236 785 l 306 821 l 189 0 l 121 0 z "},"2":{"ha":518,"x_min":15,"x_max":515,"o":"m 15 0 q 27 77 22 39 q 38 154 32 115 q 73 262 47 222 q 142 328 99 301 q 243 382 185 354 q 330 431 290 401 q 397 501 369 460 q 432 597 424 543 l 435 617 q 419 731 444 689 q 324 774 393 774 q 219 736 260 774 q 168 621 179 699 l 158 551 l 90 551 l 101 632 q 176 778 117 731 q 332 826 236 826 q 447 802 406 826 q 501 731 488 778 q 504 613 515 683 q 471 503 496 553 q 406 415 446 453 q 311 350 365 376 q 224 308 265 331 q 155 253 183 286 q 115 169 126 221 q 103 115 108 143 q 93 58 97 88 l 435 58 l 425 0 l 15 0 z "},"3":{"ha":540,"x_min":29,"x_max":526,"o":"m 218 -11 q 99 16 142 -11 q 43 90 57 43 q 38 194 29 136 l 49 274 l 118 274 l 107 197 q 127 84 97 125 q 225 40 157 43 q 331 80 288 40 q 385 189 375 119 l 394 264 q 367 367 404 331 q 261 404 331 403 l 176 404 l 182 451 l 269 451 q 334 465 303 451 q 390 503 365 478 q 421 545 410 522 q 436 594 432 568 l 442 640 q 424 735 450 696 q 329 775 397 775 q 221 735 258 775 q 175 632 183 694 l 169 581 l 99 581 l 104 636 q 174 776 118 726 q 335 826 229 826 q 485 777 443 826 q 514 640 526 728 l 510 604 q 456 487 500 531 q 354 426 411 443 q 447 366 419 414 q 464 247 475 318 l 457 194 q 422 88 449 135 q 347 15 396 42 q 218 -11 297 -11 z "},"4":{"ha":492,"x_min":-1,"x_max":451,"o":"m 268 0 l 292 167 l -1 167 l 6 219 l 394 821 l 451 821 l 367 215 l 447 215 l 440 167 l 360 167 l 335 0 l 268 0 m 67 215 l 299 215 l 364 676 l 67 215 z "},"5":{"ha":547,"x_min":35,"x_max":526,"o":"m 228 -11 q 113 7 158 -11 q 51 74 68 25 q 47 211 35 122 l 53 250 l 121 250 l 117 218 q 130 82 103 122 q 236 42 157 42 q 348 88 310 42 q 399 225 386 135 l 414 338 q 415 422 421 383 q 381 482 408 460 q 297 504 354 504 q 203 476 244 504 q 143 401 161 449 l 78 401 l 138 821 l 526 821 l 518 767 l 197 767 l 157 478 q 226 533 185 514 q 324 553 268 553 q 458 509 415 553 q 485 350 501 465 l 467 221 q 419 75 454 125 q 334 7 383 25 q 228 -11 285 -11 z "},"6":{"ha":554,"x_min":43,"x_max":535,"o":"m 228 -12 q 110 15 153 -12 q 56 90 68 42 q 51 199 43 139 l 111 624 q 190 772 125 719 q 349 825 254 825 q 489 778 443 825 q 521 631 535 731 l 513 578 l 444 578 l 454 640 q 435 744 464 711 q 343 776 406 776 q 233 736 276 776 q 179 635 190 696 l 150 425 q 226 485 181 464 q 324 507 272 507 q 449 458 403 507 q 485 324 496 408 l 467 193 q 431 89 458 136 q 354 15 404 42 q 228 -12 304 -12 m 235 33 q 342 71 297 33 q 399 186 388 108 l 417 317 q 391 422 426 388 q 294 458 356 457 q 191 424 235 458 q 138 328 147 389 l 118 186 q 139 74 107 113 q 235 33 171 35 z "},"7":{"ha":406,"x_min":25,"x_max":436,"o":"m 25 0 l 361 769 l 79 769 l 85 821 l 436 821 l 426 767 l 92 0 l 25 0 z "},"8":{"ha":546,"x_min":36,"x_max":526,"o":"m 225 -11 q 106 16 149 -11 q 50 90 64 43 q 44 194 36 136 l 51 244 q 73 322 57 286 q 115 385 89 358 q 159 413 133 400 q 218 431 185 425 q 169 450 189 438 q 136 481 150 463 q 111 538 117 504 q 111 614 106 572 l 114 640 q 149 742 122 700 q 222 805 175 783 q 342 826 269 826 q 456 805 415 826 q 512 742 497 783 q 518 640 526 700 l 515 614 q 488 528 508 565 q 434 467 467 490 q 360 431 401 443 q 421 406 397 424 q 457 364 444 389 q 472 309 469 339 q 468 244 474 279 l 461 194 q 428 92 454 139 q 352 17 401 46 q 225 -11 303 -11 m 229 33 q 337 71 293 33 q 389 175 381 108 l 401 263 q 378 361 411 325 q 282 400 346 397 q 176 362 219 400 q 122 261 132 324 l 111 175 q 133 73 103 111 q 229 33 163 35 m 289 457 q 390 497 346 457 q 443 601 435 538 l 450 650 q 431 744 457 706 q 336 783 406 783 q 229 744 267 783 q 185 650 192 704 l 178 601 q 203 497 169 538 q 289 457 236 457 z "},"9":{"ha":553,"x_min":36,"x_max":529,"o":"m 222 -12 q 82 35 128 -12 q 50 182 36 82 l 60 240 l 126 240 l 117 172 q 136 69 107 103 q 228 36 165 36 q 338 76 293 36 q 392 178 382 117 l 421 390 q 346 331 390 351 q 249 310 301 310 q 156 332 196 310 q 99 399 117 354 q 88 504 81 443 l 104 619 q 140 724 113 678 q 217 798 167 771 q 343 825 268 825 q 460 798 418 825 q 516 723 503 771 q 519 614 529 675 l 460 189 q 381 40 446 93 q 222 -12 317 -12 m 276 357 q 380 392 335 357 q 433 489 425 428 l 453 626 q 433 740 464 701 q 336 779 401 778 q 228 742 274 779 q 172 626 183 704 l 154 499 q 181 394 144 429 q 276 357 217 358 z "},"\r":{"ha":833,"x_min":0,"x_max":0,"o":""}," ":{"ha":264,"x_min":0,"x_max":0,"o":""}," ":{"ha":264,"x_min":0,"x_max":0,"o":""},"A":{"ha":504,"x_min":-29,"x_max":432,"o":"m -29 0 l 278 821 l 360 821 l 432 0 l 360 0 l 340 201 l 117 201 l 40 0 l -29 0 m 125 240 l 342 240 l 303 725 l 125 240 z "},"А":{"ha":504,"x_min":-29,"x_max":432,"o":"m -29 0 l 278 821 l 360 821 l 432 0 l 360 0 l 340 201 l 117 201 l 40 0 l -29 0 m 125 240 l 342 240 l 303 725 l 125 240 z "},"Æ":{"ha":744,"x_min":-40,"x_max":738,"o":"m -40 0 l 367 821 l 738 821 l 731 771 l 444 771 l 404 457 l 653 457 l 644 404 l 397 404 l 353 49 l 644 49 l 635 0 l 274 0 l 300 201 l 129 201 l 29 0 l -40 0 m 143 240 l 308 240 l 376 707 l 379 725 l 374 710 l 143 240 z "},"Á":{"ha":504,"x_min":-29,"x_max":450,"o":"m -29 0 l 278 821 l 360 821 l 432 0 l 360 0 l 340 201 l 117 201 l 40 0 l -29 0 m 125 240 l 342 240 l 303 725 l 125 240 m 250 879 l 376 990 l 450 990 l 296 879 l 250 879 z "},"Ă":{"ha":504,"x_min":-29,"x_max":475,"o":"m -29 0 l 278 821 l 360 821 l 432 0 l 360 0 l 340 201 l 117 201 l 40 0 l -29 0 m 125 240 l 342 240 l 303 725 l 125 240 m 325 871 q 264 883 288 871 q 228 914 240 896 q 213 953 217 932 q 211 990 210 974 l 253 990 q 275 929 254 950 q 331 908 296 908 q 395 928 368 908 q 433 990 422 949 l 475 990 q 452 938 469 965 q 403 890 435 910 q 325 871 372 871 z "},"Ắ":{"ha":504,"x_min":-29,"x_max":436,"o":"m -29 0 l 278 821 l 360 821 l 432 0 l 360 0 l 340 201 l 117 201 l 40 0 l -29 0 m 125 240 l 342 240 l 303 725 l 125 240 m 325 869 q 267 884 286 869 q 244 919 249 899 q 240 957 239 940 l 282 957 q 294 918 281 931 q 329 906 307 906 q 372 918 354 906 q 394 957 389 931 l 436 957 q 403 898 431 926 q 325 869 376 869 m 304 974 l 365 1065 l 435 1065 l 346 974 l 304 974 z "},"Ặ":{"ha":504,"x_min":-29,"x_max":475,"o":"m -29 0 l 278 821 l 360 821 l 432 0 l 360 0 l 340 201 l 117 201 l 40 0 l -29 0 m 125 240 l 342 240 l 303 725 l 125 240 m 199 -142 q 170 -130 182 -142 q 158 -101 158 -118 q 170 -75 158 -86 q 199 -64 182 -64 q 227 -75 215 -64 q 239 -101 239 -86 q 227 -130 239 -118 q 199 -142 215 -142 m 325 871 q 264 883 288 871 q 228 914 240 896 q 213 953 217 932 q 211 990 210 974 l 253 990 q 275 929 254 950 q 331 908 296 908 q 395 928 368 908 q 433 990 422 949 l 475 990 q 452 938 469 965 q 403 890 435 910 q 325 871 372 871 z "},"Ằ":{"ha":504,"x_min":-29,"x_max":436,"o":"m -29 0 l 278 821 l 360 821 l 432 0 l 360 0 l 340 201 l 117 201 l 40 0 l -29 0 m 125 240 l 342 240 l 303 725 l 125 240 m 324 869 q 267 884 286 869 q 244 919 249 899 q 240 957 239 940 l 282 957 q 294 918 281 931 q 329 906 307 906 q 372 918 354 906 q 394 957 389 931 l 436 957 q 403 898 431 926 q 324 869 376 869 m 336 974 l 267 1065 l 335 1065 l 378 974 l 336 974 z "},"Ẳ":{"ha":504,"x_min":-29,"x_max":436,"o":"m -29 0 l 278 821 l 360 821 l 432 0 l 360 0 l 340 201 l 117 201 l 40 0 l -29 0 m 125 240 l 342 240 l 303 725 l 125 240 m 325 869 q 267 884 286 869 q 244 919 249 899 q 240 957 239 940 l 282 957 q 294 918 281 931 q 329 906 307 906 q 372 918 354 906 q 394 957 389 931 l 436 957 q 403 898 431 926 q 325 869 376 869 m 322 968 l 325 986 q 338 1006 326 1001 q 359 1017 349 1011 q 369 1036 369 1022 l 371 1042 q 367 1060 371 1051 q 350 1069 364 1069 q 324 1047 329 1069 l 290 1053 q 357 1097 304 1097 q 401 1081 390 1097 q 413 1039 413 1065 l 413 1038 q 403 1010 411 1018 q 386 999 396 1001 q 369 992 376 996 q 363 981 363 989 l 361 968 l 322 968 z "},"Ẵ":{"ha":504,"x_min":-29,"x_max":454,"o":"m -29 0 l 278 821 l 360 821 l 432 0 l 360 0 l 340 201 l 117 201 l 40 0 l -29 0 m 125 240 l 342 240 l 303 725 l 125 240 m 324 869 q 267 884 286 869 q 244 919 249 899 q 240 957 239 940 l 282 957 q 294 918 281 931 q 329 906 307 906 q 372 918 354 906 q 394 957 389 931 l 436 957 q 403 898 431 926 q 324 869 376 869 m 386 981 q 363 985 372 981 q 342 999 354 990 q 326 1010 336 1004 q 304 1017 317 1017 q 283 1007 292 1017 q 269 982 274 997 l 244 982 q 269 1031 251 1011 q 310 1050 286 1050 q 335 1044 324 1050 q 357 1031 346 1039 q 375 1021 367 1025 q 392 1017 383 1017 q 413 1024 404 1017 q 426 1049 422 1032 l 454 1049 q 428 999 449 1018 q 386 981 408 981 z "},"Ǎ":{"ha":504,"x_min":-29,"x_max":490,"o":"m -29 0 l 278 821 l 360 821 l 432 0 l 360 0 l 340 201 l 117 201 l 40 0 l -29 0 m 125 240 l 342 240 l 303 725 l 125 240 m 300 874 l 196 994 l 244 994 l 331 910 l 442 993 l 489 993 l 349 874 l 300 874 z "},"Â":{"ha":504,"x_min":-29,"x_max":474,"o":"m -29 0 l 278 821 l 360 821 l 432 0 l 360 0 l 340 201 l 117 201 l 40 0 l -29 0 m 125 240 l 342 240 l 303 725 l 125 240 m 179 874 l 319 994 l 368 994 l 474 874 l 425 874 l 338 958 l 229 874 l 179 874 z "},"Ấ":{"ha":504,"x_min":-29,"x_max":564,"o":"m -29 0 l 278 821 l 360 821 l 432 0 l 360 0 l 340 201 l 117 201 l 40 0 l -29 0 m 125 240 l 342 240 l 303 725 l 125 240 m 218 871 l 318 961 l 363 961 l 436 871 l 392 871 l 336 928 l 264 871 l 218 871 m 435 924 l 497 1015 l 565 1015 l 476 924 l 435 924 z "},"Ậ":{"ha":504,"x_min":-29,"x_max":474,"o":"m -29 0 l 278 821 l 360 821 l 432 0 l 360 0 l 340 201 l 117 201 l 40 0 l -29 0 m 125 240 l 342 240 l 303 725 l 125 240 m 199 -142 q 170 -130 182 -142 q 158 -101 158 -118 q 170 -75 158 -86 q 199 -64 182 -64 q 227 -75 215 -64 q 239 -101 239 -86 q 227 -130 239 -118 q 199 -142 215 -142 m 179 874 l 319 994 l 368 994 l 474 874 l 425 874 l 338 958 l 229 874 l 179 874 z "},"Ầ":{"ha":504,"x_min":-29,"x_max":508,"o":"m -29 0 l 278 821 l 360 821 l 432 0 l 360 0 l 340 201 l 117 201 l 40 0 l -29 0 m 125 240 l 342 240 l 303 725 l 125 240 m 218 871 l 318 961 l 363 961 l 436 871 l 392 871 l 336 928 l 264 871 l 218 871 m 467 924 l 397 1015 l 467 1015 l 508 924 l 467 924 z "},"Ẩ":{"ha":504,"x_min":-29,"x_max":543,"o":"m -29 0 l 278 821 l 360 821 l 432 0 l 360 0 l 340 201 l 117 201 l 40 0 l -29 0 m 125 240 l 342 240 l 303 725 l 125 240 m 218 871 l 318 961 l 363 961 l 436 871 l 392 871 l 336 928 l 264 871 l 218 871 m 454 918 l 457 938 q 470 956 460 951 q 491 967 481 961 q 501 986 501 972 l 503 993 q 500 1010 503 1000 q 482 1021 497 1021 q 454 999 461 1021 l 421 1004 q 444 1036 428 1025 q 488 1047 461 1047 q 532 1032 521 1047 q 542 990 543 1017 l 542 988 q 533 960 540 968 q 517 949 526 951 q 500 942 507 946 q 493 931 493 939 l 492 918 l 454 918 z "},"Ẫ":{"ha":504,"x_min":-29,"x_max":449,"o":"m -29 0 l 278 821 l 360 821 l 432 0 l 360 0 l 340 201 l 117 201 l 40 0 l -29 0 m 125 240 l 342 240 l 303 725 l 125 240 m 218 871 l 318 961 l 363 961 l 436 871 l 392 871 l 336 928 l 264 871 l 218 871 m 381 983 q 359 988 368 983 q 339 1000 350 992 q 321 1013 331 1007 q 299 1018 311 1018 q 278 1010 288 1018 q 265 985 269 1001 l 240 985 q 263 1034 246 1015 q 306 1053 281 1053 q 329 1047 318 1053 q 351 1033 340 1040 q 369 1023 361 1028 q 388 1018 378 1018 q 408 1026 399 1018 q 422 1050 418 1033 l 449 1050 q 434 1014 444 1029 q 410 991 424 999 q 381 983 396 983 z "},"Ä":{"ha":504,"x_min":-29,"x_max":438,"o":"m -29 0 l 278 821 l 360 821 l 432 0 l 360 0 l 340 201 l 117 201 l 40 0 l -29 0 m 125 240 l 342 240 l 303 725 l 125 240 m 272 892 q 244 903 256 892 q 232 931 232 914 q 244 958 232 947 q 272 968 256 968 q 300 958 289 968 q 311 931 311 947 q 300 903 311 914 q 272 892 289 892 m 397 892 q 369 903 381 892 q 357 931 357 914 q 369 958 357 947 q 397 968 381 968 q 426 958 414 968 q 438 931 438 947 q 426 903 438 914 q 397 892 414 892 z "},"Ạ":{"ha":504,"x_min":-29,"x_max":432,"o":"m -29 0 l 278 821 l 360 821 l 432 0 l 360 0 l 340 201 l 117 201 l 40 0 l -29 0 m 125 240 l 342 240 l 303 725 l 125 240 m 199 -142 q 170 -130 182 -142 q 158 -101 158 -118 q 170 -75 158 -86 q 199 -64 182 -64 q 227 -75 215 -64 q 239 -101 239 -86 q 227 -130 239 -118 q 199 -142 215 -142 z "},"À":{"ha":504,"x_min":-29,"x_max":432,"o":"m -29 0 l 278 821 l 360 821 l 432 0 l 360 0 l 340 201 l 117 201 l 40 0 l -29 0 m 125 240 l 342 240 l 303 725 l 125 240 m 332 879 l 197 990 l 271 990 l 382 879 l 332 879 z "},"Ả":{"ha":504,"x_min":-29,"x_max":432,"o":"m -29 0 l 278 821 l 360 821 l 432 0 l 360 0 l 340 201 l 117 201 l 40 0 l -29 0 m 125 240 l 342 240 l 303 725 l 125 240 m 306 860 l 308 888 q 327 915 311 908 q 358 929 343 921 q 375 958 374 938 l 375 965 q 370 996 376 982 q 340 1010 364 1010 q 299 976 310 1010 l 263 983 q 292 1026 272 1011 q 349 1040 313 1040 q 404 1019 389 1040 q 418 963 419 999 l 417 960 q 406 922 417 933 q 382 905 396 910 q 357 895 368 900 q 346 879 346 890 l 344 860 l 306 860 z "},"Ā":{"ha":504,"x_min":-29,"x_max":461,"o":"m -29 0 l 278 821 l 360 821 l 432 0 l 360 0 l 340 201 l 117 201 l 40 0 l -29 0 m 125 240 l 342 240 l 303 725 l 125 240 m 206 906 l 211 944 l 461 944 l 457 906 l 206 906 z "},"Ą":{"ha":504,"x_min":-29,"x_max":432,"o":"m -29 0 l 278 821 l 360 821 l 432 0 l 360 0 l 340 201 l 117 201 l 40 0 l -29 0 m 125 240 l 342 240 l 303 725 l 125 240 m 368 -185 q 308 -162 332 -185 q 289 -106 285 -140 q 326 -39 296 -67 q 389 0 357 -11 l 428 0 q 366 -44 389 -18 q 339 -97 343 -71 q 351 -139 335 -125 q 385 -153 367 -153 q 408 -149 397 -153 q 424 -143 418 -146 l 431 -169 q 406 -179 421 -174 q 368 -185 390 -185 z "},"Å":{"ha":504,"x_min":-29,"x_max":450,"o":"m -29 0 l 278 821 l 360 821 l 432 0 l 360 0 l 340 201 l 117 201 l 40 0 l -29 0 m 125 240 l 342 240 l 303 725 l 125 240 m 322 850 q 251 880 276 850 q 231 950 225 910 q 271 1023 236 993 q 351 1053 306 1053 q 426 1023 401 1053 q 444 950 450 993 q 403 880 439 910 q 322 850 367 850 m 328 885 q 381 903 360 885 q 407 950 403 922 q 394 999 410 981 q 346 1017 378 1017 q 294 999 314 1017 q 269 950 274 981 q 281 903 265 922 q 328 885 297 885 z "},"Ã":{"ha":504,"x_min":-29,"x_max":475,"o":"m -29 0 l 278 821 l 360 821 l 432 0 l 360 0 l 340 201 l 117 201 l 40 0 l -29 0 m 125 240 l 342 240 l 303 725 l 125 240 m 385 889 q 356 894 367 889 q 328 913 344 900 q 303 930 317 921 q 274 939 290 939 q 244 927 257 939 q 224 890 231 915 l 193 890 q 224 952 201 928 q 281 976 247 976 q 313 968 299 976 q 343 949 328 960 q 367 934 356 940 q 392 928 378 928 q 422 938 410 928 q 442 974 435 949 l 475 974 q 441 913 465 936 q 385 889 417 889 z "},"B":{"ha":574,"x_min":46,"x_max":550,"o":"m 46 0 l 161 821 l 406 821 q 510 789 471 821 q 539 685 550 757 l 525 583 q 503 515 519 544 q 467 467 488 485 q 415 441 443 447 q 368 433 386 435 l 368 436 q 424 431 399 436 q 465 407 450 425 q 490 357 482 386 q 492 289 497 328 l 475 168 q 438 61 465 97 q 369 13 410 25 q 276 0 329 0 l 46 0 m 119 40 l 271 40 q 335 50 307 40 q 381 88 363 60 q 407 174 400 117 l 425 289 q 399 383 435 360 q 308 406 364 406 l 171 406 l 119 40 m 178 451 l 314 451 q 413 484 376 451 q 457 576 450 517 l 472 674 q 453 753 481 728 q 385 779 426 779 l 222 779 l 178 451 z "},"Б":{"ha":533,"x_min":46,"x_max":522,"o":"m 46 0 l 163 821 l 522 821 l 515 769 l 222 769 l 199 604 l 342 604 q 438 585 404 604 q 483 526 472 565 q 483 428 493 488 l 451 201 q 430 108 444 147 q 392 46 415 69 q 333 11 368 22 q 251 0 299 0 l 46 0 m 246 40 q 325 60 297 40 q 366 113 353 79 q 383 188 379 147 l 415 417 q 419 486 422 453 q 393 540 415 519 q 315 560 371 560 l 192 560 l 121 40 l 246 40 z "},"C":{"ha":557,"x_min":46,"x_max":539,"o":"m 232 -17 q 130 -3 174 -17 q 66 52 86 10 q 58 181 46 94 l 125 650 q 168 768 136 729 q 248 819 200 807 q 353 832 296 832 q 456 819 413 832 q 519 767 499 806 q 528 650 539 728 l 508 514 l 442 514 l 460 650 q 456 740 469 711 q 414 779 443 769 q 346 789 385 789 q 275 779 307 789 q 223 740 243 769 q 193 650 203 711 l 125 165 q 129 75 117 104 q 171 36 142 46 q 239 26 200 26 q 310 36 278 26 q 363 75 342 46 q 392 165 385 104 l 407 279 l 475 279 l 461 181 q 417 51 449 93 q 339 -3 386 10 q 232 -17 292 -17 z "},"Ć":{"ha":557,"x_min":46,"x_max":539,"o":"m 232 -17 q 130 -3 174 -17 q 66 52 86 10 q 58 181 46 94 l 125 650 q 168 768 136 729 q 248 819 200 807 q 353 832 296 832 q 456 819 413 832 q 519 767 499 806 q 528 650 539 728 l 508 514 l 442 514 l 460 650 q 456 740 469 711 q 414 779 443 769 q 346 789 385 789 q 275 779 307 789 q 223 740 243 769 q 193 650 203 711 l 125 165 q 129 75 117 104 q 171 36 142 46 q 239 26 200 26 q 310 36 278 26 q 363 75 342 46 q 392 165 385 104 l 407 279 l 475 279 l 461 181 q 417 51 449 93 q 339 -3 386 10 q 232 -17 292 -17 m 276 879 l 403 990 l 476 990 l 322 879 l 276 879 z "},"Č":{"ha":557,"x_min":46,"x_max":539,"o":"m 232 -17 q 130 -3 174 -17 q 66 52 86 10 q 58 181 46 94 l 125 650 q 168 768 136 729 q 248 819 200 807 q 353 832 296 832 q 456 819 413 832 q 519 767 499 806 q 528 650 539 728 l 508 514 l 442 514 l 460 650 q 456 740 469 711 q 414 779 443 769 q 346 789 385 789 q 275 779 307 789 q 223 740 243 769 q 193 650 203 711 l 125 165 q 129 75 117 104 q 171 36 142 46 q 239 26 200 26 q 310 36 278 26 q 363 75 342 46 q 392 165 385 104 l 407 279 l 475 279 l 461 181 q 417 51 449 93 q 339 -3 386 10 q 232 -17 292 -17 m 326 874 l 222 994 l 271 994 l 357 910 l 468 993 l 515 993 l 375 874 l 326 874 z "},"Ç":{"ha":557,"x_min":46,"x_max":539,"o":"m 232 -17 q 130 -3 174 -17 q 66 52 86 10 q 58 181 46 94 l 125 650 q 168 768 136 729 q 248 819 200 807 q 353 832 296 832 q 456 819 413 832 q 519 767 499 806 q 528 650 539 728 l 508 514 l 442 514 l 460 650 q 456 740 469 711 q 414 779 443 769 q 346 789 385 789 q 275 779 307 789 q 223 740 243 769 q 193 650 203 711 l 125 165 q 129 75 117 104 q 171 36 142 46 q 239 26 200 26 q 310 36 278 26 q 363 75 342 46 q 392 165 385 104 l 407 279 l 475 279 l 461 181 q 417 51 449 93 q 339 -3 386 10 q 232 -17 292 -17 m 196 -196 q 160 -189 175 -196 q 135 -176 144 -182 l 150 -149 q 172 -160 157 -154 q 197 -165 188 -165 q 242 -152 226 -165 q 260 -121 258 -139 q 221 -81 265 -81 q 201 -85 211 -81 q 181 -94 190 -89 l 158 -81 l 214 0 l 247 0 l 199 -69 l 192 -67 q 215 -58 203 -60 q 239 -56 228 -56 q 290 -76 274 -56 q 303 -118 306 -96 q 269 -174 297 -153 q 196 -196 242 -196 z "},"Ċ":{"ha":557,"x_min":46,"x_max":539,"o":"m 232 -17 q 130 -3 174 -17 q 66 52 86 10 q 58 181 46 94 l 125 650 q 168 768 136 729 q 248 819 200 807 q 353 832 296 832 q 456 819 413 832 q 519 767 499 806 q 528 650 539 728 l 508 514 l 442 514 l 460 650 q 456 740 469 711 q 414 779 443 769 q 346 789 385 789 q 275 779 307 789 q 223 740 243 769 q 193 650 203 711 l 125 165 q 129 75 117 104 q 171 36 142 46 q 239 26 200 26 q 310 36 278 26 q 363 75 342 46 q 392 165 385 104 l 407 279 l 475 279 l 461 181 q 417 51 449 93 q 339 -3 386 10 q 232 -17 292 -17 m 367 890 q 335 903 349 890 q 322 933 322 915 q 335 964 322 951 q 367 976 349 976 q 398 964 385 976 q 411 933 411 951 q 398 903 411 915 q 367 890 385 890 z "},"Ч":{"ha":526,"x_min":51,"x_max":499,"o":"m 314 0 l 347 233 q 286 203 326 218 q 199 188 246 188 q 93 212 125 188 q 56 278 61 236 q 58 374 51 321 l 122 821 l 189 821 l 125 372 q 135 272 117 306 q 225 238 153 238 q 313 255 282 238 q 354 281 343 272 l 431 821 l 499 821 l 382 0 l 314 0 z "},"D":{"ha":581,"x_min":46,"x_max":551,"o":"m 46 0 l 163 821 l 397 821 q 485 806 450 821 q 536 753 521 790 q 542 649 551 715 l 476 179 q 438 69 467 108 q 368 15 410 29 q 274 0 326 0 l 46 0 m 122 40 l 274 40 q 360 69 325 40 q 408 178 396 97 l 474 640 q 456 749 485 721 q 376 778 428 778 l 225 778 l 122 40 z "},"Ď":{"ha":581,"x_min":46,"x_max":551,"o":"m 46 0 l 163 821 l 397 821 q 485 806 450 821 q 536 753 521 790 q 542 649 551 715 l 476 179 q 438 69 467 108 q 368 15 410 29 q 274 0 326 0 l 46 0 m 122 40 l 274 40 q 360 69 325 40 q 408 178 396 97 l 474 640 q 456 749 485 721 q 376 778 428 778 l 225 778 l 122 40 m 339 874 l 235 994 l 283 994 l 369 910 l 481 993 l 528 993 l 388 874 l 339 874 z "},"Đ":{"ha":601,"x_min":21,"x_max":560,"o":"m 49 0 l 165 821 l 406 821 q 492 806 457 821 q 544 753 528 790 q 549 649 560 715 l 485 179 q 447 69 475 108 q 376 15 418 29 q 282 0 335 0 l 49 0 m 21 378 l 26 425 l 268 425 l 263 378 l 21 378 m 124 40 l 278 40 q 368 69 332 40 q 417 178 404 97 l 482 640 q 465 749 493 721 q 381 778 436 778 l 226 778 l 124 40 z "},"Д":{"ha":749,"x_min":-24,"x_max":661,"o":"m -24 -146 l 4 46 l 69 46 q 126 76 103 49 q 165 169 150 104 q 194 300 179 233 q 223 434 208 367 q 252 568 238 501 q 280 699 267 635 q 304 821 293 763 l 650 821 l 542 46 l 661 46 l 632 -146 l 572 -146 l 593 -10 l 56 -10 l 36 -146 l -24 -146 m 179 46 l 475 46 l 575 769 l 361 769 l 238 181 q 217 107 229 147 q 179 46 204 67 z "},"Δ":{"ha":721,"x_min":49,"x_max":649,"o":"m 49 0 l 339 813 l 413 813 l 649 0 l 49 0 m 142 58 l 561 58 l 365 722 l 142 58 z "},"Ђ":{"ha":608,"x_min":75,"x_max":565,"o":"m 115 0 l 225 769 l 75 769 l 82 821 l 451 821 l 444 769 l 293 769 l 258 521 q 315 570 275 547 q 415 593 356 593 q 517 572 485 593 q 558 509 550 550 q 557 413 565 468 l 533 242 q 502 115 522 163 q 453 42 482 67 q 390 8 425 17 q 313 0 354 0 q 296 1 304 0 q 281 4 288 3 l 286 42 q 299 40 293 40 q 311 40 306 40 q 416 88 381 40 q 464 229 451 135 l 489 410 q 479 513 497 478 q 388 547 461 547 q 296 519 329 547 q 251 465 263 492 l 185 0 l 115 0 z "},"Ѕ":{"ha":514,"x_min":28,"x_max":501,"o":"m 217 -8 q 105 13 149 -8 q 44 87 61 35 q 42 232 28 139 l 49 276 l 115 276 l 108 228 q 108 113 97 154 q 147 54 119 71 q 215 38 175 38 q 311 74 268 38 q 368 207 354 111 q 363 304 378 271 q 313 357 347 338 q 226 397 278 376 q 153 440 186 415 q 106 505 121 464 q 100 610 92 546 q 135 728 110 681 q 207 798 161 775 q 324 821 253 821 q 458 774 414 821 q 489 642 501 728 l 478 553 q 444 553 461 553 q 413 553 428 553 l 422 626 q 405 732 432 696 q 317 768 378 768 q 214 729 249 768 q 167 613 179 690 q 175 524 158 557 q 223 473 192 492 q 293 439 254 454 q 388 390 353 415 q 436 324 424 364 q 438 214 449 285 q 394 82 426 131 q 315 13 361 33 q 217 -8 268 -8 z "},"Џ":{"ha":565,"x_min":46,"x_max":538,"o":"m 190 -137 l 208 0 l 46 0 l 161 821 l 232 821 l 124 50 l 360 50 l 468 821 l 538 821 l 422 0 l 258 0 l 240 -137 l 190 -137 z "},"E":{"ha":479,"x_min":46,"x_max":511,"o":"m 46 0 l 163 821 l 511 821 l 503 771 l 225 771 l 181 457 l 400 457 l 393 404 l 174 404 l 124 49 l 403 49 l 394 0 l 46 0 z "},"É":{"ha":479,"x_min":46,"x_max":511,"o":"m 46 0 l 163 821 l 511 821 l 503 771 l 225 771 l 181 457 l 400 457 l 393 404 l 174 404 l 124 49 l 403 49 l 394 0 l 46 0 m 264 879 l 390 990 l 464 990 l 310 879 l 264 879 z "},"Ě":{"ha":479,"x_min":46,"x_max":511,"o":"m 46 0 l 163 821 l 511 821 l 503 771 l 225 771 l 181 457 l 400 457 l 393 404 l 174 404 l 124 49 l 403 49 l 394 0 l 46 0 m 315 874 l 211 994 l 260 994 l 346 910 l 457 993 l 504 993 l 364 874 l 315 874 z "},"Ê":{"ha":479,"x_min":46,"x_max":511,"o":"m 46 0 l 163 821 l 511 821 l 503 771 l 225 771 l 181 457 l 400 457 l 393 404 l 174 404 l 124 49 l 403 49 l 394 0 l 46 0 m 194 874 l 335 994 l 383 994 l 489 874 l 440 874 l 353 958 l 244 874 l 194 874 z "},"Ế":{"ha":479,"x_min":46,"x_max":579,"o":"m 46 0 l 163 821 l 511 821 l 503 771 l 225 771 l 181 457 l 400 457 l 393 404 l 174 404 l 124 49 l 403 49 l 394 0 l 46 0 m 232 871 l 332 961 l 376 961 l 450 871 l 406 871 l 350 928 l 278 871 l 232 871 m 449 924 l 511 1015 l 579 1015 l 490 924 l 449 924 z "},"Ệ":{"ha":479,"x_min":46,"x_max":511,"o":"m 46 0 l 163 821 l 511 821 l 503 771 l 225 771 l 181 457 l 400 457 l 393 404 l 174 404 l 124 49 l 403 49 l 394 0 l 46 0 m 176 -142 q 148 -130 160 -142 q 136 -101 136 -118 q 148 -75 136 -86 q 176 -64 160 -64 q 205 -75 193 -64 q 217 -101 217 -86 q 205 -130 217 -118 q 176 -142 193 -142 m 194 874 l 335 994 l 383 994 l 489 874 l 440 874 l 353 958 l 244 874 l 194 874 z "},"Ề":{"ha":479,"x_min":46,"x_max":522,"o":"m 46 0 l 163 821 l 511 821 l 503 771 l 225 771 l 181 457 l 400 457 l 393 404 l 174 404 l 124 49 l 403 49 l 394 0 l 46 0 m 232 871 l 332 961 l 376 961 l 450 871 l 406 871 l 350 928 l 278 871 l 232 871 m 481 924 l 411 1015 l 481 1015 l 522 924 l 481 924 z "},"Ể":{"ha":479,"x_min":46,"x_max":557,"o":"m 46 0 l 163 821 l 511 821 l 503 771 l 225 771 l 181 457 l 400 457 l 393 404 l 174 404 l 124 49 l 403 49 l 394 0 l 46 0 m 232 871 l 332 961 l 376 961 l 450 871 l 406 871 l 350 928 l 278 871 l 232 871 m 468 918 l 471 938 q 484 956 474 951 q 505 967 494 961 q 515 986 515 972 l 517 993 q 514 1010 517 1000 q 496 1021 511 1021 q 468 999 475 1021 l 435 1004 q 458 1036 442 1025 q 501 1047 475 1047 q 546 1032 535 1047 q 556 990 557 1017 l 556 988 q 547 960 554 968 q 531 949 540 951 q 514 942 521 946 q 507 931 507 939 l 506 918 l 468 918 z "},"Ễ":{"ha":479,"x_min":46,"x_max":511,"o":"m 46 0 l 163 821 l 511 821 l 503 771 l 225 771 l 181 457 l 400 457 l 393 404 l 174 404 l 124 49 l 403 49 l 394 0 l 46 0 m 232 871 l 332 961 l 376 961 l 450 871 l 406 871 l 350 928 l 278 871 l 232 871 m 394 983 q 373 988 382 983 q 353 1000 364 992 q 335 1013 344 1007 q 313 1018 325 1018 q 292 1010 301 1018 q 279 985 283 1001 l 254 985 q 277 1034 260 1015 q 319 1053 294 1053 q 343 1047 332 1053 q 365 1033 354 1040 q 383 1023 375 1028 q 401 1018 392 1018 q 422 1026 413 1018 q 436 1050 432 1033 l 463 1050 q 448 1014 458 1029 q 424 991 438 999 q 394 983 410 983 z "},"Ë":{"ha":479,"x_min":46,"x_max":511,"o":"m 46 0 l 163 821 l 511 821 l 503 771 l 225 771 l 181 457 l 400 457 l 393 404 l 174 404 l 124 49 l 403 49 l 394 0 l 46 0 m 286 892 q 258 903 269 892 q 246 931 246 914 q 258 958 246 947 q 286 968 269 968 q 314 958 303 968 q 325 931 325 947 q 314 903 325 914 q 286 892 303 892 m 411 892 q 383 903 394 892 q 371 931 371 914 q 383 958 371 947 q 411 968 394 968 q 440 958 428 968 q 451 931 451 947 q 440 903 451 914 q 411 892 428 892 z "},"Ė":{"ha":479,"x_min":46,"x_max":511,"o":"m 46 0 l 163 821 l 511 821 l 503 771 l 225 771 l 181 457 l 400 457 l 393 404 l 174 404 l 124 49 l 403 49 l 394 0 l 46 0 m 354 890 q 323 903 336 890 q 310 933 310 915 q 323 964 310 951 q 354 976 336 976 q 385 964 372 976 q 399 933 399 951 q 385 903 399 915 q 354 890 372 890 z "},"Ẹ":{"ha":479,"x_min":46,"x_max":511,"o":"m 46 0 l 163 821 l 511 821 l 503 771 l 225 771 l 181 457 l 400 457 l 393 404 l 174 404 l 124 49 l 403 49 l 394 0 l 46 0 m 176 -142 q 148 -130 160 -142 q 136 -101 136 -118 q 148 -75 136 -86 q 176 -64 160 -64 q 205 -75 193 -64 q 217 -101 217 -86 q 205 -130 217 -118 q 176 -142 193 -142 z "},"Ф":{"ha":643,"x_min":38,"x_max":625,"o":"m 239 -11 l 253 88 l 224 88 q 81 132 124 88 q 51 276 38 176 l 90 549 q 156 687 103 642 q 307 732 208 732 l 343 732 l 357 821 l 424 821 l 411 732 l 442 732 q 583 690 540 732 q 611 544 625 647 l 575 281 q 503 128 560 169 q 344 88 447 88 l 321 88 l 307 -11 l 239 -11 m 236 128 l 258 128 l 338 689 l 315 689 q 208 653 247 689 q 157 540 169 618 l 121 276 q 138 163 108 199 q 236 128 168 128 m 343 128 q 453 160 413 128 q 507 278 494 192 l 543 538 q 524 656 557 624 q 422 689 490 689 l 406 689 l 326 128 l 343 128 z "},"È":{"ha":479,"x_min":46,"x_max":511,"o":"m 46 0 l 163 821 l 511 821 l 503 771 l 225 771 l 181 457 l 400 457 l 393 404 l 174 404 l 124 49 l 403 49 l 394 0 l 46 0 m 346 879 l 211 990 l 285 990 l 396 879 l 346 879 z "},"Ẻ":{"ha":479,"x_min":46,"x_max":511,"o":"m 46 0 l 163 821 l 511 821 l 503 771 l 225 771 l 181 457 l 400 457 l 393 404 l 174 404 l 124 49 l 403 49 l 394 0 l 46 0 m 319 860 l 322 888 q 341 915 325 908 q 372 929 357 921 q 389 958 388 938 l 389 965 q 384 996 390 982 q 354 1010 378 1010 q 313 976 324 1010 l 276 983 q 306 1026 286 1011 q 363 1040 326 1040 q 418 1019 403 1040 q 432 963 433 999 l 431 960 q 420 922 431 933 q 396 905 410 910 q 371 895 382 900 q 360 879 360 890 l 358 860 l 319 860 z "},"Л":{"ha":603,"x_min":-35,"x_max":574,"o":"m -35 0 l -28 40 q 21 65 0 40 q 54 144 42 90 l 196 821 l 574 821 l 457 0 l 389 0 l 497 769 l 254 769 l 118 124 q 107 86 114 107 q 88 47 100 65 q 56 16 76 29 q 3 0 35 3 l -35 0 z "},"М":{"ha":736,"x_min":46,"x_max":707,"o":"m 46 0 l 163 821 l 240 821 l 336 117 l 635 821 l 707 821 l 590 0 l 529 0 l 625 678 l 344 0 l 293 0 l 204 678 l 108 0 l 46 0 z "},"Ē":{"ha":479,"x_min":46,"x_max":511,"o":"m 46 0 l 163 821 l 511 821 l 503 771 l 225 771 l 181 457 l 400 457 l 393 404 l 174 404 l 124 49 l 403 49 l 394 0 l 46 0 m 221 906 l 226 944 l 476 944 l 472 906 l 221 906 z "},"Н":{"ha":594,"x_min":46,"x_max":567,"o":"m 46 0 l 163 821 l 231 821 l 179 456 l 447 456 l 500 821 l 567 821 l 450 0 l 383 0 l 440 404 l 171 404 l 114 0 l 46 0 z "},"Ŋ":{"ha":593,"x_min":46,"x_max":565,"o":"m 276 -236 q 251 -236 265 -236 q 225 -235 238 -236 l 232 -185 l 278 -186 q 343 -169 322 -186 q 371 -101 364 -151 l 386 1 l 203 660 l 108 0 l 46 0 l 163 821 l 222 821 l 407 142 l 504 821 l 565 821 l 440 -60 q 416 -165 432 -126 q 368 -219 400 -203 q 276 -236 336 -236 z "},"Ę":{"ha":479,"x_min":46,"x_max":511,"o":"m 46 0 l 163 821 l 511 821 l 503 771 l 225 771 l 181 457 l 400 457 l 393 404 l 174 404 l 124 49 l 403 49 l 394 0 l 46 0 m 328 -171 q 268 -149 292 -171 q 249 -92 244 -126 q 286 -25 256 -53 q 349 14 317 3 l 388 14 q 326 -31 349 -4 q 299 -83 303 -57 q 310 -125 294 -111 q 344 -139 326 -139 q 367 -135 357 -139 q 383 -129 378 -132 l 390 -156 q 365 -165 381 -160 q 328 -171 350 -171 z "},"Р":{"ha":532,"x_min":46,"x_max":553,"o":"m 46 0 l 163 821 l 408 821 q 514 789 475 821 q 542 685 553 757 l 519 532 q 495 447 514 486 q 435 384 476 408 q 321 360 393 360 l 168 360 l 117 0 l 46 0 m 174 403 l 310 403 q 408 437 371 403 q 454 542 444 471 l 471 661 q 453 751 479 722 q 388 779 428 779 l 226 779 l 174 403 z "},"Э":{"ha":563,"x_min":39,"x_max":535,"o":"m 229 -17 q 124 -3 168 -17 q 60 51 81 10 q 51 182 39 93 l 64 268 l 133 268 l 118 161 q 123 74 110 103 q 166 35 136 44 q 235 26 196 26 q 304 35 274 26 q 357 74 335 44 q 386 161 379 103 l 418 386 l 197 386 l 203 436 l 425 436 l 454 649 q 450 737 463 708 q 410 775 438 765 q 342 785 382 785 q 269 776 301 785 q 217 740 238 768 q 188 654 196 713 l 169 522 l 100 522 l 117 649 q 160 765 129 725 q 239 819 192 806 q 346 832 286 832 q 450 819 406 832 q 515 766 494 806 q 525 649 535 726 l 458 181 q 415 53 447 96 q 335 -3 382 10 q 229 -17 288 -17 z "},"С":{"ha":557,"x_min":46,"x_max":539,"o":"m 232 -17 q 130 -3 174 -17 q 66 52 86 10 q 58 181 46 94 l 125 650 q 168 768 136 729 q 248 819 200 807 q 353 832 296 832 q 456 819 413 832 q 519 767 499 806 q 528 650 539 728 l 508 514 l 442 514 l 460 650 q 456 740 469 711 q 414 779 443 769 q 346 789 385 789 q 275 779 307 789 q 223 740 243 769 q 193 650 203 711 l 125 165 q 129 75 117 104 q 171 36 142 46 q 239 26 200 26 q 310 36 278 26 q 363 75 342 46 q 392 165 385 104 l 407 279 l 475 279 l 461 181 q 417 51 449 93 q 339 -3 386 10 q 232 -17 292 -17 z "},"Ð":{"ha":601,"x_min":21,"x_max":560,"o":"m 49 0 l 165 821 l 406 821 q 492 806 457 821 q 544 753 528 790 q 549 649 560 715 l 485 179 q 447 69 475 108 q 376 15 418 29 q 282 0 335 0 l 49 0 m 21 378 l 26 425 l 268 425 l 263 378 l 21 378 m 124 40 l 278 40 q 368 69 332 40 q 417 178 404 97 l 482 640 q 465 749 493 721 q 381 778 436 778 l 226 778 l 124 40 z "},"Ẽ":{"ha":479,"x_min":46,"x_max":511,"o":"m 46 0 l 163 821 l 511 821 l 503 771 l 225 771 l 181 457 l 400 457 l 393 404 l 174 404 l 124 49 l 403 49 l 394 0 l 46 0 m 400 889 q 371 894 382 889 q 343 913 360 900 q 319 930 332 921 q 289 939 306 939 q 259 927 272 939 q 239 890 246 915 l 208 890 q 240 952 217 928 q 296 976 263 976 q 328 968 314 976 q 358 949 343 960 q 382 934 371 940 q 407 928 393 928 q 438 938 425 928 q 457 974 450 949 l 490 974 q 456 913 481 936 q 400 889 432 889 z "},"F":{"ha":467,"x_min":46,"x_max":511,"o":"m 46 0 l 163 821 l 511 821 l 503 771 l 225 771 l 181 457 l 400 457 l 393 404 l 174 404 l 117 0 l 46 0 z "},"G":{"ha":561,"x_min":46,"x_max":539,"o":"m 215 -17 q 125 -3 165 -17 q 65 51 85 10 q 57 174 46 92 l 125 650 q 167 767 136 728 q 247 819 199 806 q 353 832 294 832 q 455 818 411 832 q 519 766 499 804 q 528 650 539 728 l 513 549 l 447 549 l 461 649 q 458 740 471 710 q 415 778 444 769 q 346 788 386 788 q 274 778 306 788 q 220 740 242 769 q 190 649 199 710 l 124 165 q 127 75 115 104 q 169 36 139 46 q 238 26 199 26 q 340 63 297 26 q 393 165 383 99 l 418 339 l 301 339 l 307 382 l 489 382 l 436 0 l 386 0 l 394 82 q 379 61 388 72 q 364 43 371 50 q 303 -1 339 15 q 215 -17 268 -17 z "},"Ğ":{"ha":561,"x_min":46,"x_max":539,"o":"m 215 -17 q 125 -3 165 -17 q 65 51 85 10 q 57 174 46 92 l 125 650 q 167 767 136 728 q 247 819 199 806 q 353 832 294 832 q 455 818 411 832 q 519 766 499 804 q 528 650 539 728 l 513 549 l 447 549 l 461 649 q 458 740 471 710 q 415 778 444 769 q 346 788 386 788 q 274 778 306 788 q 220 740 242 769 q 190 649 199 710 l 124 165 q 127 75 115 104 q 169 36 139 46 q 238 26 199 26 q 340 63 297 26 q 393 165 383 99 l 418 339 l 301 339 l 307 382 l 489 382 l 436 0 l 386 0 l 394 82 q 379 61 388 72 q 364 43 371 50 q 303 -1 339 15 q 215 -17 268 -17 m 353 871 q 292 883 315 871 q 256 914 268 896 q 241 953 244 932 q 239 990 238 974 l 281 990 q 303 929 282 950 q 358 908 324 908 q 423 928 396 908 q 461 990 450 949 l 503 990 q 480 938 497 965 q 431 890 463 910 q 353 871 400 871 z "},"Ģ":{"ha":561,"x_min":46,"x_max":539,"o":"m 215 -17 q 125 -3 165 -17 q 65 51 85 10 q 57 174 46 92 l 125 650 q 167 767 136 728 q 247 819 199 806 q 353 832 294 832 q 455 818 411 832 q 519 766 499 804 q 528 650 539 728 l 513 549 l 447 549 l 461 649 q 458 740 471 710 q 415 778 444 769 q 346 788 386 788 q 274 778 306 788 q 220 740 242 769 q 190 649 199 710 l 124 165 q 127 75 115 104 q 169 36 139 46 q 238 26 199 26 q 340 63 297 26 q 393 165 383 99 l 418 339 l 301 339 l 307 382 l 489 382 l 436 0 l 386 0 l 394 82 q 379 61 388 72 q 364 43 371 50 q 303 -1 339 15 q 215 -17 268 -17 m 154 -206 q 190 -151 178 -174 q 203 -118 203 -129 q 198 -106 203 -111 q 188 -94 193 -101 q 183 -75 183 -87 q 196 -53 185 -64 q 222 -43 207 -43 q 249 -53 239 -43 q 258 -78 258 -62 q 246 -115 257 -92 q 219 -161 235 -137 q 185 -206 203 -185 l 154 -206 z "},"Ġ":{"ha":561,"x_min":46,"x_max":539,"o":"m 215 -17 q 125 -3 165 -17 q 65 51 85 10 q 57 174 46 92 l 125 650 q 167 767 136 728 q 247 819 199 806 q 353 832 294 832 q 455 818 411 832 q 519 766 499 804 q 528 650 539 728 l 513 549 l 447 549 l 461 649 q 458 740 471 710 q 415 778 444 769 q 346 788 386 788 q 274 778 306 788 q 220 740 242 769 q 190 649 199 710 l 124 165 q 127 75 115 104 q 169 36 139 46 q 238 26 199 26 q 340 63 297 26 q 393 165 383 99 l 418 339 l 301 339 l 307 382 l 489 382 l 436 0 l 386 0 l 394 82 q 379 61 388 72 q 364 43 371 50 q 303 -1 339 15 q 215 -17 268 -17 m 368 890 q 337 903 350 890 q 324 933 324 915 q 337 964 324 951 q 368 976 350 976 q 399 964 386 976 q 413 933 413 951 q 399 903 413 915 q 368 890 386 890 z "},"Г":{"ha":481,"x_min":46,"x_max":515,"o":"m 46 0 l 163 821 l 515 821 l 506 769 l 225 769 l 117 0 l 46 0 z "},"ẞ":{"ha":1068,"x_min":50,"x_max":1015,"o":"m 714 -8 q 615 13 656 -8 q 559 87 575 35 q 556 232 543 139 q 559 254 557 236 q 563 276 561 272 l 629 276 q 626 252 628 271 q 622 228 624 233 q 623 113 613 154 q 659 54 633 71 q 722 38 685 38 q 825 74 782 38 q 882 207 868 111 q 876 304 892 271 q 826 357 861 338 q 740 397 792 376 q 667 440 700 415 q 620 505 635 464 q 614 610 606 546 q 649 728 624 681 q 721 798 675 775 q 838 821 767 821 q 972 774 928 821 q 1003 642 1015 728 l 992 553 q 958 553 975 553 q 926 553 942 553 l 936 626 q 919 732 947 696 q 831 768 892 768 q 728 729 763 768 q 681 613 693 690 q 690 523 672 556 q 739 472 707 490 q 807 439 771 454 q 902 390 867 415 q 950 324 938 364 q 951 214 963 285 q 869 40 935 89 q 714 -8 804 -8 m 222 -8 q 123 13 163 -8 q 67 87 83 35 q 64 232 50 139 q 67 254 64 236 q 71 276 69 272 l 139 276 q 135 252 138 271 q 131 228 133 233 q 131 113 121 154 q 167 54 140 71 q 231 38 193 38 q 333 74 289 38 q 390 207 378 111 q 384 304 399 271 q 335 357 369 338 q 249 397 301 376 q 175 440 207 415 q 128 505 143 464 q 121 610 113 546 q 158 728 132 681 q 229 798 183 775 q 344 821 275 821 q 480 774 436 821 q 513 642 524 728 l 500 553 q 467 553 483 553 q 433 553 451 553 l 444 626 q 427 732 454 696 q 339 768 400 768 q 235 729 271 768 q 189 613 200 690 q 198 523 182 556 q 246 472 214 490 q 315 439 278 454 q 409 390 374 415 q 458 324 444 364 q 461 214 471 285 q 377 40 443 89 q 222 -8 311 -8 z "},"Ѓ":{"ha":481,"x_min":46,"x_max":515,"o":"m 46 0 l 163 821 l 515 821 l 506 769 l 225 769 l 117 0 l 46 0 m 276 879 l 403 990 l 476 990 l 322 879 l 276 879 z "},"H":{"ha":594,"x_min":46,"x_max":567,"o":"m 46 0 l 163 821 l 231 821 l 179 456 l 447 456 l 500 821 l 567 821 l 450 0 l 383 0 l 440 404 l 171 404 l 114 0 l 46 0 z "},"Х":{"ha":428,"x_min":-24,"x_max":468,"o":"m -24 0 l 171 417 l 106 821 l 172 821 l 229 456 l 401 821 l 468 821 l 278 415 l 349 0 l 282 0 l 217 367 l 47 0 l -24 0 z "},"Ъ":{"ha":543,"x_min":46,"x_max":493,"o":"m 46 0 l 156 769 l 63 769 l 71 821 l 231 821 l 200 604 l 342 604 q 438 585 404 604 q 483 526 472 565 q 483 428 493 488 l 451 201 q 430 108 444 147 q 392 46 415 69 q 333 11 368 22 q 251 0 299 0 l 46 0 m 121 40 l 247 40 q 325 60 297 40 q 366 117 353 81 q 386 204 379 154 q 401 307 393 254 q 415 410 408 360 q 419 484 421 450 q 394 539 417 518 q 317 560 372 560 l 193 560 q 158 300 176 431 q 121 40 139 169 z "},"Ħ":{"ha":593,"x_min":46,"x_max":590,"o":"m 46 657 l 56 693 l 590 693 l 582 657 l 46 657 m 46 0 l 163 821 l 231 821 l 179 456 l 447 456 l 500 821 l 567 821 l 450 0 l 383 0 l 440 404 l 171 404 l 114 0 l 46 0 z "},"I":{"ha":258,"x_min":46,"x_max":231,"o":"m 46 0 l 163 821 l 231 821 l 114 0 l 46 0 z "},"І":{"ha":258,"x_min":46,"x_max":231,"o":"m 46 0 l 163 821 l 231 821 l 114 0 l 46 0 z "},"Я":{"ha":576,"x_min":0,"x_max":547,"o":"m 433 0 l 364 0 l 417 386 l 301 386 q 251 370 272 386 q 216 329 231 354 q 189 278 201 304 l 72 0 l 0 0 l 125 282 q 178 373 153 343 q 249 403 203 403 l 250 401 q 138 440 178 403 q 108 551 99 478 l 128 685 q 187 789 139 757 q 300 821 235 821 l 547 821 l 433 0 m 424 433 l 474 779 l 310 779 q 235 754 269 779 q 194 674 201 729 l 178 560 q 196 462 168 490 q 286 433 224 433 l 424 433 z "},"Í":{"ha":258,"x_min":46,"x_max":328,"o":"m 46 0 l 163 821 l 231 821 l 114 0 l 46 0 m 128 879 l 254 990 l 328 990 l 174 879 l 128 879 z "},"Ǐ":{"ha":258,"x_min":46,"x_max":368,"o":"m 46 0 l 163 821 l 231 821 l 114 0 l 46 0 m 178 874 l 74 994 l 122 994 l 208 910 l 319 993 l 367 993 l 226 874 l 178 874 z "},"Î":{"ha":258,"x_min":46,"x_max":351,"o":"m 46 0 l 163 821 l 231 821 l 114 0 l 46 0 m 57 874 l 197 994 l 246 994 l 351 874 l 303 874 l 215 958 l 107 874 l 57 874 z "},"Ï":{"ha":258,"x_min":46,"x_max":314,"o":"m 46 0 l 163 821 l 231 821 l 114 0 l 46 0 m 150 892 q 122 903 133 892 q 110 931 110 914 q 122 958 110 947 q 150 968 133 968 q 178 958 167 968 q 189 931 189 947 q 178 903 189 914 q 150 892 167 892 m 275 892 q 247 903 258 892 q 235 931 235 914 q 247 958 235 947 q 275 968 258 968 q 303 958 292 968 q 315 931 315 947 q 303 903 315 914 q 275 892 292 892 z "},"İ":{"ha":258,"x_min":46,"x_max":263,"o":"m 46 0 l 163 821 l 231 821 l 114 0 l 46 0 m 218 890 q 187 903 200 890 q 174 933 174 915 q 187 964 174 951 q 218 976 200 976 q 249 964 236 976 q 263 933 263 951 q 249 903 263 915 q 218 890 236 890 z "},"Ị":{"ha":258,"x_min":26,"x_max":231,"o":"m 46 0 l 163 821 l 231 821 l 114 0 l 46 0 m 67 -142 q 38 -130 50 -142 q 26 -101 26 -118 q 38 -75 26 -86 q 67 -64 50 -64 q 95 -75 83 -64 q 107 -101 107 -86 q 95 -130 107 -118 q 67 -142 83 -142 z "},"Е":{"ha":479,"x_min":46,"x_max":511,"o":"m 46 0 l 163 821 l 511 821 l 503 771 l 225 771 l 181 457 l 400 457 l 393 404 l 174 404 l 124 49 l 403 49 l 394 0 l 46 0 z "},"Ѐ":{"ha":479,"x_min":46,"x_max":511,"o":"m 46 0 l 163 821 l 511 821 l 503 771 l 225 771 l 181 457 l 400 457 l 393 404 l 174 404 l 124 49 l 403 49 l 394 0 l 46 0 m 349 879 l 214 990 l 288 990 l 399 879 l 349 879 z "},"Ì":{"ha":258,"x_min":46,"x_max":258,"o":"m 46 0 l 163 821 l 231 821 l 114 0 l 46 0 m 210 879 l 75 990 l 149 990 l 260 879 l 210 879 z "},"Ỉ":{"ha":258,"x_min":46,"x_max":297,"o":"m 46 0 l 163 821 l 231 821 l 114 0 l 46 0 m 183 860 l 186 888 q 205 915 189 908 q 236 929 221 921 q 253 958 251 938 l 253 965 q 248 996 254 982 q 218 1010 242 1010 q 176 976 188 1010 l 140 983 q 170 1026 150 1011 q 226 1040 190 1040 q 282 1019 267 1040 q 296 963 297 999 l 294 960 q 284 922 294 933 q 260 905 274 910 q 235 895 246 900 q 224 879 224 890 l 222 860 l 183 860 z "},"И":{"ha":596,"x_min":46,"x_max":568,"o":"m 46 0 l 163 821 l 225 821 l 129 140 l 506 821 l 568 821 l 451 0 l 389 0 l 483 661 l 111 0 l 46 0 z "},"Ѝ":{"ha":596,"x_min":46,"x_max":568,"o":"m 46 0 l 163 821 l 225 821 l 129 140 l 506 821 l 568 821 l 451 0 l 389 0 l 483 661 l 111 0 l 46 0 m 386 879 l 251 990 l 325 990 l 436 879 l 386 879 z "},"Й":{"ha":596,"x_min":46,"x_max":568,"o":"m 46 0 l 163 821 l 225 821 l 129 140 l 506 821 l 568 821 l 451 0 l 389 0 l 483 661 l 111 0 l 46 0 m 381 871 q 319 883 343 871 q 284 914 296 896 q 269 953 272 932 q 267 990 265 974 l 308 990 q 331 929 310 950 q 386 908 351 908 q 451 928 424 908 q 489 990 478 949 l 531 990 q 508 938 525 965 q 459 890 490 910 q 381 871 428 871 z "},"Ī":{"ha":258,"x_min":46,"x_max":339,"o":"m 46 0 l 163 821 l 231 821 l 114 0 l 46 0 m 83 906 l 89 944 l 339 944 l 335 906 l 83 906 z "},"Ё":{"ha":479,"x_min":46,"x_max":511,"o":"m 46 0 l 163 821 l 511 821 l 503 771 l 225 771 l 181 457 l 400 457 l 393 404 l 174 404 l 124 49 l 403 49 l 394 0 l 46 0 m 289 892 q 260 903 272 892 q 249 931 249 914 q 260 958 249 947 q 289 968 272 968 q 317 958 306 968 q 328 931 328 947 q 317 903 328 914 q 289 892 306 892 m 414 892 q 385 903 397 892 q 374 931 374 914 q 385 958 374 947 q 414 968 397 968 q 442 958 431 968 q 454 931 454 947 q 442 903 454 914 q 414 892 431 892 z "},"Į":{"ha":258,"x_min":-33,"x_max":231,"o":"m 46 0 l 163 821 l 231 821 l 114 0 l 46 0 m 51 -185 q -8 -162 15 -185 q -28 -106 -32 -140 q 10 -39 -21 -67 q 72 0 40 -11 l 111 0 q 49 -44 72 -18 q 22 -97 26 -71 q 34 -139 18 -125 q 68 -153 50 -153 q 91 -149 81 -153 q 107 -143 101 -146 l 114 -169 q 89 -179 104 -174 q 51 -185 74 -185 z "},"Ĩ":{"ha":258,"x_min":46,"x_max":353,"o":"m 46 0 l 163 821 l 231 821 l 114 0 l 46 0 m 263 889 q 233 894 244 889 q 206 913 222 900 q 181 930 194 921 q 151 939 168 939 q 122 927 135 939 q 101 890 108 915 l 71 890 q 102 952 79 928 q 158 976 125 976 q 191 968 176 976 q 221 949 206 960 q 244 934 233 940 q 269 928 256 928 q 300 938 288 928 q 319 974 313 949 l 353 974 q 319 913 343 936 q 263 889 294 889 z "},"Ю":{"ha":867,"x_min":46,"x_max":838,"o":"m 529 -17 q 426 -3 471 -17 q 362 53 382 10 q 354 182 342 96 l 385 404 l 171 404 l 115 0 l 46 0 l 161 821 l 231 821 l 181 456 l 393 456 l 419 649 q 463 767 431 728 q 543 819 494 807 q 650 832 592 832 q 753 819 710 832 q 817 766 796 806 q 826 649 838 726 l 763 182 q 717 52 749 94 q 637 -3 685 10 q 529 -17 589 -17 m 536 26 q 607 36 575 26 q 660 74 639 46 q 689 161 681 103 l 758 654 q 753 741 767 713 q 710 778 739 769 q 643 788 682 788 q 574 778 606 788 q 520 741 542 769 q 490 654 499 713 l 421 161 q 427 74 414 103 q 469 36 440 46 q 536 26 497 26 z "},"J":{"ha":293,"x_min":-39,"x_max":272,"o":"m 14 -1 q -12 -1 1 -1 q -39 0 -25 -1 l -32 50 l 14 49 q 79 65 58 47 q 107 132 100 83 l 204 821 l 272 821 l 182 174 q 156 69 172 108 q 107 15 140 31 q 14 -1 74 -1 z "},"Ј":{"ha":293,"x_min":-39,"x_max":272,"o":"m 14 -1 q -12 -1 1 -1 q -39 0 -25 -1 l -32 50 l 14 49 q 79 65 58 47 q 107 132 100 83 l 204 821 l 272 821 l 182 174 q 156 69 172 108 q 107 15 140 31 q 14 -1 74 -1 z "},"K":{"ha":507,"x_min":46,"x_max":547,"o":"m 364 0 l 197 428 l 474 821 l 547 821 l 265 425 l 439 0 l 364 0 m 46 0 l 163 821 l 231 821 l 114 0 l 46 0 z "},"К":{"ha":524,"x_min":46,"x_max":565,"o":"m 46 0 l 163 821 l 231 821 l 178 443 l 229 443 l 489 821 l 565 821 l 290 425 l 456 0 l 378 0 l 225 394 l 169 394 l 114 0 l 46 0 z "},"Ķ":{"ha":507,"x_min":46,"x_max":547,"o":"m 364 0 l 197 428 l 474 821 l 547 821 l 265 425 l 439 0 l 364 0 m 46 0 l 163 821 l 231 821 l 114 0 l 46 0 m 157 -206 q 193 -151 181 -174 q 206 -118 206 -129 q 201 -106 206 -111 q 191 -94 196 -101 q 186 -75 186 -87 q 199 -53 188 -64 q 225 -43 210 -43 q 251 -53 242 -43 q 261 -78 261 -62 q 249 -115 260 -92 q 222 -161 238 -137 q 188 -206 206 -185 l 157 -206 z "},"Ќ":{"ha":524,"x_min":46,"x_max":565,"o":"m 46 0 l 163 821 l 231 821 l 178 443 l 229 443 l 489 821 l 565 821 l 290 425 l 456 0 l 378 0 l 225 394 l 169 394 l 114 0 l 46 0 m 292 879 l 418 990 l 492 990 l 338 879 l 292 879 z "},"L":{"ha":413,"x_min":46,"x_max":363,"o":"m 46 0 l 163 821 l 231 821 l 122 49 l 363 49 l 354 0 l 46 0 z "},"Ĺ":{"ha":413,"x_min":46,"x_max":368,"o":"m 46 0 l 163 821 l 231 821 l 122 49 l 363 49 l 354 0 l 46 0 m 168 879 l 294 990 l 368 990 l 214 879 l 168 879 z "},"Ľ":{"ha":432,"x_min":46,"x_max":457,"o":"m 46 0 l 163 821 l 231 821 l 122 49 l 363 49 l 354 0 l 46 0 m 363 669 l 410 843 l 457 843 l 392 669 l 363 669 z "},"Ļ":{"ha":413,"x_min":46,"x_max":363,"o":"m 46 0 l 163 821 l 231 821 l 122 49 l 363 49 l 354 0 l 46 0 m 125 -206 q 161 -151 149 -174 q 174 -118 174 -129 q 169 -106 174 -111 q 159 -94 164 -101 q 154 -75 154 -87 q 167 -53 156 -64 q 193 -43 178 -43 q 219 -53 210 -43 q 229 -78 229 -62 q 217 -115 228 -92 q 190 -161 206 -137 q 156 -206 174 -185 l 125 -206 z "},"Љ":{"ha":886,"x_min":-35,"x_max":835,"o":"m -35 0 l -28 40 q 21 65 0 40 q 54 144 42 90 l 196 821 l 574 821 l 457 0 l 389 0 l 497 769 l 254 769 l 118 124 q 107 86 114 107 q 88 47 100 65 q 56 16 76 29 q 3 0 35 3 l -35 0 m 463 40 l 589 40 q 668 60 640 40 q 709 117 696 81 q 729 204 722 154 q 744 307 736 254 q 757 411 751 360 q 761 484 764 450 q 736 539 758 518 q 660 560 714 560 l 535 560 q 500 300 518 431 q 463 40 482 169 m 389 0 l 504 818 l 571 818 l 542 604 l 683 604 q 780 585 746 604 q 824 526 814 565 q 825 428 835 488 l 793 201 q 772 108 786 147 q 733 46 757 69 q 675 11 710 22 q 593 0 640 0 l 389 0 z "},"Ł":{"ha":513,"x_min":31,"x_max":403,"o":"m 88 0 l 122 242 l 31 203 l 36 244 l 128 283 l 203 819 l 271 819 l 199 313 l 347 378 l 342 336 l 193 272 l 161 49 l 403 49 l 394 0 l 88 0 z "},"M":{"ha":736,"x_min":46,"x_max":707,"o":"m 46 0 l 163 821 l 240 821 l 336 117 l 635 821 l 707 821 l 590 0 l 529 0 l 625 678 l 344 0 l 293 0 l 204 678 l 108 0 l 46 0 z "},"N":{"ha":593,"x_min":46,"x_max":565,"o":"m 46 0 l 163 821 l 222 821 l 407 142 l 504 821 l 565 821 l 449 0 l 386 0 l 203 660 l 108 0 l 46 0 z "},"Ń":{"ha":593,"x_min":46,"x_max":565,"o":"m 46 0 l 163 821 l 222 821 l 407 142 l 504 821 l 565 821 l 449 0 l 386 0 l 203 660 l 108 0 l 46 0 m 294 879 l 421 990 l 494 990 l 340 879 l 294 879 z "},"Ň":{"ha":593,"x_min":46,"x_max":565,"o":"m 46 0 l 163 821 l 222 821 l 407 142 l 504 821 l 565 821 l 449 0 l 386 0 l 203 660 l 108 0 l 46 0 m 346 874 l 242 994 l 290 994 l 376 910 l 488 993 l 535 993 l 394 874 l 346 874 z "},"Ņ":{"ha":593,"x_min":46,"x_max":565,"o":"m 46 0 l 163 821 l 222 821 l 407 142 l 504 821 l 565 821 l 449 0 l 386 0 l 203 660 l 108 0 l 46 0 m 171 -206 q 207 -151 194 -174 q 219 -118 219 -129 q 215 -106 219 -111 q 205 -94 210 -101 q 200 -75 200 -87 q 213 -53 201 -64 q 239 -43 224 -43 q 265 -53 256 -43 q 275 -78 275 -62 q 263 -115 274 -92 q 235 -161 251 -137 q 201 -206 219 -185 l 171 -206 z "},"Њ":{"ha":871,"x_min":46,"x_max":831,"o":"m 46 0 l 163 821 l 231 821 l 179 456 l 449 456 l 501 821 l 569 821 l 539 604 l 679 604 q 776 585 742 604 q 820 526 810 565 q 821 428 831 488 l 789 201 q 767 108 782 147 q 729 46 753 69 q 671 11 706 22 q 589 0 636 0 l 385 0 l 440 403 l 171 403 l 114 0 l 46 0 m 460 40 l 585 40 q 663 60 635 40 q 703 117 690 81 q 722 203 717 154 l 751 401 q 756 483 758 447 q 731 539 753 518 q 654 560 708 560 l 531 560 l 460 40 z "},"Ñ":{"ha":593,"x_min":46,"x_max":565,"o":"m 46 0 l 163 821 l 222 821 l 407 142 l 504 821 l 565 821 l 449 0 l 386 0 l 203 660 l 108 0 l 46 0 m 432 904 q 403 910 414 904 q 375 928 392 915 q 351 945 364 936 q 321 954 338 954 q 291 942 304 954 q 271 906 278 931 l 240 906 q 272 967 249 943 q 328 992 294 992 q 360 983 346 992 q 390 964 375 975 q 414 949 403 956 q 439 943 425 943 q 469 953 457 943 q 489 989 482 964 l 522 989 q 488 928 513 951 q 432 904 464 904 z "},"O":{"ha":568,"x_min":46,"x_max":542,"o":"m 232 -17 q 130 -3 174 -17 q 66 52 86 10 q 58 181 46 94 l 125 650 q 168 768 136 729 q 248 819 200 807 q 353 832 296 832 q 456 819 413 832 q 521 767 500 806 q 531 650 542 728 l 464 181 q 420 51 453 93 q 340 -3 388 10 q 232 -17 292 -17 m 239 26 q 310 36 278 26 q 365 75 343 46 q 394 165 386 104 l 463 649 q 457 740 471 710 q 414 778 443 769 q 346 788 385 788 q 274 778 307 788 q 220 740 242 769 q 190 649 199 710 l 122 165 q 128 75 114 104 q 171 36 142 46 q 239 26 200 26 z "},"О":{"ha":568,"x_min":46,"x_max":542,"o":"m 232 -17 q 130 -3 174 -17 q 66 52 86 10 q 58 181 46 94 l 125 650 q 168 768 136 729 q 248 819 200 807 q 353 832 296 832 q 456 819 413 832 q 521 767 500 806 q 531 650 542 728 l 464 181 q 420 51 453 93 q 340 -3 388 10 q 232 -17 292 -17 m 239 26 q 310 36 278 26 q 365 75 343 46 q 394 165 386 104 l 463 649 q 457 740 471 710 q 414 778 443 769 q 346 788 385 788 q 274 778 307 788 q 220 740 242 769 q 190 649 199 710 l 122 165 q 128 75 114 104 q 171 36 142 46 q 239 26 200 26 z "},"Œ":{"ha":807,"x_min":46,"x_max":838,"o":"m 231 -17 q 129 -3 172 -17 q 66 52 86 10 q 58 181 46 94 l 124 650 q 167 768 135 729 q 247 819 199 807 q 353 832 294 832 q 452 819 410 832 q 514 767 494 806 q 524 650 533 728 l 456 181 q 413 51 444 93 q 335 -3 382 10 q 231 -17 289 -17 m 238 26 q 310 36 278 26 q 363 76 342 46 q 392 165 385 106 l 460 649 q 456 739 469 710 q 413 778 442 768 q 344 788 385 788 q 274 778 306 788 q 220 739 242 768 q 190 649 199 710 l 122 165 q 126 76 114 106 q 169 36 139 46 q 238 26 199 26 m 369 0 l 485 821 l 838 821 l 831 771 l 546 771 l 500 457 l 728 457 l 719 404 l 493 404 l 443 49 l 729 49 l 722 0 l 369 0 z "},"Ó":{"ha":568,"x_min":46,"x_max":542,"o":"m 232 -17 q 130 -3 174 -17 q 66 52 86 10 q 58 181 46 94 l 125 650 q 168 768 136 729 q 248 819 200 807 q 353 832 296 832 q 456 819 413 832 q 521 767 500 806 q 531 650 542 728 l 464 181 q 420 51 453 93 q 340 -3 388 10 q 232 -17 292 -17 m 239 26 q 310 36 278 26 q 365 75 343 46 q 394 165 386 104 l 463 649 q 457 740 471 710 q 414 778 443 769 q 346 788 385 788 q 274 778 307 788 q 220 740 242 769 q 190 649 199 710 l 122 165 q 128 75 114 104 q 171 36 142 46 q 239 26 200 26 m 282 879 l 408 990 l 482 990 l 328 879 l 282 879 z "},"Ǒ":{"ha":568,"x_min":46,"x_max":542,"o":"m 232 -17 q 130 -3 174 -17 q 66 52 86 10 q 58 181 46 94 l 125 650 q 168 768 136 729 q 248 819 200 807 q 353 832 296 832 q 456 819 413 832 q 521 767 500 806 q 531 650 542 728 l 464 181 q 420 51 453 93 q 340 -3 388 10 q 232 -17 292 -17 m 239 26 q 310 36 278 26 q 365 75 343 46 q 394 165 386 104 l 463 649 q 457 740 471 710 q 414 778 443 769 q 346 788 385 788 q 274 778 307 788 q 220 740 242 769 q 190 649 199 710 l 122 165 q 128 75 114 104 q 171 36 142 46 q 239 26 200 26 m 333 874 l 229 994 l 278 994 l 364 910 l 475 993 l 522 993 l 382 874 l 333 874 z "},"Ô":{"ha":568,"x_min":46,"x_max":542,"o":"m 232 -17 q 130 -3 174 -17 q 66 52 86 10 q 58 181 46 94 l 125 650 q 168 768 136 729 q 248 819 200 807 q 353 832 296 832 q 456 819 413 832 q 521 767 500 806 q 531 650 542 728 l 464 181 q 420 51 453 93 q 340 -3 388 10 q 232 -17 292 -17 m 239 26 q 310 36 278 26 q 365 75 343 46 q 394 165 386 104 l 463 649 q 457 740 471 710 q 414 778 443 769 q 346 788 385 788 q 274 778 307 788 q 220 740 242 769 q 190 649 199 710 l 122 165 q 128 75 114 104 q 171 36 142 46 q 239 26 200 26 m 211 874 l 351 994 l 400 994 l 506 874 l 457 874 l 369 958 l 261 874 l 211 874 z "},"Ố":{"ha":568,"x_min":46,"x_max":596,"o":"m 232 -17 q 130 -3 174 -17 q 66 52 86 10 q 58 181 46 94 l 125 650 q 168 768 136 729 q 248 819 200 807 q 353 832 296 832 q 456 819 413 832 q 521 767 500 806 q 531 650 542 728 l 464 181 q 420 51 453 93 q 340 -3 388 10 q 232 -17 292 -17 m 239 26 q 310 36 278 26 q 365 75 343 46 q 394 165 386 104 l 463 649 q 457 740 471 710 q 414 778 443 769 q 346 788 385 788 q 274 778 307 788 q 220 740 242 769 q 190 649 199 710 l 122 165 q 128 75 114 104 q 171 36 142 46 q 239 26 200 26 m 250 871 l 350 961 l 394 961 l 468 871 l 424 871 l 368 928 l 296 871 l 250 871 m 467 924 l 529 1015 l 597 1015 l 508 924 l 467 924 z "},"Ộ":{"ha":568,"x_min":46,"x_max":542,"o":"m 232 -17 q 130 -3 174 -17 q 66 52 86 10 q 58 181 46 94 l 125 650 q 168 768 136 729 q 248 819 200 807 q 353 832 296 832 q 456 819 413 832 q 521 767 500 806 q 531 650 542 728 l 464 181 q 420 51 453 93 q 340 -3 388 10 q 232 -17 292 -17 m 239 26 q 310 36 278 26 q 365 75 343 46 q 394 165 386 104 l 463 649 q 457 740 471 710 q 414 778 443 769 q 346 788 385 788 q 274 778 307 788 q 220 740 242 769 q 190 649 199 710 l 122 165 q 128 75 114 104 q 171 36 142 46 q 239 26 200 26 m 221 -142 q 192 -130 204 -142 q 181 -101 181 -118 q 192 -75 181 -86 q 221 -64 204 -64 q 249 -75 238 -64 q 261 -101 261 -86 q 249 -130 261 -118 q 221 -142 238 -142 m 211 874 l 351 994 l 400 994 l 506 874 l 457 874 l 369 958 l 261 874 l 211 874 z "},"Ồ":{"ha":568,"x_min":46,"x_max":542,"o":"m 232 -17 q 130 -3 174 -17 q 66 52 86 10 q 58 181 46 94 l 125 650 q 168 768 136 729 q 248 819 200 807 q 353 832 296 832 q 456 819 413 832 q 521 767 500 806 q 531 650 542 728 l 464 181 q 420 51 453 93 q 340 -3 388 10 q 232 -17 292 -17 m 239 26 q 310 36 278 26 q 365 75 343 46 q 394 165 386 104 l 463 649 q 457 740 471 710 q 414 778 443 769 q 346 788 385 788 q 274 778 307 788 q 220 740 242 769 q 190 649 199 710 l 122 165 q 128 75 114 104 q 171 36 142 46 q 239 26 200 26 m 250 871 l 350 961 l 394 961 l 468 871 l 424 871 l 368 928 l 296 871 l 250 871 m 499 924 l 429 1015 l 499 1015 l 540 924 l 499 924 z "},"Ổ":{"ha":568,"x_min":46,"x_max":575,"o":"m 232 -17 q 130 -3 174 -17 q 66 52 86 10 q 58 181 46 94 l 125 650 q 168 768 136 729 q 248 819 200 807 q 353 832 296 832 q 456 819 413 832 q 521 767 500 806 q 531 650 542 728 l 464 181 q 420 51 453 93 q 340 -3 388 10 q 232 -17 292 -17 m 239 26 q 310 36 278 26 q 365 75 343 46 q 394 165 386 104 l 463 649 q 457 740 471 710 q 414 778 443 769 q 346 788 385 788 q 274 778 307 788 q 220 740 242 769 q 190 649 199 710 l 122 165 q 128 75 114 104 q 171 36 142 46 q 239 26 200 26 m 250 871 l 350 961 l 394 961 l 468 871 l 424 871 l 368 928 l 296 871 l 250 871 m 486 918 l 489 938 q 502 956 492 951 q 523 967 513 961 q 533 986 533 972 l 535 993 q 532 1010 535 1000 q 514 1021 529 1021 q 486 999 493 1021 l 453 1004 q 476 1036 460 1025 q 519 1047 493 1047 q 564 1032 553 1047 q 574 990 575 1017 l 574 988 q 565 960 572 968 q 549 949 558 951 q 532 942 539 946 q 525 931 525 939 l 524 918 l 486 918 z "},"Ỗ":{"ha":568,"x_min":46,"x_max":542,"o":"m 232 -17 q 130 -3 174 -17 q 66 52 86 10 q 58 181 46 94 l 125 650 q 168 768 136 729 q 248 819 200 807 q 353 832 296 832 q 456 819 413 832 q 521 767 500 806 q 531 650 542 728 l 464 181 q 420 51 453 93 q 340 -3 388 10 q 232 -17 292 -17 m 239 26 q 310 36 278 26 q 365 75 343 46 q 394 165 386 104 l 463 649 q 457 740 471 710 q 414 778 443 769 q 346 788 385 788 q 274 778 307 788 q 220 740 242 769 q 190 649 199 710 l 122 165 q 128 75 114 104 q 171 36 142 46 q 239 26 200 26 m 250 871 l 350 961 l 394 961 l 468 871 l 424 871 l 368 928 l 296 871 l 250 871 m 413 983 q 391 988 400 983 q 371 1000 382 992 q 353 1013 363 1007 q 331 1018 343 1018 q 310 1010 319 1018 q 297 985 301 1001 l 272 985 q 295 1034 278 1015 q 338 1053 313 1053 q 361 1047 350 1053 q 383 1033 372 1040 q 401 1023 393 1028 q 419 1018 410 1018 q 440 1026 431 1018 q 454 1050 450 1033 l 481 1050 q 466 1014 476 1029 q 442 991 456 999 q 413 983 428 983 z "},"Ö":{"ha":568,"x_min":46,"x_max":542,"o":"m 232 -17 q 130 -3 174 -17 q 66 52 86 10 q 58 181 46 94 l 125 650 q 168 768 136 729 q 248 819 200 807 q 353 832 296 832 q 456 819 413 832 q 521 767 500 806 q 531 650 542 728 l 464 181 q 420 51 453 93 q 340 -3 388 10 q 232 -17 292 -17 m 239 26 q 310 36 278 26 q 365 75 343 46 q 394 165 386 104 l 463 649 q 457 740 471 710 q 414 778 443 769 q 346 788 385 788 q 274 778 307 788 q 220 740 242 769 q 190 649 199 710 l 122 165 q 128 75 114 104 q 171 36 142 46 q 239 26 200 26 m 304 892 q 276 903 288 892 q 264 931 264 914 q 276 958 264 947 q 304 968 288 968 q 332 958 321 968 q 343 931 343 947 q 332 903 343 914 q 304 892 321 892 m 429 892 q 401 903 413 892 q 389 931 389 914 q 401 958 389 947 q 429 968 413 968 q 458 958 446 968 q 469 931 469 947 q 458 903 469 914 q 429 892 446 892 z "},"Ọ":{"ha":568,"x_min":46,"x_max":542,"o":"m 232 -17 q 130 -3 174 -17 q 66 52 86 10 q 58 181 46 94 l 125 650 q 168 768 136 729 q 248 819 200 807 q 353 832 296 832 q 456 819 413 832 q 521 767 500 806 q 531 650 542 728 l 464 181 q 420 51 453 93 q 340 -3 388 10 q 232 -17 292 -17 m 239 26 q 310 36 278 26 q 365 75 343 46 q 394 165 386 104 l 463 649 q 457 740 471 710 q 414 778 443 769 q 346 788 385 788 q 274 778 307 788 q 220 740 242 769 q 190 649 199 710 l 122 165 q 128 75 114 104 q 171 36 142 46 q 239 26 200 26 m 221 -142 q 192 -130 204 -142 q 181 -101 181 -118 q 192 -75 181 -86 q 221 -64 204 -64 q 249 -75 238 -64 q 261 -101 261 -86 q 249 -130 261 -118 q 221 -142 238 -142 z "},"Ò":{"ha":568,"x_min":46,"x_max":542,"o":"m 232 -17 q 130 -3 174 -17 q 66 52 86 10 q 58 181 46 94 l 125 650 q 168 768 136 729 q 248 819 200 807 q 353 832 296 832 q 456 819 413 832 q 521 767 500 806 q 531 650 542 728 l 464 181 q 420 51 453 93 q 340 -3 388 10 q 232 -17 292 -17 m 239 26 q 310 36 278 26 q 365 75 343 46 q 394 165 386 104 l 463 649 q 457 740 471 710 q 414 778 443 769 q 346 788 385 788 q 274 778 307 788 q 220 740 242 769 q 190 649 199 710 l 122 165 q 128 75 114 104 q 171 36 142 46 q 239 26 200 26 m 364 879 l 229 990 l 303 990 l 414 879 l 364 879 z "},"Ỏ":{"ha":568,"x_min":46,"x_max":542,"o":"m 232 -17 q 130 -3 174 -17 q 66 52 86 10 q 58 181 46 94 l 125 650 q 168 768 136 729 q 248 819 200 807 q 353 832 296 832 q 456 819 413 832 q 521 767 500 806 q 531 650 542 728 l 464 181 q 420 51 453 93 q 340 -3 388 10 q 232 -17 292 -17 m 239 26 q 310 36 278 26 q 365 75 343 46 q 394 165 386 104 l 463 649 q 457 740 471 710 q 414 778 443 769 q 346 788 385 788 q 274 778 307 788 q 220 740 242 769 q 190 649 199 710 l 122 165 q 128 75 114 104 q 171 36 142 46 q 239 26 200 26 m 338 860 l 340 888 q 359 915 343 908 q 390 929 375 921 q 407 958 406 938 l 407 965 q 402 996 408 982 q 372 1010 396 1010 q 331 976 342 1010 l 294 983 q 324 1026 304 1011 q 381 1040 344 1040 q 436 1019 421 1040 q 450 963 451 999 l 449 960 q 438 922 449 933 q 414 905 428 910 q 389 895 400 900 q 378 879 378 890 l 376 860 l 338 860 z "},"Ơ":{"ha":568,"x_min":46,"x_max":579,"o":"m 232 -17 q 130 -3 174 -17 q 66 52 86 10 q 58 181 46 94 l 125 650 q 168 768 136 729 q 248 819 200 807 q 353 832 296 832 q 456 819 413 832 q 521 767 500 806 q 531 650 542 728 l 464 181 q 420 51 453 93 q 340 -3 388 10 q 232 -17 292 -17 m 239 26 q 310 36 278 26 q 365 75 343 46 q 394 165 386 104 l 463 649 q 457 740 471 710 q 414 778 443 769 q 346 788 385 788 q 274 778 307 788 q 220 740 242 769 q 190 649 199 710 l 122 165 q 128 75 114 104 q 171 36 142 46 q 239 26 200 26 m 435 786 l 435 821 l 450 821 q 528 883 519 821 l 531 906 l 579 906 l 578 889 q 533 811 571 838 q 435 786 496 785 z "},"Ớ":{"ha":568,"x_min":46,"x_max":579,"o":"m 232 -17 q 130 -3 174 -17 q 66 52 86 10 q 58 181 46 94 l 125 650 q 168 768 136 729 q 248 819 200 807 q 353 832 296 832 q 456 819 413 832 q 521 767 500 806 q 531 650 542 728 l 464 181 q 420 51 453 93 q 340 -3 388 10 q 232 -17 292 -17 m 239 26 q 310 36 278 26 q 365 75 343 46 q 394 165 386 104 l 463 649 q 457 740 471 710 q 414 778 443 769 q 346 788 385 788 q 274 778 307 788 q 220 740 242 769 q 190 649 199 710 l 122 165 q 128 75 114 104 q 171 36 142 46 q 239 26 200 26 m 435 786 l 435 821 l 450 821 q 528 883 519 821 l 531 906 l 579 906 l 578 889 q 533 811 571 838 q 435 786 496 785 m 282 879 l 408 990 l 482 990 l 328 879 l 282 879 z "},"Ợ":{"ha":568,"x_min":46,"x_max":579,"o":"m 232 -17 q 130 -3 174 -17 q 66 52 86 10 q 58 181 46 94 l 125 650 q 168 768 136 729 q 248 819 200 807 q 353 832 296 832 q 456 819 413 832 q 521 767 500 806 q 531 650 542 728 l 464 181 q 420 51 453 93 q 340 -3 388 10 q 232 -17 292 -17 m 239 26 q 310 36 278 26 q 365 75 343 46 q 394 165 386 104 l 463 649 q 457 740 471 710 q 414 778 443 769 q 346 788 385 788 q 274 778 307 788 q 220 740 242 769 q 190 649 199 710 l 122 165 q 128 75 114 104 q 171 36 142 46 q 239 26 200 26 m 435 786 l 435 821 l 450 821 q 528 883 519 821 l 531 906 l 579 906 l 578 889 q 533 811 571 838 q 435 786 496 785 m 221 -142 q 192 -130 204 -142 q 181 -101 181 -118 q 192 -75 181 -86 q 221 -64 204 -64 q 249 -75 238 -64 q 261 -101 261 -86 q 249 -130 261 -118 q 221 -142 238 -142 z "},"Ờ":{"ha":568,"x_min":46,"x_max":579,"o":"m 232 -17 q 130 -3 174 -17 q 66 52 86 10 q 58 181 46 94 l 125 650 q 168 768 136 729 q 248 819 200 807 q 353 832 296 832 q 456 819 413 832 q 521 767 500 806 q 531 650 542 728 l 464 181 q 420 51 453 93 q 340 -3 388 10 q 232 -17 292 -17 m 239 26 q 310 36 278 26 q 365 75 343 46 q 394 165 386 104 l 463 649 q 457 740 471 710 q 414 778 443 769 q 346 788 385 788 q 274 778 307 788 q 220 740 242 769 q 190 649 199 710 l 122 165 q 128 75 114 104 q 171 36 142 46 q 239 26 200 26 m 435 786 l 435 821 l 450 821 q 528 883 519 821 l 531 906 l 579 906 l 578 889 q 533 811 571 838 q 435 786 496 785 m 364 879 l 229 990 l 303 990 l 414 879 l 364 879 z "},"Ở":{"ha":568,"x_min":46,"x_max":579,"o":"m 232 -17 q 130 -3 174 -17 q 66 52 86 10 q 58 181 46 94 l 125 650 q 168 768 136 729 q 248 819 200 807 q 353 832 296 832 q 456 819 413 832 q 521 767 500 806 q 531 650 542 728 l 464 181 q 420 51 453 93 q 340 -3 388 10 q 232 -17 292 -17 m 239 26 q 310 36 278 26 q 365 75 343 46 q 394 165 386 104 l 463 649 q 457 740 471 710 q 414 778 443 769 q 346 788 385 788 q 274 778 307 788 q 220 740 242 769 q 190 649 199 710 l 122 165 q 128 75 114 104 q 171 36 142 46 q 239 26 200 26 m 435 786 l 435 821 l 450 821 q 528 883 519 821 l 531 906 l 579 906 l 578 889 q 533 811 571 838 q 435 786 496 785 m 338 860 l 340 888 q 359 915 343 908 q 390 929 375 921 q 407 958 406 938 l 407 965 q 402 996 408 982 q 372 1010 396 1010 q 331 976 342 1010 l 294 983 q 324 1026 304 1011 q 381 1040 344 1040 q 436 1019 421 1040 q 450 963 451 999 l 449 960 q 438 922 449 933 q 414 905 428 910 q 389 895 400 900 q 378 879 378 890 l 376 860 l 338 860 z "},"Ỡ":{"ha":568,"x_min":46,"x_max":579,"o":"m 232 -17 q 130 -3 174 -17 q 66 52 86 10 q 58 181 46 94 l 125 650 q 168 768 136 729 q 248 819 200 807 q 353 832 296 832 q 456 819 413 832 q 521 767 500 806 q 531 650 542 728 l 464 181 q 420 51 453 93 q 340 -3 388 10 q 232 -17 292 -17 m 239 26 q 310 36 278 26 q 365 75 343 46 q 394 165 386 104 l 463 649 q 457 740 471 710 q 414 778 443 769 q 346 788 385 788 q 274 778 307 788 q 220 740 242 769 q 190 649 199 710 l 122 165 q 128 75 114 104 q 171 36 142 46 q 239 26 200 26 m 435 786 l 435 821 l 450 821 q 528 883 519 821 l 531 906 l 579 906 l 578 889 q 533 811 571 838 q 435 786 496 785 m 417 889 q 388 894 399 889 q 360 913 376 900 q 335 930 349 921 q 306 939 322 939 q 276 927 289 939 q 256 890 263 915 l 225 890 q 256 952 233 928 q 313 976 279 976 q 345 968 331 976 q 375 949 360 960 q 399 934 388 940 q 424 928 410 928 q 454 938 442 928 q 474 974 467 949 l 507 974 q 473 913 497 936 q 417 889 449 889 z "},"Ő":{"ha":568,"x_min":46,"x_max":542,"o":"m 232 -17 q 130 -3 174 -17 q 66 52 86 10 q 58 181 46 94 l 125 650 q 168 768 136 729 q 248 819 200 807 q 353 832 296 832 q 456 819 413 832 q 521 767 500 806 q 531 650 542 728 l 464 181 q 420 51 453 93 q 340 -3 388 10 q 232 -17 292 -17 m 239 26 q 310 36 278 26 q 365 75 343 46 q 394 165 386 104 l 463 649 q 457 740 471 710 q 414 778 443 769 q 346 788 385 788 q 274 778 307 788 q 220 740 242 769 q 190 649 199 710 l 122 165 q 128 75 114 104 q 171 36 142 46 q 239 26 200 26 m 286 872 l 343 999 l 407 999 l 318 872 l 286 872 m 376 872 l 439 999 l 501 999 l 411 872 l 376 872 z "},"Ō":{"ha":568,"x_min":46,"x_max":542,"o":"m 232 -17 q 130 -3 174 -17 q 66 52 86 10 q 58 181 46 94 l 125 650 q 168 768 136 729 q 248 819 200 807 q 353 832 296 832 q 456 819 413 832 q 521 767 500 806 q 531 650 542 728 l 464 181 q 420 51 453 93 q 340 -3 388 10 q 232 -17 292 -17 m 239 26 q 310 36 278 26 q 365 75 343 46 q 394 165 386 104 l 463 649 q 457 740 471 710 q 414 778 443 769 q 346 788 385 788 q 274 778 307 788 q 220 740 242 769 q 190 649 199 710 l 122 165 q 128 75 114 104 q 171 36 142 46 q 239 26 200 26 m 238 906 l 243 944 l 493 944 l 489 906 l 238 906 z "},"Ω":{"ha":833,"x_min":54,"x_max":772,"o":"m 54 0 l 58 56 l 289 50 l 279 57 q 160 188 201 121 q 106 317 119 254 q 96 426 93 381 q 120 574 97 508 q 186 686 143 639 q 292 758 229 733 q 435 783 356 783 q 576 758 515 783 q 676 685 636 732 q 735 574 715 639 q 753 431 756 510 q 733 319 751 382 q 673 190 715 257 q 553 57 631 122 l 542 50 l 772 56 l 768 0 l 460 0 l 464 39 q 573 140 531 89 q 639 243 615 192 q 672 341 663 294 q 682 425 681 388 q 656 589 685 518 q 570 699 626 660 q 431 739 514 739 q 288 699 347 739 q 197 585 229 658 q 163 411 165 511 q 169 335 161 379 q 197 240 176 290 q 259 138 218 190 q 364 39 300 86 l 361 0 l 54 0 z "},"Ø":{"ha":589,"x_min":-10,"x_max":575,"o":"m -10 -19 l 531 821 l 575 821 l 33 -19 l -10 -19 m 233 -17 q 132 -3 175 -17 q 69 52 89 10 q 60 181 49 94 l 126 650 q 169 768 138 729 q 249 819 200 807 q 356 832 297 832 q 457 819 414 832 q 520 767 500 806 q 529 650 540 728 l 463 181 q 420 51 451 93 q 342 -3 389 10 q 233 -17 294 -17 m 240 26 q 312 36 281 26 q 365 75 343 46 q 394 165 386 104 l 461 649 q 458 740 471 710 q 416 778 444 769 q 349 788 388 788 q 277 778 308 788 q 225 740 246 769 q 194 649 204 710 l 126 165 q 131 75 118 104 q 172 36 143 46 q 240 26 201 26 z "},"Õ":{"ha":568,"x_min":46,"x_max":542,"o":"m 232 -17 q 130 -3 174 -17 q 66 52 86 10 q 58 181 46 94 l 125 650 q 168 768 136 729 q 248 819 200 807 q 353 832 296 832 q 456 819 413 832 q 521 767 500 806 q 531 650 542 728 l 464 181 q 420 51 453 93 q 340 -3 388 10 q 232 -17 292 -17 m 239 26 q 310 36 278 26 q 365 75 343 46 q 394 165 386 104 l 463 649 q 457 740 471 710 q 414 778 443 769 q 346 788 385 788 q 274 778 307 788 q 220 740 242 769 q 190 649 199 710 l 122 165 q 128 75 114 104 q 171 36 142 46 q 239 26 200 26 m 417 889 q 388 894 399 889 q 360 913 376 900 q 335 930 349 921 q 306 939 322 939 q 276 927 289 939 q 256 890 263 915 l 225 890 q 256 952 233 928 q 313 976 279 976 q 345 968 331 976 q 375 949 360 960 q 399 934 388 940 q 424 928 410 928 q 454 938 442 928 q 474 974 467 949 l 507 974 q 473 913 497 936 q 417 889 449 889 z "},"P":{"ha":532,"x_min":46,"x_max":553,"o":"m 46 0 l 163 821 l 408 821 q 514 789 475 821 q 542 685 553 757 l 519 532 q 495 447 514 486 q 435 384 476 408 q 321 360 393 360 l 168 360 l 117 0 l 46 0 m 174 403 l 310 403 q 408 437 371 403 q 454 542 444 471 l 471 661 q 453 751 479 722 q 388 779 428 779 l 226 779 l 174 403 z "},"П":{"ha":578,"x_min":46,"x_max":550,"o":"m 46 0 l 163 821 l 550 821 l 433 0 l 361 0 l 471 769 l 226 769 l 118 0 l 46 0 z "},"Q":{"ha":568,"x_min":47,"x_max":540,"o":"m 354 -160 l 289 -12 q 263 -15 276 -14 q 231 -15 249 -15 q 131 -2 174 -15 q 67 53 88 11 q 58 181 47 96 l 125 650 q 168 768 136 729 q 248 819 200 807 q 354 832 296 832 q 457 819 414 832 q 520 767 500 806 q 531 650 540 728 l 464 182 q 423 58 453 99 q 349 3 393 18 l 410 -129 l 354 -160 m 240 28 q 312 37 281 28 q 365 76 343 46 q 394 167 386 106 l 461 649 q 458 740 471 710 q 415 778 444 769 q 347 788 386 788 q 275 778 307 788 q 223 740 243 769 q 193 649 203 710 l 125 167 q 129 76 117 106 q 171 37 142 46 q 240 28 200 28 z "},"R":{"ha":574,"x_min":46,"x_max":554,"o":"m 46 0 l 163 821 l 410 821 q 515 789 476 821 q 543 685 554 757 l 525 551 q 465 440 515 478 q 342 401 415 403 l 343 403 q 406 373 388 403 q 433 282 424 343 l 479 0 l 407 0 l 368 278 q 356 329 364 304 q 332 370 349 354 q 286 386 315 386 l 171 386 l 115 0 l 46 0 m 176 433 l 315 433 q 414 462 378 433 q 458 560 450 490 l 475 674 q 456 754 482 729 q 389 779 429 779 l 225 779 l 176 433 z "},"Ŕ":{"ha":574,"x_min":46,"x_max":554,"o":"m 46 0 l 163 821 l 410 821 q 515 789 476 821 q 543 685 554 757 l 525 551 q 465 440 515 478 q 342 401 415 403 l 343 403 q 406 373 388 403 q 433 282 424 343 l 479 0 l 407 0 l 368 278 q 356 329 364 304 q 332 370 349 354 q 286 386 315 386 l 171 386 l 115 0 l 46 0 m 176 433 l 315 433 q 414 462 378 433 q 458 560 450 490 l 475 674 q 456 754 482 729 q 389 779 429 779 l 225 779 l 176 433 m 283 879 l 410 990 l 483 990 l 329 879 l 283 879 z "},"Ř":{"ha":574,"x_min":46,"x_max":554,"o":"m 46 0 l 163 821 l 410 821 q 515 789 476 821 q 543 685 554 757 l 525 551 q 465 440 515 478 q 342 401 415 403 l 343 403 q 406 373 388 403 q 433 282 424 343 l 479 0 l 407 0 l 368 278 q 356 329 364 304 q 332 370 349 354 q 286 386 315 386 l 171 386 l 115 0 l 46 0 m 176 433 l 315 433 q 414 462 378 433 q 458 560 450 490 l 475 674 q 456 754 482 729 q 389 779 429 779 l 225 779 l 176 433 m 335 874 l 231 994 l 279 994 l 365 910 l 476 993 l 524 993 l 383 874 l 335 874 z "},"Ŗ":{"ha":574,"x_min":46,"x_max":554,"o":"m 46 0 l 163 821 l 410 821 q 515 789 476 821 q 543 685 554 757 l 525 551 q 465 440 515 478 q 342 401 415 403 l 343 403 q 406 373 388 403 q 433 282 424 343 l 479 0 l 407 0 l 368 278 q 356 329 364 304 q 332 370 349 354 q 286 386 315 386 l 171 386 l 115 0 l 46 0 m 176 433 l 315 433 q 414 462 378 433 q 458 560 450 490 l 475 674 q 456 754 482 729 q 389 779 429 779 l 225 779 l 176 433 m 186 -206 q 222 -151 210 -174 q 235 -118 235 -129 q 230 -106 235 -111 q 220 -94 225 -101 q 215 -75 215 -87 q 228 -53 217 -64 q 254 -43 239 -43 q 281 -53 271 -43 q 290 -78 290 -62 q 278 -115 289 -92 q 251 -161 267 -137 q 217 -206 235 -185 l 186 -206 z "},"S":{"ha":514,"x_min":28,"x_max":501,"o":"m 217 -8 q 105 13 149 -8 q 44 87 61 35 q 42 232 28 139 l 49 276 l 115 276 l 108 228 q 108 113 97 154 q 147 54 119 71 q 215 38 175 38 q 311 74 268 38 q 368 207 354 111 q 363 304 378 271 q 313 357 347 338 q 226 397 278 376 q 153 440 186 415 q 106 505 121 464 q 100 610 92 546 q 135 728 110 681 q 207 798 161 775 q 324 821 253 821 q 458 774 414 821 q 489 642 501 728 l 478 553 q 444 553 461 553 q 413 553 428 553 l 422 626 q 405 732 432 696 q 317 768 378 768 q 214 729 249 768 q 167 613 179 690 q 175 524 158 557 q 223 473 192 492 q 293 439 254 454 q 388 390 353 415 q 436 324 424 364 q 438 214 449 285 q 394 82 426 131 q 315 13 361 33 q 217 -8 268 -8 z "},"Š":{"ha":514,"x_min":28,"x_max":508,"o":"m 217 -8 q 105 13 149 -8 q 44 87 61 35 q 42 232 28 139 l 49 276 l 115 276 l 108 228 q 108 113 97 154 q 147 54 119 71 q 215 38 175 38 q 311 74 268 38 q 368 207 354 111 q 363 304 378 271 q 313 357 347 338 q 226 397 278 376 q 153 440 186 415 q 106 505 121 464 q 100 610 92 546 q 135 728 110 681 q 207 798 161 775 q 324 821 253 821 q 458 774 414 821 q 489 642 501 728 l 478 553 q 444 553 461 553 q 413 553 428 553 l 422 626 q 405 732 432 696 q 317 768 378 768 q 214 729 249 768 q 167 613 179 690 q 175 524 158 557 q 223 473 192 492 q 293 439 254 454 q 388 390 353 415 q 436 324 424 364 q 438 214 449 285 q 394 82 426 131 q 315 13 361 33 q 217 -8 268 -8 m 319 874 l 215 994 l 264 994 l 350 910 l 461 993 l 508 993 l 368 874 l 319 874 z "},"Ş":{"ha":514,"x_min":28,"x_max":501,"o":"m 217 -8 q 105 13 149 -8 q 44 87 61 35 q 42 232 28 139 l 49 276 l 115 276 l 108 228 q 108 113 97 154 q 147 54 119 71 q 215 38 175 38 q 311 74 268 38 q 368 207 354 111 q 363 304 378 271 q 313 357 347 338 q 226 397 278 376 q 153 440 186 415 q 106 505 121 464 q 100 610 92 546 q 135 728 110 681 q 207 798 161 775 q 324 821 253 821 q 458 774 414 821 q 489 642 501 728 l 478 553 q 444 553 461 553 q 413 553 428 553 l 422 626 q 405 732 432 696 q 317 768 378 768 q 214 729 249 768 q 167 613 179 690 q 175 524 158 557 q 223 473 192 492 q 293 439 254 454 q 388 390 353 415 q 436 324 424 364 q 438 214 449 285 q 394 82 426 131 q 315 13 361 33 q 217 -8 268 -8 m 181 -196 q 144 -189 160 -196 q 119 -176 129 -182 l 135 -149 q 157 -160 142 -154 q 182 -165 172 -165 q 227 -152 211 -165 q 244 -121 243 -139 q 206 -81 250 -81 q 185 -85 196 -81 q 165 -94 175 -89 l 143 -81 l 199 0 l 232 0 l 183 -69 l 176 -67 q 200 -58 188 -60 q 224 -56 213 -56 q 274 -76 258 -56 q 288 -118 290 -96 q 254 -174 282 -153 q 181 -196 226 -196 z "},"Ș":{"ha":514,"x_min":28,"x_max":501,"o":"m 217 -8 q 105 13 149 -8 q 44 87 61 35 q 42 232 28 139 l 49 276 l 115 276 l 108 228 q 108 113 97 154 q 147 54 119 71 q 215 38 175 38 q 311 74 268 38 q 368 207 354 111 q 363 304 378 271 q 313 357 347 338 q 226 397 278 376 q 153 440 186 415 q 106 505 121 464 q 100 610 92 546 q 135 728 110 681 q 207 798 161 775 q 324 821 253 821 q 458 774 414 821 q 489 642 501 728 l 478 553 q 444 553 461 553 q 413 553 428 553 l 422 626 q 405 732 432 696 q 317 768 378 768 q 214 729 249 768 q 167 613 179 690 q 175 524 158 557 q 223 473 192 492 q 293 439 254 454 q 388 390 353 415 q 436 324 424 364 q 438 214 449 285 q 394 82 426 131 q 315 13 361 33 q 217 -8 268 -8 m 136 -206 q 172 -151 160 -174 q 185 -118 185 -129 q 180 -106 185 -111 q 170 -94 175 -101 q 165 -75 165 -87 q 178 -53 167 -64 q 204 -43 189 -43 q 231 -53 221 -43 q 240 -78 240 -62 q 228 -115 239 -92 q 201 -161 217 -137 q 167 -206 185 -185 l 136 -206 z "},"Ш":{"ha":888,"x_min":46,"x_max":860,"o":"m 46 0 l 163 821 l 233 821 l 124 50 l 367 50 l 476 821 l 546 821 l 438 50 l 681 50 l 789 821 l 860 821 l 743 0 l 46 0 z "},"Щ":{"ha":850,"x_min":13,"x_max":824,"o":"m 671 -110 l 688 0 l 13 0 l 128 821 l 197 821 l 89 50 l 332 50 l 440 821 l 511 821 l 401 50 l 644 50 l 754 821 l 824 821 l 714 38 l 750 38 l 729 -110 l 671 -110 z "},"Ь":{"ha":517,"x_min":32,"x_max":476,"o":"m 32 0 l 146 818 l 213 818 l 183 604 l 325 604 q 420 585 386 604 q 465 526 454 565 q 468 428 476 488 l 436 201 q 413 108 428 147 q 376 46 399 69 q 318 11 353 22 q 236 0 283 0 l 32 0 m 104 40 l 229 40 q 326 76 294 40 q 369 190 357 111 l 400 417 q 403 486 406 453 q 377 540 400 519 q 300 560 354 560 l 176 560 l 104 40 z "},"T":{"ha":385,"x_min":76,"x_max":436,"o":"m 108 0 l 217 771 l 76 771 l 83 821 l 436 821 l 428 771 l 285 771 l 175 0 l 108 0 z "},"Ŧ":{"ha":411,"x_min":76,"x_max":436,"o":"m 107 575 l 114 619 l 350 619 l 346 575 l 107 575 m 108 0 l 217 771 l 76 771 l 83 821 l 436 821 l 428 771 l 285 771 l 175 0 l 108 0 z "},"Ť":{"ha":385,"x_min":76,"x_max":436,"o":"m 108 0 l 217 771 l 76 771 l 83 821 l 436 821 l 428 771 l 285 771 l 175 0 l 108 0 m 240 874 l 136 994 l 185 994 l 271 910 l 382 993 l 429 993 l 289 874 l 240 874 z "},"Ţ":{"ha":385,"x_min":47,"x_max":436,"o":"m 108 0 l 217 771 l 76 771 l 83 821 l 436 821 l 428 771 l 285 771 l 175 0 l 108 0 m 108 -196 q 72 -189 88 -196 q 47 -176 57 -182 l 63 -149 q 85 -160 69 -154 q 110 -165 100 -165 q 155 -152 139 -165 q 172 -121 171 -139 q 133 -81 178 -81 q 113 -85 124 -81 q 93 -94 103 -89 l 71 -81 l 126 0 l 160 0 l 111 -69 l 104 -67 q 128 -58 115 -60 q 151 -56 140 -56 q 202 -76 186 -56 q 215 -118 218 -96 q 182 -174 210 -153 q 108 -196 154 -196 z "},"Ț":{"ha":385,"x_min":65,"x_max":436,"o":"m 108 0 l 217 771 l 76 771 l 83 821 l 436 821 l 428 771 l 285 771 l 175 0 l 108 0 m 65 -206 q 101 -151 89 -174 q 114 -118 114 -129 q 109 -106 114 -111 q 99 -94 104 -101 q 94 -75 94 -87 q 107 -53 96 -64 q 133 -43 118 -43 q 160 -53 150 -43 q 169 -78 169 -62 q 157 -115 168 -92 q 130 -161 146 -137 q 96 -206 114 -185 l 65 -206 z "},"Т":{"ha":385,"x_min":76,"x_max":436,"o":"m 108 0 l 217 771 l 76 771 l 83 821 l 436 821 l 428 771 l 285 771 l 175 0 l 108 0 z "},"Þ":{"ha":522,"x_min":4,"x_max":486,"o":"m 4 0 l 121 821 l 190 821 l 168 664 l 343 664 q 448 631 410 664 q 476 528 486 599 l 454 375 q 430 290 449 329 q 370 226 411 251 q 257 201 329 201 l 103 201 l 74 0 l 4 0 m 108 243 l 244 243 q 344 278 308 243 q 389 383 379 313 l 407 503 q 390 594 415 565 q 324 622 364 622 l 161 622 l 108 243 z "},"Ц":{"ha":579,"x_min":46,"x_max":550,"o":"m 397 -110 l 413 0 l 46 0 l 161 821 l 233 821 l 124 51 l 371 51 l 478 821 l 550 821 l 439 39 l 476 39 l 456 -110 l 397 -110 z "},"Ћ":{"ha":610,"x_min":75,"x_max":561,"o":"m 117 0 l 225 769 l 75 769 l 83 821 l 453 821 l 446 769 l 293 769 l 260 533 q 317 579 278 557 q 413 601 356 601 q 518 576 486 601 q 556 508 550 551 q 553 415 561 465 l 494 0 l 426 0 l 486 415 q 488 487 492 456 q 460 535 483 518 q 388 553 438 553 q 297 526 331 553 q 253 472 263 499 l 186 0 l 117 0 z "},"U":{"ha":576,"x_min":54,"x_max":556,"o":"m 239 -17 q 162 -10 197 -17 q 101 15 126 -4 q 65 72 76 35 q 64 168 54 108 l 154 821 l 222 821 l 129 157 q 137 76 122 104 q 181 38 151 47 q 244 28 210 28 q 311 38 279 28 q 366 76 343 47 q 396 157 389 104 l 489 821 l 556 821 l 464 168 q 435 72 456 108 q 384 15 414 35 q 317 -10 354 -4 q 239 -17 279 -17 z "},"У":{"ha":463,"x_min":-7,"x_max":496,"o":"m 60 -10 q 23 -7 40 -10 q -7 -1 6 -4 l -3 39 q 17 36 6 38 q 42 35 28 35 q 81 41 61 35 q 118 68 101 47 q 145 100 132 82 q 157 144 158 118 l 94 821 l 165 821 l 211 210 l 208 210 l 432 821 l 496 821 l 251 169 q 174 31 215 72 q 60 -10 132 -10 z "},"Ú":{"ha":576,"x_min":54,"x_max":556,"o":"m 239 -17 q 162 -10 197 -17 q 101 15 126 -4 q 65 72 76 35 q 64 168 54 108 l 154 821 l 222 821 l 129 157 q 137 76 122 104 q 181 38 151 47 q 244 28 210 28 q 311 38 279 28 q 366 76 343 47 q 396 157 389 104 l 489 821 l 556 821 l 464 168 q 435 72 456 108 q 384 15 414 35 q 317 -10 354 -4 q 239 -17 279 -17 m 286 879 l 413 990 l 486 990 l 332 879 l 286 879 z "},"Ǔ":{"ha":576,"x_min":54,"x_max":556,"o":"m 239 -17 q 162 -10 197 -17 q 101 15 126 -4 q 65 72 76 35 q 64 168 54 108 l 154 821 l 222 821 l 129 157 q 137 76 122 104 q 181 38 151 47 q 244 28 210 28 q 311 38 279 28 q 366 76 343 47 q 396 157 389 104 l 489 821 l 556 821 l 464 168 q 435 72 456 108 q 384 15 414 35 q 317 -10 354 -4 q 239 -17 279 -17 m 336 874 l 232 994 l 281 994 l 367 910 l 478 993 l 525 993 l 385 874 l 336 874 z "},"Û":{"ha":576,"x_min":54,"x_max":556,"o":"m 239 -17 q 162 -10 197 -17 q 101 15 126 -4 q 65 72 76 35 q 64 168 54 108 l 154 821 l 222 821 l 129 157 q 137 76 122 104 q 181 38 151 47 q 244 28 210 28 q 311 38 279 28 q 366 76 343 47 q 396 157 389 104 l 489 821 l 556 821 l 464 168 q 435 72 456 108 q 384 15 414 35 q 317 -10 354 -4 q 239 -17 279 -17 m 215 874 l 356 994 l 404 994 l 510 874 l 461 874 l 374 958 l 265 874 l 215 874 z "},"Ü":{"ha":576,"x_min":54,"x_max":556,"o":"m 239 -17 q 162 -10 197 -17 q 101 15 126 -4 q 65 72 76 35 q 64 168 54 108 l 154 821 l 222 821 l 129 157 q 137 76 122 104 q 181 38 151 47 q 244 28 210 28 q 311 38 279 28 q 366 76 343 47 q 396 157 389 104 l 489 821 l 556 821 l 464 168 q 435 72 456 108 q 384 15 414 35 q 317 -10 354 -4 q 239 -17 279 -17 m 308 892 q 280 903 292 892 q 268 931 268 914 q 280 958 268 947 q 308 968 292 968 q 336 958 325 968 q 347 931 347 947 q 336 903 347 914 q 308 892 325 892 m 433 892 q 405 903 417 892 q 393 931 393 914 q 405 958 393 947 q 433 968 417 968 q 462 958 450 968 q 474 931 474 947 q 462 903 474 914 q 433 892 450 892 z "},"Ǘ":{"ha":576,"x_min":54,"x_max":556,"o":"m 239 -17 q 162 -10 197 -17 q 101 15 126 -4 q 65 72 76 35 q 64 168 54 108 l 154 821 l 222 821 l 129 157 q 137 76 122 104 q 181 38 151 47 q 244 28 210 28 q 311 38 279 28 q 366 76 343 47 q 396 157 389 104 l 489 821 l 556 821 l 464 168 q 435 72 456 108 q 384 15 414 35 q 317 -10 354 -4 q 239 -17 279 -17 m 308 892 q 280 903 292 892 q 268 931 268 914 q 280 958 268 947 q 308 968 292 968 q 336 958 325 968 q 347 931 347 947 q 336 903 347 914 q 308 892 325 892 m 433 892 q 405 903 417 892 q 393 931 393 914 q 405 958 393 947 q 433 968 417 968 q 462 958 450 968 q 474 931 474 947 q 462 903 474 914 q 433 892 450 892 m 307 990 l 433 1101 l 507 1101 l 353 990 l 307 990 z "},"Ǚ":{"ha":576,"x_min":54,"x_max":556,"o":"m 239 -17 q 162 -10 197 -17 q 101 15 126 -4 q 65 72 76 35 q 64 168 54 108 l 154 821 l 222 821 l 129 157 q 137 76 122 104 q 181 38 151 47 q 244 28 210 28 q 311 38 279 28 q 366 76 343 47 q 396 157 389 104 l 489 821 l 556 821 l 464 168 q 435 72 456 108 q 384 15 414 35 q 317 -10 354 -4 q 239 -17 279 -17 m 308 892 q 280 903 292 892 q 268 931 268 914 q 280 958 268 947 q 308 968 292 968 q 336 958 325 968 q 347 931 347 947 q 336 903 347 914 q 308 892 325 892 m 433 892 q 405 903 417 892 q 393 931 393 914 q 405 958 393 947 q 433 968 417 968 q 462 958 450 968 q 474 931 474 947 q 462 903 474 914 q 433 892 450 892 m 357 985 l 253 1106 l 301 1106 l 388 1021 l 499 1104 l 546 1104 l 406 985 l 357 985 z "},"Ǜ":{"ha":576,"x_min":54,"x_max":556,"o":"m 239 -17 q 162 -10 197 -17 q 101 15 126 -4 q 65 72 76 35 q 64 168 54 108 l 154 821 l 222 821 l 129 157 q 137 76 122 104 q 181 38 151 47 q 244 28 210 28 q 311 38 279 28 q 366 76 343 47 q 396 157 389 104 l 489 821 l 556 821 l 464 168 q 435 72 456 108 q 384 15 414 35 q 317 -10 354 -4 q 239 -17 279 -17 m 308 892 q 280 903 292 892 q 268 931 268 914 q 280 958 268 947 q 308 968 292 968 q 336 958 325 968 q 347 931 347 947 q 336 903 347 914 q 308 892 325 892 m 433 892 q 405 903 417 892 q 393 931 393 914 q 405 958 393 947 q 433 968 417 968 q 462 958 450 968 q 474 931 474 947 q 462 903 474 914 q 433 892 450 892 m 388 990 l 253 1101 l 326 1101 l 438 990 l 388 990 z "},"Ǖ":{"ha":576,"x_min":54,"x_max":556,"o":"m 239 -17 q 162 -10 197 -17 q 101 15 126 -4 q 65 72 76 35 q 64 168 54 108 l 154 821 l 222 821 l 129 157 q 137 76 122 104 q 181 38 151 47 q 244 28 210 28 q 311 38 279 28 q 366 76 343 47 q 396 157 389 104 l 489 821 l 556 821 l 464 168 q 435 72 456 108 q 384 15 414 35 q 317 -10 354 -4 q 239 -17 279 -17 m 308 892 q 280 903 292 892 q 268 931 268 914 q 280 958 268 947 q 308 968 292 968 q 336 958 325 968 q 347 931 347 947 q 336 903 347 914 q 308 892 325 892 m 433 892 q 405 903 417 892 q 393 931 393 914 q 405 958 393 947 q 433 968 417 968 q 462 958 450 968 q 474 931 474 947 q 462 903 474 914 q 433 892 450 892 m 263 1017 l 268 1056 l 518 1056 l 514 1017 l 263 1017 z "},"Ụ":{"ha":576,"x_min":54,"x_max":556,"o":"m 239 -17 q 162 -10 197 -17 q 101 15 126 -4 q 65 72 76 35 q 64 168 54 108 l 154 821 l 222 821 l 129 157 q 137 76 122 104 q 181 38 151 47 q 244 28 210 28 q 311 38 279 28 q 366 76 343 47 q 396 157 389 104 l 489 821 l 556 821 l 464 168 q 435 72 456 108 q 384 15 414 35 q 317 -10 354 -4 q 239 -17 279 -17 m 225 -142 q 197 -130 208 -142 q 185 -101 185 -118 q 197 -75 185 -86 q 225 -64 208 -64 q 253 -75 242 -64 q 265 -101 265 -86 q 253 -130 265 -118 q 225 -142 242 -142 z "},"Ù":{"ha":576,"x_min":54,"x_max":556,"o":"m 239 -17 q 162 -10 197 -17 q 101 15 126 -4 q 65 72 76 35 q 64 168 54 108 l 154 821 l 222 821 l 129 157 q 137 76 122 104 q 181 38 151 47 q 244 28 210 28 q 311 38 279 28 q 366 76 343 47 q 396 157 389 104 l 489 821 l 556 821 l 464 168 q 435 72 456 108 q 384 15 414 35 q 317 -10 354 -4 q 239 -17 279 -17 m 368 879 l 233 990 l 307 990 l 418 879 l 368 879 z "},"Ủ":{"ha":576,"x_min":54,"x_max":556,"o":"m 239 -17 q 162 -10 197 -17 q 101 15 126 -4 q 65 72 76 35 q 64 168 54 108 l 154 821 l 222 821 l 129 157 q 137 76 122 104 q 181 38 151 47 q 244 28 210 28 q 311 38 279 28 q 366 76 343 47 q 396 157 389 104 l 489 821 l 556 821 l 464 168 q 435 72 456 108 q 384 15 414 35 q 317 -10 354 -4 q 239 -17 279 -17 m 342 860 l 344 888 q 363 915 347 908 q 394 929 379 921 q 411 958 410 938 l 411 965 q 406 996 413 982 q 376 1010 400 1010 q 335 976 346 1010 l 299 983 q 328 1026 308 1011 q 385 1040 349 1040 q 440 1019 425 1040 q 454 963 456 999 l 453 960 q 442 922 453 933 q 418 905 432 910 q 393 895 404 900 q 382 879 382 890 l 381 860 l 342 860 z "},"Ư":{"ha":576,"x_min":54,"x_max":640,"o":"m 239 -17 q 162 -10 197 -17 q 101 15 126 -4 q 65 72 76 35 q 64 168 54 108 l 154 821 l 222 821 l 129 157 q 137 76 122 104 q 181 38 151 47 q 244 28 210 28 q 311 38 279 28 q 366 76 343 47 q 396 157 389 104 l 489 821 l 556 821 l 464 168 q 435 72 456 108 q 384 15 414 35 q 317 -10 354 -4 q 239 -17 279 -17 m 496 786 l 496 821 l 511 821 q 589 883 581 821 l 592 906 l 640 906 l 639 889 q 594 811 632 838 q 496 786 557 785 z "},"Ứ":{"ha":576,"x_min":54,"x_max":640,"o":"m 239 -17 q 162 -10 197 -17 q 101 15 126 -4 q 65 72 76 35 q 64 168 54 108 l 154 821 l 222 821 l 129 157 q 137 76 122 104 q 181 38 151 47 q 244 28 210 28 q 311 38 279 28 q 366 76 343 47 q 396 157 389 104 l 489 821 l 556 821 l 464 168 q 435 72 456 108 q 384 15 414 35 q 317 -10 354 -4 q 239 -17 279 -17 m 496 786 l 496 821 l 511 821 q 589 883 581 821 l 592 906 l 640 906 l 639 889 q 594 811 632 838 q 496 786 557 785 m 286 879 l 413 990 l 486 990 l 332 879 l 286 879 z "},"Ự":{"ha":576,"x_min":54,"x_max":640,"o":"m 239 -17 q 162 -10 197 -17 q 101 15 126 -4 q 65 72 76 35 q 64 168 54 108 l 154 821 l 222 821 l 129 157 q 137 76 122 104 q 181 38 151 47 q 244 28 210 28 q 311 38 279 28 q 366 76 343 47 q 396 157 389 104 l 489 821 l 556 821 l 464 168 q 435 72 456 108 q 384 15 414 35 q 317 -10 354 -4 q 239 -17 279 -17 m 496 786 l 496 821 l 511 821 q 589 883 581 821 l 592 906 l 640 906 l 639 889 q 594 811 632 838 q 496 786 557 785 m 225 -142 q 197 -130 208 -142 q 185 -101 185 -118 q 197 -75 185 -86 q 225 -64 208 -64 q 253 -75 242 -64 q 265 -101 265 -86 q 253 -130 265 -118 q 225 -142 242 -142 z "},"Ừ":{"ha":576,"x_min":54,"x_max":640,"o":"m 239 -17 q 162 -10 197 -17 q 101 15 126 -4 q 65 72 76 35 q 64 168 54 108 l 154 821 l 222 821 l 129 157 q 137 76 122 104 q 181 38 151 47 q 244 28 210 28 q 311 38 279 28 q 366 76 343 47 q 396 157 389 104 l 489 821 l 556 821 l 464 168 q 435 72 456 108 q 384 15 414 35 q 317 -10 354 -4 q 239 -17 279 -17 m 496 786 l 496 821 l 511 821 q 589 883 581 821 l 592 906 l 640 906 l 639 889 q 594 811 632 838 q 496 786 557 785 m 368 879 l 233 990 l 307 990 l 418 879 l 368 879 z "},"Ử":{"ha":576,"x_min":54,"x_max":640,"o":"m 239 -17 q 162 -10 197 -17 q 101 15 126 -4 q 65 72 76 35 q 64 168 54 108 l 154 821 l 222 821 l 129 157 q 137 76 122 104 q 181 38 151 47 q 244 28 210 28 q 311 38 279 28 q 366 76 343 47 q 396 157 389 104 l 489 821 l 556 821 l 464 168 q 435 72 456 108 q 384 15 414 35 q 317 -10 354 -4 q 239 -17 279 -17 m 496 786 l 496 821 l 511 821 q 589 883 581 821 l 592 906 l 640 906 l 639 889 q 594 811 632 838 q 496 786 557 785 m 342 860 l 344 888 q 363 915 347 908 q 394 929 379 921 q 411 958 410 938 l 411 965 q 406 996 413 982 q 376 1010 400 1010 q 335 976 346 1010 l 299 983 q 328 1026 308 1011 q 385 1040 349 1040 q 440 1019 425 1040 q 454 963 456 999 l 453 960 q 442 922 453 933 q 418 905 432 910 q 393 895 404 900 q 382 879 382 890 l 381 860 l 342 860 z "},"Ữ":{"ha":576,"x_min":54,"x_max":640,"o":"m 239 -17 q 162 -10 197 -17 q 101 15 126 -4 q 65 72 76 35 q 64 168 54 108 l 154 821 l 222 821 l 129 157 q 137 76 122 104 q 181 38 151 47 q 244 28 210 28 q 311 38 279 28 q 366 76 343 47 q 396 157 389 104 l 489 821 l 556 821 l 464 168 q 435 72 456 108 q 384 15 414 35 q 317 -10 354 -4 q 239 -17 279 -17 m 496 786 l 496 821 l 511 821 q 589 883 581 821 l 592 906 l 640 906 l 639 889 q 594 811 632 838 q 496 786 557 785 m 421 889 q 392 894 403 889 q 364 913 381 900 q 340 930 353 921 q 310 939 326 939 q 280 927 293 939 q 260 890 267 915 l 229 890 q 260 952 238 928 q 317 976 283 976 q 349 968 335 976 q 379 949 364 960 q 403 934 392 940 q 428 928 414 928 q 458 938 446 928 q 478 974 471 949 l 511 974 q 477 913 501 936 q 421 889 453 889 z "},"Ű":{"ha":576,"x_min":54,"x_max":556,"o":"m 239 -17 q 162 -10 197 -17 q 101 15 126 -4 q 65 72 76 35 q 64 168 54 108 l 154 821 l 222 821 l 129 157 q 137 76 122 104 q 181 38 151 47 q 244 28 210 28 q 311 38 279 28 q 366 76 343 47 q 396 157 389 104 l 489 821 l 556 821 l 464 168 q 435 72 456 108 q 384 15 414 35 q 317 -10 354 -4 q 239 -17 279 -17 m 289 872 l 346 999 l 410 999 l 321 872 l 289 872 m 379 872 l 442 999 l 504 999 l 414 872 l 379 872 z "},"Ū":{"ha":576,"x_min":54,"x_max":556,"o":"m 239 -17 q 162 -10 197 -17 q 101 15 126 -4 q 65 72 76 35 q 64 168 54 108 l 154 821 l 222 821 l 129 157 q 137 76 122 104 q 181 38 151 47 q 244 28 210 28 q 311 38 279 28 q 366 76 343 47 q 396 157 389 104 l 489 821 l 556 821 l 464 168 q 435 72 456 108 q 384 15 414 35 q 317 -10 354 -4 q 239 -17 279 -17 m 242 906 l 247 944 l 497 944 l 493 906 l 242 906 z "},"Ų":{"ha":576,"x_min":54,"x_max":556,"o":"m 239 -17 q 162 -10 197 -17 q 101 15 126 -4 q 65 72 76 35 q 64 168 54 108 l 154 821 l 222 821 l 129 157 q 137 76 122 104 q 181 38 151 47 q 244 28 210 28 q 311 38 279 28 q 366 76 343 47 q 396 157 389 104 l 489 821 l 556 821 l 464 168 q 435 72 456 108 q 384 15 414 35 q 317 -10 354 -4 q 239 -17 279 -17 m 240 -185 q 181 -162 204 -185 q 161 -106 157 -140 q 199 -39 168 -67 q 261 0 229 -11 l 300 0 q 238 -44 261 -18 q 211 -97 215 -71 q 223 -139 207 -125 q 257 -153 239 -153 q 280 -149 269 -153 q 296 -143 290 -146 l 303 -169 q 278 -179 293 -174 q 240 -185 263 -185 z "},"Ů":{"ha":576,"x_min":54,"x_max":556,"o":"m 239 -17 q 162 -10 197 -17 q 101 15 126 -4 q 65 72 76 35 q 64 168 54 108 l 154 821 l 222 821 l 129 157 q 137 76 122 104 q 181 38 151 47 q 244 28 210 28 q 311 38 279 28 q 366 76 343 47 q 396 157 389 104 l 489 821 l 556 821 l 464 168 q 435 72 456 108 q 384 15 414 35 q 317 -10 354 -4 q 239 -17 279 -17 m 358 850 q 287 880 313 850 q 267 950 261 910 q 307 1023 272 993 q 388 1053 342 1053 q 462 1023 438 1053 q 481 950 486 993 q 439 880 475 910 q 358 850 403 850 m 364 885 q 417 903 396 885 q 443 950 439 922 q 430 999 446 981 q 382 1017 414 1017 q 330 999 350 1017 q 306 950 310 981 q 317 903 301 922 q 364 885 333 885 z "},"Ў":{"ha":463,"x_min":-7,"x_max":496,"o":"m 60 -10 q 23 -7 40 -10 q -7 -1 6 -4 l -3 39 q 17 36 6 38 q 42 35 28 35 q 81 41 61 35 q 118 68 101 47 q 145 100 132 82 q 157 144 158 118 l 94 821 l 165 821 l 211 210 l 208 210 l 432 821 l 496 821 l 251 169 q 174 31 215 72 q 60 -10 132 -10 m 300 871 q 239 883 263 871 q 203 914 215 896 q 188 953 192 932 q 186 990 185 974 l 228 990 q 250 929 229 950 q 306 908 271 908 q 370 928 343 908 q 408 990 397 949 l 450 990 q 427 938 444 965 q 378 890 410 910 q 300 871 347 871 z "},"Ũ":{"ha":576,"x_min":54,"x_max":556,"o":"m 239 -17 q 162 -10 197 -17 q 101 15 126 -4 q 65 72 76 35 q 64 168 54 108 l 154 821 l 222 821 l 129 157 q 137 76 122 104 q 181 38 151 47 q 244 28 210 28 q 311 38 279 28 q 366 76 343 47 q 396 157 389 104 l 489 821 l 556 821 l 464 168 q 435 72 456 108 q 384 15 414 35 q 317 -10 354 -4 q 239 -17 279 -17 m 421 889 q 392 894 403 889 q 364 913 381 900 q 340 930 353 921 q 310 939 326 939 q 280 927 293 939 q 260 890 267 915 l 229 890 q 260 952 238 928 q 317 976 283 976 q 349 968 335 976 q 379 949 364 960 q 403 934 392 940 q 428 928 414 928 q 458 938 446 928 q 478 974 471 949 l 511 974 q 477 913 501 936 q 421 889 453 889 z "},"V":{"ha":458,"x_min":97,"x_max":496,"o":"m 139 0 l 97 821 l 164 821 l 196 97 l 192 97 l 429 821 l 496 821 l 219 0 l 139 0 z "},"В":{"ha":574,"x_min":46,"x_max":550,"o":"m 46 0 l 161 821 l 406 821 q 510 789 471 821 q 539 685 550 757 l 525 583 q 503 515 519 544 q 467 467 488 485 q 415 441 443 447 q 368 433 386 435 l 368 436 q 424 431 399 436 q 465 407 450 425 q 490 357 482 386 q 492 289 497 328 l 475 168 q 438 61 465 97 q 369 13 410 25 q 276 0 329 0 l 46 0 m 119 40 l 271 40 q 335 50 307 40 q 381 88 363 60 q 407 174 400 117 l 425 289 q 399 383 435 360 q 308 406 364 406 l 171 406 l 119 40 m 178 451 l 314 451 q 413 484 376 451 q 457 576 450 517 l 472 674 q 453 753 481 728 q 385 779 426 779 l 222 779 l 178 451 z "},"W":{"ha":744,"x_min":97,"x_max":781,"o":"m 111 0 l 97 821 l 164 821 l 174 99 l 413 821 l 465 821 l 499 100 l 714 821 l 781 821 l 532 0 l 456 0 l 417 663 l 192 0 l 111 0 z "},"Ẃ":{"ha":744,"x_min":97,"x_max":781,"o":"m 111 0 l 97 821 l 164 821 l 174 99 l 413 821 l 465 821 l 499 100 l 714 821 l 781 821 l 532 0 l 456 0 l 417 663 l 192 0 l 111 0 m 369 879 l 496 990 l 569 990 l 415 879 l 369 879 z "},"Ŵ":{"ha":744,"x_min":97,"x_max":781,"o":"m 111 0 l 97 821 l 164 821 l 174 99 l 413 821 l 465 821 l 499 100 l 714 821 l 781 821 l 532 0 l 456 0 l 417 663 l 192 0 l 111 0 m 300 874 l 440 994 l 489 994 l 594 874 l 546 874 l 458 958 l 350 874 l 300 874 z "},"Ẅ":{"ha":744,"x_min":97,"x_max":781,"o":"m 111 0 l 97 821 l 164 821 l 174 99 l 413 821 l 465 821 l 499 100 l 714 821 l 781 821 l 532 0 l 456 0 l 417 663 l 192 0 l 111 0 m 392 892 q 363 903 375 892 q 351 931 351 914 q 363 958 351 947 q 392 968 375 968 q 419 958 408 968 q 431 931 431 947 q 419 903 431 914 q 392 892 408 892 m 517 892 q 488 903 500 892 q 476 931 476 914 q 488 958 476 947 q 517 968 500 968 q 545 958 533 968 q 557 931 557 947 q 545 903 557 914 q 517 892 533 892 z "},"Ẁ":{"ha":744,"x_min":97,"x_max":781,"o":"m 111 0 l 97 821 l 164 821 l 174 99 l 413 821 l 465 821 l 499 100 l 714 821 l 781 821 l 532 0 l 456 0 l 417 663 l 192 0 l 111 0 m 451 879 l 317 990 l 390 990 l 501 879 l 451 879 z "},"X":{"ha":428,"x_min":-24,"x_max":468,"o":"m -24 0 l 171 417 l 106 821 l 172 821 l 229 456 l 401 821 l 468 821 l 278 415 l 349 0 l 282 0 l 217 367 l 47 0 l -24 0 z "},"Y":{"ha":435,"x_min":92,"x_max":476,"o":"m 128 0 l 179 363 l 92 821 l 163 821 l 225 458 l 226 438 l 235 458 l 410 821 l 476 821 l 247 360 l 196 0 l 128 0 z "},"Ý":{"ha":435,"x_min":92,"x_max":476,"o":"m 128 0 l 179 363 l 92 821 l 163 821 l 225 458 l 226 438 l 235 458 l 410 821 l 476 821 l 247 360 l 196 0 l 128 0 m 215 879 l 342 990 l 415 990 l 261 879 l 215 879 z "},"Ѣ":{"ha":606,"x_min":81,"x_max":560,"o":"m 115 0 l 229 818 l 296 818 l 267 604 l 408 604 q 503 585 469 604 q 549 526 538 565 q 551 428 560 488 l 519 201 q 497 108 511 147 q 458 46 482 69 q 401 11 435 22 q 319 0 367 0 l 115 0 m 186 40 l 313 40 q 392 60 364 40 q 433 117 419 81 q 454 204 447 154 l 482 411 q 485 484 488 450 q 461 539 483 518 q 383 560 439 560 l 260 560 q 224 300 243 431 q 186 40 204 169 m 81 711 l 92 754 l 490 754 l 482 711 l 81 711 z "},"Ŷ":{"ha":435,"x_min":92,"x_max":476,"o":"m 128 0 l 179 363 l 92 821 l 163 821 l 225 458 l 226 438 l 235 458 l 410 821 l 476 821 l 247 360 l 196 0 l 128 0 m 144 874 l 285 994 l 333 994 l 439 874 l 390 874 l 303 958 l 194 874 l 144 874 z "},"Ÿ":{"ha":435,"x_min":92,"x_max":476,"o":"m 128 0 l 179 363 l 92 821 l 163 821 l 225 458 l 226 438 l 235 458 l 410 821 l 476 821 l 247 360 l 196 0 l 128 0 m 238 892 q 209 903 221 892 q 197 931 197 914 q 209 958 197 947 q 238 968 221 968 q 265 958 254 968 q 276 931 276 947 q 265 903 276 914 q 238 892 254 892 m 363 892 q 334 903 346 892 q 322 931 322 914 q 334 958 322 947 q 363 968 346 968 q 391 958 379 968 q 403 931 403 947 q 391 903 403 914 q 363 892 379 892 z "},"Ỵ":{"ha":435,"x_min":92,"x_max":476,"o":"m 128 0 l 179 363 l 92 821 l 163 821 l 225 458 l 226 438 l 235 458 l 410 821 l 476 821 l 247 360 l 196 0 l 128 0 m 154 -142 q 126 -130 138 -142 q 114 -101 114 -118 q 126 -75 114 -86 q 154 -64 138 -64 q 183 -75 171 -64 q 194 -101 194 -86 q 183 -130 194 -118 q 154 -142 171 -142 z "},"Ы":{"ha":735,"x_min":46,"x_max":707,"o":"m 46 0 l 163 818 l 229 818 l 199 604 l 340 604 q 438 585 404 604 q 483 526 472 565 q 483 428 493 488 l 451 201 q 430 108 444 147 q 392 46 415 69 q 333 11 368 22 q 251 0 299 0 l 46 0 m 121 40 l 247 40 q 325 60 297 40 q 366 117 353 81 q 386 204 379 154 q 401 307 393 254 q 415 411 408 360 q 418 484 421 450 q 393 539 415 518 q 315 560 371 560 l 192 560 q 157 300 175 431 q 121 40 139 169 m 522 0 l 639 821 l 707 821 l 590 0 l 522 0 z "},"Ỳ":{"ha":435,"x_min":92,"x_max":476,"o":"m 128 0 l 179 363 l 92 821 l 163 821 l 225 458 l 226 438 l 235 458 l 410 821 l 476 821 l 247 360 l 196 0 l 128 0 m 297 879 l 163 990 l 236 990 l 347 879 l 297 879 z "},"Ỷ":{"ha":435,"x_min":92,"x_max":476,"o":"m 128 0 l 179 363 l 92 821 l 163 821 l 225 458 l 226 438 l 235 458 l 410 821 l 476 821 l 247 360 l 196 0 l 128 0 m 271 860 l 274 888 q 292 915 276 908 q 324 929 308 921 q 340 958 339 938 l 340 965 q 335 996 342 982 q 306 1010 329 1010 q 264 976 275 1010 l 228 983 q 258 1026 238 1011 q 314 1040 278 1040 q 369 1019 354 1040 q 383 963 385 999 l 382 960 q 372 922 382 933 q 347 905 361 910 q 322 895 333 900 q 311 879 311 890 l 310 860 l 271 860 z "},"Ї":{"ha":258,"x_min":46,"x_max":314,"o":"m 46 0 l 163 821 l 231 821 l 114 0 l 46 0 m 150 892 q 122 903 133 892 q 110 931 110 914 q 122 958 110 947 q 150 968 133 968 q 178 958 167 968 q 189 931 189 947 q 178 903 189 914 q 150 892 167 892 m 275 892 q 247 903 258 892 q 235 931 235 914 q 247 958 235 947 q 275 968 258 968 q 303 958 292 968 q 315 931 315 947 q 303 903 315 914 q 275 892 292 892 z "},"Ỹ":{"ha":435,"x_min":92,"x_max":476,"o":"m 128 0 l 179 363 l 92 821 l 163 821 l 225 458 l 226 438 l 235 458 l 410 821 l 476 821 l 247 360 l 196 0 l 128 0 m 350 889 q 321 894 332 889 q 293 913 310 900 q 269 930 282 921 q 239 939 256 939 q 209 927 222 939 q 189 890 196 915 l 158 890 q 190 952 167 928 q 246 976 213 976 q 278 968 264 976 q 308 949 293 960 q 332 934 321 940 q 357 928 343 928 q 388 938 375 928 q 407 974 400 949 l 440 974 q 406 913 431 936 q 350 889 382 889 z "},"Ѫ":{"ha":892,"x_min":-1,"x_max":935,"o":"m -1 0 l 131 318 q 165 384 146 353 q 214 435 185 415 q 286 454 243 454 l 394 454 l 83 771 l 90 821 l 935 821 l 926 771 l 526 456 l 633 454 q 704 435 681 454 q 738 384 728 415 q 753 319 749 353 l 794 0 l 722 0 l 686 310 q 676 363 683 338 q 652 407 668 389 q 607 428 636 425 l 492 428 l 431 0 l 363 0 l 422 428 l 307 428 q 238 388 263 422 q 196 311 213 353 l 71 0 l -1 0 m 463 472 l 844 771 l 164 771 l 463 472 z "},"Z":{"ha":381,"x_min":-24,"x_max":418,"o":"m -24 0 l -15 50 l 333 771 l 101 771 l 108 821 l 418 821 l 411 776 l 56 50 l 310 50 l 301 0 l -24 0 z "},"Ź":{"ha":381,"x_min":-24,"x_max":418,"o":"m -24 0 l -15 50 l 333 771 l 101 771 l 108 821 l 418 821 l 411 776 l 56 50 l 310 50 l 301 0 l -24 0 m 188 879 l 314 990 l 388 990 l 233 879 l 188 879 z "},"Ž":{"ha":381,"x_min":-24,"x_max":428,"o":"m -24 0 l -15 50 l 333 771 l 101 771 l 108 821 l 418 821 l 411 776 l 56 50 l 310 50 l 301 0 l -24 0 m 239 874 l 135 994 l 183 994 l 269 910 l 381 993 l 428 993 l 288 874 l 239 874 z "},"Ż":{"ha":381,"x_min":-24,"x_max":418,"o":"m -24 0 l -15 50 l 333 771 l 101 771 l 108 821 l 418 821 l 411 776 l 56 50 l 310 50 l 301 0 l -24 0 m 278 890 q 247 903 260 890 q 233 933 233 915 q 247 964 233 951 q 278 976 260 976 q 309 964 296 976 q 322 933 322 951 q 309 903 322 915 q 278 890 296 890 z "},"З":{"ha":561,"x_min":39,"x_max":536,"o":"m 228 -11 q 109 16 151 -11 q 53 90 67 43 q 47 194 39 136 l 58 274 l 128 274 l 117 197 q 137 84 107 125 q 235 40 167 43 q 341 80 297 40 q 394 189 385 119 l 404 264 q 377 367 414 331 q 271 404 340 403 l 186 404 l 192 451 l 279 451 q 344 465 313 451 q 400 503 375 478 q 431 545 419 522 q 446 594 442 568 l 451 640 q 433 735 460 696 q 339 775 407 775 q 231 735 268 775 q 185 632 193 694 l 179 581 l 108 581 l 114 636 q 183 776 128 726 q 344 826 239 826 q 494 777 453 826 q 524 640 536 728 l 519 604 q 465 487 510 531 q 364 426 421 443 q 457 366 429 414 q 474 247 485 318 l 467 194 q 432 88 458 135 q 356 15 406 42 q 228 -11 307 -11 z "},"Ж":{"ha":757,"x_min":-36,"x_max":801,"o":"m -36 0 l 251 425 l 89 821 l 167 821 l 314 446 l 357 446 l 410 819 l 478 819 l 425 446 l 467 446 l 722 821 l 801 821 l 524 425 l 692 0 l 614 0 l 463 403 l 419 403 l 363 0 l 294 0 l 350 403 l 308 403 l 42 0 l -36 0 z "},"a":{"ha":496,"x_min":25,"x_max":472,"o":"m 158 -11 q 117 -7 142 -11 q 69 13 92 -3 q 36 64 47 29 q 35 161 25 99 l 94 535 q 133 647 107 613 q 194 691 160 682 q 265 700 229 700 q 349 685 310 700 q 397 633 388 669 l 404 688 l 472 688 l 375 0 l 315 0 l 332 118 q 300 60 321 90 q 245 10 279 31 q 158 -11 211 -11 m 182 32 q 242 51 215 32 q 286 99 268 69 q 316 160 304 128 q 335 218 328 192 q 343 257 342 244 l 389 582 q 377 608 386 590 q 347 642 368 626 q 278 658 325 658 q 206 639 231 658 q 172 587 181 619 q 156 513 163 554 l 100 151 q 101 85 94 110 q 124 50 108 61 q 155 35 139 39 q 182 32 171 32 z "},"а":{"ha":496,"x_min":25,"x_max":472,"o":"m 158 -11 q 117 -7 142 -11 q 69 13 92 -3 q 36 64 47 29 q 35 161 25 99 l 94 535 q 133 647 107 613 q 194 691 160 682 q 265 700 229 700 q 349 685 310 700 q 397 633 388 669 l 404 688 l 472 688 l 375 0 l 315 0 l 332 118 q 300 60 321 90 q 245 10 279 31 q 158 -11 211 -11 m 182 32 q 242 51 215 32 q 286 99 268 69 q 316 160 304 128 q 335 218 328 192 q 343 257 342 244 l 389 582 q 377 608 386 590 q 347 642 368 626 q 278 658 325 658 q 206 639 231 658 q 172 587 181 619 q 156 513 163 554 l 100 151 q 101 85 94 110 q 124 50 108 61 q 155 35 139 39 q 182 32 171 32 z "},"á":{"ha":496,"x_min":25,"x_max":472,"o":"m 158 -11 q 117 -7 142 -11 q 69 13 92 -3 q 36 64 47 29 q 35 161 25 99 l 94 535 q 133 647 107 613 q 194 691 160 682 q 265 700 229 700 q 349 685 310 700 q 397 633 388 669 l 404 688 l 472 688 l 375 0 l 315 0 l 332 118 q 300 60 321 90 q 245 10 279 31 q 158 -11 211 -11 m 182 32 q 242 51 215 32 q 286 99 268 69 q 316 160 304 128 q 335 218 328 192 q 343 257 342 244 l 389 582 q 377 608 386 590 q 347 642 368 626 q 278 658 325 658 q 206 639 231 658 q 172 587 181 619 q 156 513 163 554 l 100 151 q 101 85 94 110 q 124 50 108 61 q 155 35 139 39 q 182 32 171 32 m 268 757 l 356 883 l 429 883 l 310 757 l 268 757 z "},"ă":{"ha":496,"x_min":25,"x_max":472,"o":"m 158 -11 q 117 -7 142 -11 q 69 13 92 -3 q 36 64 47 29 q 35 161 25 99 l 94 535 q 133 647 107 613 q 194 691 160 682 q 265 700 229 700 q 349 685 310 700 q 397 633 388 669 l 404 688 l 472 688 l 375 0 l 315 0 l 332 118 q 300 60 321 90 q 245 10 279 31 q 158 -11 211 -11 m 182 32 q 242 51 215 32 q 286 99 268 69 q 316 160 304 128 q 335 218 328 192 q 343 257 342 244 l 389 582 q 377 608 386 590 q 347 642 368 626 q 278 658 325 658 q 206 639 231 658 q 172 587 181 619 q 156 513 163 554 l 100 151 q 101 85 94 110 q 124 50 108 61 q 155 35 139 39 q 182 32 171 32 m 315 756 q 254 768 278 756 q 219 799 231 781 q 203 838 207 817 q 201 875 200 858 l 243 875 q 265 814 244 835 q 321 793 286 793 q 385 813 358 793 q 424 875 413 833 l 465 875 q 442 822 460 850 q 394 775 425 794 q 315 756 363 756 z "},"ắ":{"ha":496,"x_min":25,"x_max":472,"o":"m 158 -11 q 117 -7 142 -11 q 69 13 92 -3 q 36 64 47 29 q 35 161 25 99 l 94 535 q 133 647 107 613 q 194 691 160 682 q 265 700 229 700 q 349 685 310 700 q 397 633 388 669 l 404 688 l 472 688 l 375 0 l 315 0 l 332 118 q 300 60 321 90 q 245 10 279 31 q 158 -11 211 -11 m 182 32 q 242 51 215 32 q 286 99 268 69 q 316 160 304 128 q 335 218 328 192 q 343 257 342 244 l 389 582 q 377 608 386 590 q 347 642 368 626 q 278 658 325 658 q 206 639 231 658 q 172 587 181 619 q 156 513 163 554 l 100 151 q 101 85 94 110 q 124 50 108 61 q 155 35 139 39 q 182 32 171 32 m 315 756 q 254 768 278 756 q 219 799 231 781 q 203 838 207 817 q 201 875 200 858 l 243 875 q 265 814 244 835 q 321 793 286 793 q 385 813 358 793 q 424 875 413 833 l 465 875 q 442 822 460 850 q 394 775 425 794 q 315 756 363 756 m 293 894 l 381 1021 l 454 1021 l 335 894 l 293 894 z "},"ặ":{"ha":496,"x_min":25,"x_max":472,"o":"m 158 -11 q 117 -7 142 -11 q 69 13 92 -3 q 36 64 47 29 q 35 161 25 99 l 94 535 q 133 647 107 613 q 194 691 160 682 q 265 700 229 700 q 349 685 310 700 q 397 633 388 669 l 404 688 l 472 688 l 375 0 l 315 0 l 332 118 q 300 60 321 90 q 245 10 279 31 q 158 -11 211 -11 m 182 32 q 242 51 215 32 q 286 99 268 69 q 316 160 304 128 q 335 218 328 192 q 343 257 342 244 l 389 582 q 377 608 386 590 q 347 642 368 626 q 278 658 325 658 q 206 639 231 658 q 172 587 181 619 q 156 513 163 554 l 100 151 q 101 85 94 110 q 124 50 108 61 q 155 35 139 39 q 182 32 171 32 m 185 -142 q 156 -130 168 -142 q 144 -101 144 -118 q 156 -75 144 -86 q 185 -64 168 -64 q 213 -75 201 -64 q 225 -101 225 -86 q 213 -130 225 -118 q 185 -142 201 -142 m 315 756 q 254 768 278 756 q 219 799 231 781 q 203 838 207 817 q 201 875 200 858 l 243 875 q 265 814 244 835 q 321 793 286 793 q 385 813 358 793 q 424 875 413 833 l 465 875 q 442 822 460 850 q 394 775 425 794 q 315 756 363 756 z "},"ằ":{"ha":496,"x_min":25,"x_max":472,"o":"m 158 -11 q 117 -7 142 -11 q 69 13 92 -3 q 36 64 47 29 q 35 161 25 99 l 94 535 q 133 647 107 613 q 194 691 160 682 q 265 700 229 700 q 349 685 310 700 q 397 633 388 669 l 404 688 l 472 688 l 375 0 l 315 0 l 332 118 q 300 60 321 90 q 245 10 279 31 q 158 -11 211 -11 m 182 32 q 242 51 215 32 q 286 99 268 69 q 316 160 304 128 q 335 218 328 192 q 343 257 342 244 l 389 582 q 377 608 386 590 q 347 642 368 626 q 278 658 325 658 q 206 639 231 658 q 172 587 181 619 q 156 513 163 554 l 100 151 q 101 85 94 110 q 124 50 108 61 q 155 35 139 39 q 182 32 171 32 m 315 756 q 254 768 278 756 q 219 799 231 781 q 203 838 207 817 q 201 875 200 858 l 243 875 q 265 814 244 835 q 321 793 286 793 q 385 813 358 793 q 424 875 413 833 l 465 875 q 442 822 460 850 q 394 775 425 794 q 315 756 363 756 m 340 894 l 249 1021 l 321 1021 l 382 894 l 340 894 z "},"ẳ":{"ha":496,"x_min":25,"x_max":472,"o":"m 158 -11 q 117 -7 142 -11 q 69 13 92 -3 q 36 64 47 29 q 35 161 25 99 l 94 535 q 133 647 107 613 q 194 691 160 682 q 265 700 229 700 q 349 685 310 700 q 397 633 388 669 l 404 688 l 472 688 l 375 0 l 315 0 l 332 118 q 300 60 321 90 q 245 10 279 31 q 158 -11 211 -11 m 182 32 q 242 51 215 32 q 286 99 268 69 q 316 160 304 128 q 335 218 328 192 q 343 257 342 244 l 389 582 q 377 608 386 590 q 347 642 368 626 q 278 658 325 658 q 206 639 231 658 q 172 587 181 619 q 156 513 163 554 l 100 151 q 101 85 94 110 q 124 50 108 61 q 155 35 139 39 q 182 32 171 32 m 315 756 q 254 768 278 756 q 219 799 231 781 q 203 838 207 817 q 201 875 200 858 l 243 875 q 265 814 244 835 q 321 793 286 793 q 385 813 358 793 q 424 875 413 833 l 465 875 q 442 822 460 850 q 394 775 425 794 q 315 756 363 756 m 317 886 l 319 914 q 338 941 322 935 q 369 956 354 947 q 386 985 385 964 l 386 992 q 381 1022 388 1008 q 351 1036 375 1036 q 310 1003 321 1036 l 274 1010 q 303 1052 283 1038 q 360 1067 324 1067 q 415 1046 400 1067 q 429 989 431 1025 l 428 986 q 417 948 428 960 q 393 931 407 936 q 368 922 379 926 q 357 906 357 917 l 356 886 l 317 886 z "},"ẵ":{"ha":496,"x_min":25,"x_max":490,"o":"m 158 -11 q 117 -7 142 -11 q 69 13 92 -3 q 36 64 47 29 q 35 161 25 99 l 94 535 q 133 647 107 613 q 194 691 160 682 q 265 700 229 700 q 349 685 310 700 q 397 633 388 669 l 404 688 l 472 688 l 375 0 l 315 0 l 332 118 q 300 60 321 90 q 245 10 279 31 q 158 -11 211 -11 m 182 32 q 242 51 215 32 q 286 99 268 69 q 316 160 304 128 q 335 218 328 192 q 343 257 342 244 l 389 582 q 377 608 386 590 q 347 642 368 626 q 278 658 325 658 q 206 639 231 658 q 172 587 181 619 q 156 513 163 554 l 100 151 q 101 85 94 110 q 124 50 108 61 q 155 35 139 39 q 182 32 171 32 m 315 756 q 254 768 278 756 q 219 799 231 781 q 203 838 207 817 q 201 875 200 858 l 243 875 q 265 814 244 835 q 321 793 286 793 q 385 813 358 793 q 424 875 413 833 l 465 875 q 442 822 460 850 q 394 775 425 794 q 315 756 363 756 m 400 908 q 371 914 382 908 q 343 932 360 919 q 319 949 332 940 q 289 958 306 958 q 259 947 272 958 q 239 910 246 935 l 208 910 q 240 972 217 947 q 296 996 263 996 q 328 988 314 996 q 358 968 343 979 q 382 953 371 960 q 407 947 393 947 q 438 958 425 947 q 457 993 450 968 l 490 993 q 456 932 481 956 q 400 908 432 908 z "},"ǎ":{"ha":496,"x_min":25,"x_max":486,"o":"m 158 -11 q 117 -7 142 -11 q 69 13 92 -3 q 36 64 47 29 q 35 161 25 99 l 94 535 q 133 647 107 613 q 194 691 160 682 q 265 700 229 700 q 349 685 310 700 q 397 633 388 669 l 404 688 l 472 688 l 375 0 l 315 0 l 332 118 q 300 60 321 90 q 245 10 279 31 q 158 -11 211 -11 m 182 32 q 242 51 215 32 q 286 99 268 69 q 316 160 304 128 q 335 218 328 192 q 343 257 342 244 l 389 582 q 377 608 386 590 q 347 642 368 626 q 278 658 325 658 q 206 639 231 658 q 172 587 181 619 q 156 513 163 554 l 100 151 q 101 85 94 110 q 124 50 108 61 q 155 35 139 39 q 182 32 171 32 m 297 760 l 193 882 l 240 882 l 326 796 l 439 882 l 486 882 l 346 760 l 297 760 z "},"â":{"ha":496,"x_min":25,"x_max":472,"o":"m 158 -11 q 117 -7 142 -11 q 69 13 92 -3 q 36 64 47 29 q 35 161 25 99 l 94 535 q 133 647 107 613 q 194 691 160 682 q 265 700 229 700 q 349 685 310 700 q 397 633 388 669 l 404 688 l 472 688 l 375 0 l 315 0 l 332 118 q 300 60 321 90 q 245 10 279 31 q 158 -11 211 -11 m 182 32 q 242 51 215 32 q 286 99 268 69 q 316 160 304 128 q 335 218 328 192 q 343 257 342 244 l 389 582 q 377 608 386 590 q 347 642 368 626 q 278 658 325 658 q 206 639 231 658 q 172 587 181 619 q 156 513 163 554 l 100 151 q 101 85 94 110 q 124 50 108 61 q 155 35 139 39 q 182 32 171 32 m 169 760 l 308 882 l 358 882 l 463 760 l 415 760 l 328 846 l 218 760 l 169 760 z "},"ấ":{"ha":496,"x_min":25,"x_max":624,"o":"m 158 -11 q 117 -7 142 -11 q 69 13 92 -3 q 36 64 47 29 q 35 161 25 99 l 94 535 q 133 647 107 613 q 194 691 160 682 q 265 700 229 700 q 349 685 310 700 q 397 633 388 669 l 404 688 l 472 688 l 375 0 l 315 0 l 332 118 q 300 60 321 90 q 245 10 279 31 q 158 -11 211 -11 m 182 32 q 242 51 215 32 q 286 99 268 69 q 316 160 304 128 q 335 218 328 192 q 343 257 342 244 l 389 582 q 377 608 386 590 q 347 642 368 626 q 278 658 325 658 q 206 639 231 658 q 172 587 181 619 q 156 513 163 554 l 100 151 q 101 85 94 110 q 124 50 108 61 q 155 35 139 39 q 182 32 171 32 m 169 760 l 308 882 l 358 882 l 463 760 l 415 760 l 328 846 l 218 760 l 169 760 m 463 832 l 550 958 l 624 958 l 504 832 l 463 832 z "},"ậ":{"ha":496,"x_min":25,"x_max":472,"o":"m 158 -11 q 117 -7 142 -11 q 69 13 92 -3 q 36 64 47 29 q 35 161 25 99 l 94 535 q 133 647 107 613 q 194 691 160 682 q 265 700 229 700 q 349 685 310 700 q 397 633 388 669 l 404 688 l 472 688 l 375 0 l 315 0 l 332 118 q 300 60 321 90 q 245 10 279 31 q 158 -11 211 -11 m 182 32 q 242 51 215 32 q 286 99 268 69 q 316 160 304 128 q 335 218 328 192 q 343 257 342 244 l 389 582 q 377 608 386 590 q 347 642 368 626 q 278 658 325 658 q 206 639 231 658 q 172 587 181 619 q 156 513 163 554 l 100 151 q 101 85 94 110 q 124 50 108 61 q 155 35 139 39 q 182 32 171 32 m 185 -142 q 156 -130 168 -142 q 144 -101 144 -118 q 156 -75 144 -86 q 185 -64 168 -64 q 213 -75 201 -64 q 225 -101 225 -86 q 213 -130 225 -118 q 185 -142 201 -142 m 169 760 l 308 882 l 358 882 l 463 760 l 415 760 l 328 846 l 218 760 l 169 760 z "},"ầ":{"ha":496,"x_min":25,"x_max":551,"o":"m 158 -11 q 117 -7 142 -11 q 69 13 92 -3 q 36 64 47 29 q 35 161 25 99 l 94 535 q 133 647 107 613 q 194 691 160 682 q 265 700 229 700 q 349 685 310 700 q 397 633 388 669 l 404 688 l 472 688 l 375 0 l 315 0 l 332 118 q 300 60 321 90 q 245 10 279 31 q 158 -11 211 -11 m 182 32 q 242 51 215 32 q 286 99 268 69 q 316 160 304 128 q 335 218 328 192 q 343 257 342 244 l 389 582 q 377 608 386 590 q 347 642 368 626 q 278 658 325 658 q 206 639 231 658 q 172 587 181 619 q 156 513 163 554 l 100 151 q 101 85 94 110 q 124 50 108 61 q 155 35 139 39 q 182 32 171 32 m 169 760 l 308 882 l 358 882 l 463 760 l 415 760 l 328 846 l 218 760 l 169 760 m 510 832 l 418 958 l 490 958 l 551 832 l 510 832 z "},"ẩ":{"ha":496,"x_min":25,"x_max":600,"o":"m 158 -11 q 117 -7 142 -11 q 69 13 92 -3 q 36 64 47 29 q 35 161 25 99 l 94 535 q 133 647 107 613 q 194 691 160 682 q 265 700 229 700 q 349 685 310 700 q 397 633 388 669 l 404 688 l 472 688 l 375 0 l 315 0 l 332 118 q 300 60 321 90 q 245 10 279 31 q 158 -11 211 -11 m 182 32 q 242 51 215 32 q 286 99 268 69 q 316 160 304 128 q 335 218 328 192 q 343 257 342 244 l 389 582 q 377 608 386 590 q 347 642 368 626 q 278 658 325 658 q 206 639 231 658 q 172 587 181 619 q 156 513 163 554 l 100 151 q 101 85 94 110 q 124 50 108 61 q 155 35 139 39 q 182 32 171 32 m 169 760 l 308 882 l 358 882 l 463 760 l 415 760 l 328 846 l 218 760 l 169 760 m 486 824 l 489 851 q 508 878 492 872 q 539 893 524 885 q 556 922 554 901 l 556 929 q 551 960 557 946 q 521 974 544 974 q 479 940 490 974 l 443 947 q 473 990 453 975 q 529 1004 493 1004 q 585 983 569 1004 q 599 926 600 963 l 597 924 q 587 885 597 897 q 563 869 576 874 q 538 859 549 864 q 526 843 526 854 l 525 824 l 486 824 z "},"ẫ":{"ha":496,"x_min":25,"x_max":479,"o":"m 158 -11 q 117 -7 142 -11 q 69 13 92 -3 q 36 64 47 29 q 35 161 25 99 l 94 535 q 133 647 107 613 q 194 691 160 682 q 265 700 229 700 q 349 685 310 700 q 397 633 388 669 l 404 688 l 472 688 l 375 0 l 315 0 l 332 118 q 300 60 321 90 q 245 10 279 31 q 158 -11 211 -11 m 182 32 q 242 51 215 32 q 286 99 268 69 q 316 160 304 128 q 335 218 328 192 q 343 257 342 244 l 389 582 q 377 608 386 590 q 347 642 368 626 q 278 658 325 658 q 206 639 231 658 q 172 587 181 619 q 156 513 163 554 l 100 151 q 101 85 94 110 q 124 50 108 61 q 155 35 139 39 q 182 32 171 32 m 169 760 l 308 882 l 358 882 l 463 760 l 415 760 l 328 846 l 218 760 l 169 760 m 389 914 q 360 919 371 914 q 332 938 349 925 q 308 955 321 946 q 278 964 294 964 q 248 952 261 964 q 228 915 235 940 l 197 915 q 228 977 206 953 q 285 1001 251 1001 q 317 993 303 1001 q 347 974 332 985 q 371 959 360 965 q 396 953 382 953 q 426 963 414 953 q 446 999 439 974 l 479 999 q 445 938 469 961 q 389 914 421 914 z "},"´":{"ha":143,"x_min":58,"x_max":219,"o":"m 58 757 l 146 883 l 219 883 l 100 757 l 58 757 z "},"́":{"ha":0,"x_min":58,"x_max":219,"o":"m 58 757 l 146 883 l 219 883 l 100 757 l 58 757 z "},"ä":{"ha":496,"x_min":25,"x_max":472,"o":"m 158 -11 q 117 -7 142 -11 q 69 13 92 -3 q 36 64 47 29 q 35 161 25 99 l 94 535 q 133 647 107 613 q 194 691 160 682 q 265 700 229 700 q 349 685 310 700 q 397 633 388 669 l 404 688 l 472 688 l 375 0 l 315 0 l 332 118 q 300 60 321 90 q 245 10 279 31 q 158 -11 211 -11 m 182 32 q 242 51 215 32 q 286 99 268 69 q 316 160 304 128 q 335 218 328 192 q 343 257 342 244 l 389 582 q 377 608 386 590 q 347 642 368 626 q 278 658 325 658 q 206 639 231 658 q 172 587 181 619 q 156 513 163 554 l 100 151 q 101 85 94 110 q 124 50 108 61 q 155 35 139 39 q 182 32 171 32 m 260 776 q 231 788 243 776 q 219 815 219 799 q 231 842 219 832 q 260 853 243 853 q 288 842 276 853 q 299 815 299 832 q 288 788 299 799 q 260 776 276 776 m 385 776 q 356 788 368 776 q 344 815 344 799 q 356 842 344 832 q 385 853 368 853 q 413 842 401 853 q 425 815 425 832 q 413 788 425 799 q 385 776 401 776 z "},"ạ":{"ha":496,"x_min":25,"x_max":472,"o":"m 158 -11 q 117 -7 142 -11 q 69 13 92 -3 q 36 64 47 29 q 35 161 25 99 l 94 535 q 133 647 107 613 q 194 691 160 682 q 265 700 229 700 q 349 685 310 700 q 397 633 388 669 l 404 688 l 472 688 l 375 0 l 315 0 l 332 118 q 300 60 321 90 q 245 10 279 31 q 158 -11 211 -11 m 182 32 q 242 51 215 32 q 286 99 268 69 q 316 160 304 128 q 335 218 328 192 q 343 257 342 244 l 389 582 q 377 608 386 590 q 347 642 368 626 q 278 658 325 658 q 206 639 231 658 q 172 587 181 619 q 156 513 163 554 l 100 151 q 101 85 94 110 q 124 50 108 61 q 155 35 139 39 q 182 32 171 32 m 185 -142 q 156 -130 168 -142 q 144 -101 144 -118 q 156 -75 144 -86 q 185 -64 168 -64 q 213 -75 201 -64 q 225 -101 225 -86 q 213 -130 225 -118 q 185 -142 201 -142 z "},"æ":{"ha":771,"x_min":26,"x_max":764,"o":"m 154 -6 q 111 -1 135 -6 q 67 17 88 3 q 37 63 47 32 q 35 151 26 94 l 42 211 q 99 319 51 278 q 215 392 147 360 q 308 439 271 418 q 365 482 344 460 q 389 531 386 504 l 394 571 q 387 627 400 608 q 349 653 374 646 q 297 660 325 660 q 201 624 228 660 q 165 519 175 588 l 157 461 l 96 461 l 104 525 q 131 616 111 576 q 191 678 150 656 q 303 701 232 701 q 406 681 375 701 q 444 628 438 661 q 444 556 451 596 l 376 65 l 346 118 q 264 22 314 50 q 154 -6 214 -6 m 183 42 q 292 88 254 42 q 343 214 331 133 l 376 444 q 315 399 356 419 q 235 357 275 379 q 148 295 181 326 q 108 211 115 264 l 101 163 q 106 81 93 107 q 140 48 118 54 q 183 42 163 42 m 496 -3 q 415 4 447 -3 q 365 30 383 11 q 342 85 347 49 q 347 179 338 121 l 396 532 q 454 662 408 622 q 594 701 500 701 q 728 665 692 701 q 750 532 764 629 l 726 357 l 432 357 l 404 160 q 413 63 394 88 q 500 38 432 38 q 572 49 546 38 q 611 90 597 61 q 633 168 625 118 l 643 243 l 710 243 l 701 188 q 678 91 693 128 q 638 33 663 54 q 579 5 614 13 q 496 -3 544 -3 m 438 394 l 664 394 l 683 536 q 675 631 693 601 q 588 660 657 660 q 493 631 519 660 q 457 536 467 601 l 438 394 z "},"à":{"ha":496,"x_min":25,"x_max":472,"o":"m 158 -11 q 117 -7 142 -11 q 69 13 92 -3 q 36 64 47 29 q 35 161 25 99 l 94 535 q 133 647 107 613 q 194 691 160 682 q 265 700 229 700 q 349 685 310 700 q 397 633 388 669 l 404 688 l 472 688 l 375 0 l 315 0 l 332 118 q 300 60 321 90 q 245 10 279 31 q 158 -11 211 -11 m 182 32 q 242 51 215 32 q 286 99 268 69 q 316 160 304 128 q 335 218 328 192 q 343 257 342 244 l 389 582 q 377 608 386 590 q 347 642 368 626 q 278 658 325 658 q 206 639 231 658 q 172 587 181 619 q 156 513 163 554 l 100 151 q 101 85 94 110 q 124 50 108 61 q 155 35 139 39 q 182 32 171 32 m 315 757 l 224 883 l 296 883 l 357 757 l 315 757 z "},"ả":{"ha":496,"x_min":25,"x_max":472,"o":"m 158 -11 q 117 -7 142 -11 q 69 13 92 -3 q 36 64 47 29 q 35 161 25 99 l 94 535 q 133 647 107 613 q 194 691 160 682 q 265 700 229 700 q 349 685 310 700 q 397 633 388 669 l 404 688 l 472 688 l 375 0 l 315 0 l 332 118 q 300 60 321 90 q 245 10 279 31 q 158 -11 211 -11 m 182 32 q 242 51 215 32 q 286 99 268 69 q 316 160 304 128 q 335 218 328 192 q 343 257 342 244 l 389 582 q 377 608 386 590 q 347 642 368 626 q 278 658 325 658 q 206 639 231 658 q 172 587 181 619 q 156 513 163 554 l 100 151 q 101 85 94 110 q 124 50 108 61 q 155 35 139 39 q 182 32 171 32 m 290 749 l 293 776 q 312 803 296 797 q 343 818 328 810 q 360 847 358 826 l 360 854 q 355 885 361 871 q 325 899 349 899 q 283 865 294 899 l 247 872 q 277 915 257 900 q 333 929 297 929 q 389 908 374 929 q 403 851 404 888 l 401 849 q 391 810 401 822 q 367 794 381 799 q 342 784 353 789 q 331 768 331 779 l 329 749 l 290 749 z "},"ā":{"ha":496,"x_min":25,"x_max":472,"o":"m 158 -11 q 117 -7 142 -11 q 69 13 92 -3 q 36 64 47 29 q 35 161 25 99 l 94 535 q 133 647 107 613 q 194 691 160 682 q 265 700 229 700 q 349 685 310 700 q 397 633 388 669 l 404 688 l 472 688 l 375 0 l 315 0 l 332 118 q 300 60 321 90 q 245 10 279 31 q 158 -11 211 -11 m 182 32 q 242 51 215 32 q 286 99 268 69 q 316 160 304 128 q 335 218 328 192 q 343 257 342 244 l 389 582 q 377 608 386 590 q 347 642 368 626 q 278 658 325 658 q 206 639 231 658 q 172 587 181 619 q 156 513 163 554 l 100 151 q 101 85 94 110 q 124 50 108 61 q 155 35 139 39 q 182 32 171 32 m 192 788 l 197 826 l 447 826 l 443 788 l 192 788 z "},"&":{"ha":674,"x_min":35,"x_max":619,"o":"m 215 -11 q 98 19 139 -11 q 46 100 57 49 q 43 218 35 151 q 97 359 56 306 q 203 429 138 413 q 184 478 192 446 q 183 556 176 511 q 240 664 194 624 q 372 704 285 704 q 447 698 414 704 q 503 685 481 692 q 533 672 525 678 l 524 618 q 499 628 521 621 q 444 641 476 635 q 376 647 413 647 q 298 628 328 647 q 256 578 268 608 q 247 515 244 549 q 263 454 250 482 q 290 410 269 440 q 334 345 310 381 q 380 282 358 310 q 408 244 401 254 l 431 399 l 619 399 l 613 351 l 475 351 q 465 279 469 307 q 458 233 461 251 q 451 196 456 215 q 521 115 488 151 q 572 65 554 79 l 564 -3 q 506 38 544 0 q 424 128 467 76 q 368 40 403 69 q 293 -1 333 10 q 215 -11 253 -11 m 224 39 q 331 74 289 39 q 386 171 372 110 q 294 290 339 231 q 226 385 250 349 q 145 335 178 372 q 103 221 113 297 q 123 84 89 129 q 224 39 157 39 z "},"ą":{"ha":496,"x_min":25,"x_max":472,"o":"m 158 -11 q 117 -7 142 -11 q 69 13 92 -3 q 36 64 47 29 q 35 161 25 99 l 94 535 q 133 647 107 613 q 194 691 160 682 q 265 700 229 700 q 349 685 310 700 q 397 633 388 669 l 404 688 l 472 688 l 375 0 l 315 0 l 332 118 q 300 60 321 90 q 245 10 279 31 q 158 -11 211 -11 m 182 32 q 242 51 215 32 q 286 99 268 69 q 316 160 304 128 q 335 218 328 192 q 343 257 342 244 l 389 582 q 377 608 386 590 q 347 642 368 626 q 278 658 325 658 q 206 639 231 658 q 172 587 181 619 q 156 513 163 554 l 100 151 q 101 85 94 110 q 124 50 108 61 q 155 35 139 39 q 182 32 171 32 m 315 -185 q 256 -162 279 -185 q 236 -106 232 -140 q 274 -39 243 -67 q 336 0 304 -11 l 375 0 q 313 -44 336 -18 q 286 -97 290 -71 q 298 -139 282 -125 q 332 -153 314 -153 q 355 -149 344 -153 q 371 -143 365 -146 l 378 -169 q 353 -179 368 -174 q 315 -185 338 -185 z "},"≈":{"ha":661,"x_min":35,"x_max":626,"o":"m 474 457 q 388 471 429 457 q 306 499 347 485 q 215 513 265 513 q 151 495 178 514 q 121 454 125 476 l 76 454 q 109 515 86 492 q 163 551 132 539 q 228 561 194 563 q 312 548 272 561 q 394 522 351 535 q 488 508 438 508 q 548 526 524 508 q 576 564 572 543 l 626 564 q 590 497 615 521 q 535 464 565 472 q 474 457 504 456 m 433 168 q 349 183 389 168 q 267 211 308 197 q 175 226 225 225 q 111 208 138 226 q 81 165 85 189 l 35 165 q 69 227 46 203 q 123 263 92 251 q 188 274 154 275 q 273 260 233 274 q 355 235 313 247 q 449 221 397 222 q 508 238 483 221 q 536 276 532 256 l 585 276 q 550 209 575 233 q 494 176 525 185 q 433 168 463 168 z "},"å":{"ha":496,"x_min":25,"x_max":472,"o":"m 158 -11 q 117 -7 142 -11 q 69 13 92 -3 q 36 64 47 29 q 35 161 25 99 l 94 535 q 133 647 107 613 q 194 691 160 682 q 265 700 229 700 q 349 685 310 700 q 397 633 388 669 l 404 688 l 472 688 l 375 0 l 315 0 l 332 118 q 300 60 321 90 q 245 10 279 31 q 158 -11 211 -11 m 182 32 q 242 51 215 32 q 286 99 268 69 q 316 160 304 128 q 335 218 328 192 q 343 257 342 244 l 389 582 q 377 608 386 590 q 347 642 368 626 q 278 658 325 658 q 206 639 231 658 q 172 587 181 619 q 156 513 163 554 l 100 151 q 101 85 94 110 q 124 50 108 61 q 155 35 139 39 q 182 32 171 32 m 314 756 q 242 785 268 756 q 222 856 217 815 q 263 928 228 899 q 343 958 297 958 q 417 928 393 958 q 436 856 442 899 q 394 785 431 815 q 314 756 358 756 m 319 790 q 373 809 351 790 q 399 856 394 828 q 385 904 401 886 q 338 922 369 922 q 285 904 306 922 q 261 856 265 886 q 273 809 257 828 q 319 790 289 790 z "},"^":{"ha":538,"x_min":46,"x_max":456,"o":"m 46 688 l 268 933 l 307 933 l 456 688 l 392 688 l 275 869 l 113 688 l 46 688 z "},"~":{"ha":661,"x_min":56,"x_max":606,"o":"m 453 707 q 369 722 410 708 q 286 750 328 736 q 194 764 244 764 q 131 747 157 765 q 101 704 106 728 l 56 704 q 88 767 65 743 q 142 803 111 792 q 207 814 174 814 q 292 801 253 814 q 374 774 332 788 q 468 760 417 760 q 528 776 504 758 q 556 815 553 793 l 606 815 q 570 749 594 772 q 514 716 546 725 q 453 707 482 707 z "},"*":{"ha":756,"x_min":69,"x_max":686,"o":"m 182 147 l 124 194 l 351 418 l 69 478 l 108 558 l 361 436 l 374 731 l 456 731 l 385 438 l 672 557 l 686 481 l 390 418 l 553 196 l 482 150 l 369 401 l 182 147 z "},"@":{"ha":972,"x_min":42,"x_max":936,"o":"m 417 -90 q 172 -40 256 -90 q 65 110 88 11 q 61 349 42 208 q 209 699 93 574 q 546 824 325 824 q 759 782 668 824 q 893 649 850 740 q 915 411 936 558 q 876 257 904 328 q 802 143 847 186 q 693 100 757 100 q 638 114 660 100 q 606 151 617 128 q 593 198 596 174 q 592 240 590 222 l 613 246 q 524 157 575 182 q 418 132 472 132 q 318 161 353 132 q 294 267 283 190 q 319 335 300 307 q 380 386 338 364 q 496 429 422 408 q 556 449 531 438 q 597 472 582 461 q 615 494 610 482 q 622 519 621 506 q 605 576 626 554 q 525 597 583 597 q 431 574 461 597 q 394 503 400 550 l 388 461 l 335 461 l 342 503 q 367 577 347 547 q 427 622 388 607 q 533 636 467 636 q 631 621 597 636 q 675 574 664 606 q 679 494 686 543 l 644 246 q 655 162 636 188 q 708 136 674 136 q 772 163 740 136 q 830 250 804 190 q 869 407 856 310 q 858 606 886 521 q 753 740 829 692 q 550 788 678 788 q 333 745 424 788 q 187 606 243 703 q 107 344 131 510 q 106 142 90 221 q 166 22 122 64 q 276 -36 210 -19 q 425 -53 343 -53 q 495 -50 453 -54 q 586 -38 538 -46 q 679 -19 635 -31 q 756 7 724 -8 l 749 -35 q 674 -58 722 -44 q 560 -81 625 -72 q 417 -90 496 -90 m 442 175 q 517 194 485 175 q 570 239 550 213 q 594 290 590 265 l 614 431 q 561 413 594 422 q 496 390 528 403 q 415 356 446 372 q 369 319 385 340 q 349 263 354 297 q 365 195 343 215 q 442 175 388 175 z "},"ã":{"ha":496,"x_min":25,"x_max":472,"o":"m 158 -11 q 117 -7 142 -11 q 69 13 92 -3 q 36 64 47 29 q 35 161 25 99 l 94 535 q 133 647 107 613 q 194 691 160 682 q 265 700 229 700 q 349 685 310 700 q 397 633 388 669 l 404 688 l 472 688 l 375 0 l 315 0 l 332 118 q 300 60 321 90 q 245 10 279 31 q 158 -11 211 -11 m 182 32 q 242 51 215 32 q 286 99 268 69 q 316 160 304 128 q 335 218 328 192 q 343 257 342 244 l 389 582 q 377 608 386 590 q 347 642 368 626 q 278 658 325 658 q 206 639 231 658 q 172 587 181 619 q 156 513 163 554 l 100 151 q 101 85 94 110 q 124 50 108 61 q 155 35 139 39 q 182 32 171 32 m 375 771 q 346 776 357 771 q 318 794 335 782 q 294 812 307 803 q 264 821 281 821 q 234 809 247 821 q 214 772 221 797 l 183 772 q 215 834 192 810 q 271 858 238 858 q 303 850 289 858 q 333 831 318 842 q 357 816 346 822 q 382 810 368 810 q 413 820 400 810 q 432 856 425 831 l 465 856 q 431 794 456 818 q 375 771 407 771 z "},"b":{"ha":503,"x_min":31,"x_max":472,"o":"m 221 -10 q 126 13 154 -10 q 92 64 99 35 l 79 0 l 31 0 l 154 875 l 219 875 l 186 643 q 240 685 206 668 q 329 701 274 701 q 410 688 381 701 q 454 649 440 674 q 470 593 468 625 q 467 525 472 561 l 419 181 q 402 104 414 139 q 369 44 390 69 q 312 4 347 18 q 221 -10 276 -10 m 218 39 q 303 60 276 39 q 338 115 329 82 q 353 183 347 149 l 399 510 q 404 562 403 536 q 399 608 406 588 q 371 642 393 629 q 304 654 349 654 q 226 637 253 654 q 188 592 199 619 q 172 531 176 564 l 128 217 q 122 156 125 188 q 124 98 118 125 q 151 55 129 71 q 218 39 174 39 z "},"\\":{"ha":688,"x_min":131,"x_max":531,"o":"m 475 -64 l 131 876 l 188 876 l 531 -64 l 475 -64 z "},"|":{"ha":294,"x_min":32,"x_max":264,"o":"m 32 -339 l 203 876 l 264 876 l 92 -339 l 32 -339 z "},"б":{"ha":497,"x_min":29,"x_max":461,"o":"m 197 -10 q 91 11 129 -10 q 41 74 53 32 q 38 181 29 117 l 108 683 q 142 789 118 753 q 205 840 167 825 q 296 854 243 854 q 339 856 318 854 q 379 863 360 858 q 415 872 399 867 q 442 881 431 876 q 458 892 453 886 q 457 874 458 883 q 453 853 456 865 q 422 825 453 842 q 333 808 390 808 l 311 808 q 247 799 275 808 q 201 763 218 789 q 175 688 183 736 l 158 572 q 213 617 175 599 q 308 636 250 636 q 405 616 371 636 q 450 556 439 596 q 451 457 461 517 l 415 193 q 393 101 407 139 q 354 38 379 63 q 291 1 329 13 q 197 -10 253 -10 m 204 33 q 288 53 258 33 q 329 108 317 74 q 349 182 342 142 l 385 447 q 388 518 392 486 q 363 569 385 550 q 285 589 340 589 q 210 577 239 589 q 169 545 182 565 q 150 505 156 525 q 142 467 144 485 l 103 182 q 100 108 97 142 q 126 53 103 74 q 204 33 150 33 z "},"{":{"ha":418,"x_min":65,"x_max":397,"o":"m 242 -190 q 134 -159 174 -183 q 80 -97 94 -135 q 72 -10 65 -58 q 96 65 78 31 q 135 130 114 99 q 174 192 157 161 q 197 258 192 224 q 184 310 201 289 q 137 345 167 332 q 74 360 107 358 l 76 382 q 142 396 110 385 q 199 430 175 407 q 228 485 224 453 q 224 549 233 518 q 202 610 215 581 q 181 674 189 640 q 178 749 172 708 q 209 835 185 800 q 279 892 233 871 q 397 922 325 914 l 390 878 q 325 861 354 872 q 276 824 296 850 q 250 749 257 799 q 251 676 244 708 q 268 614 257 643 q 286 553 279 585 q 288 482 293 522 q 272 440 285 461 q 233 400 258 418 q 171 371 208 382 q 240 326 219 356 q 257 261 261 297 q 235 190 251 221 q 201 131 219 160 q 167 69 183 101 q 146 -4 151 38 q 151 -84 139 -54 q 190 -128 164 -114 q 246 -146 215 -142 l 242 -190 z "},"}":{"ha":418,"x_min":22,"x_max":354,"o":"m 22 -190 l 28 -146 q 90 -128 60 -142 q 140 -84 119 -114 q 168 -4 161 -54 q 167 69 174 38 q 150 131 160 101 q 134 190 140 160 q 132 261 128 221 q 167 326 138 297 q 250 371 196 356 q 196 400 215 382 q 169 440 176 418 q 164 482 161 461 q 185 553 169 522 q 219 614 200 585 q 255 676 239 643 q 276 749 271 708 q 271 824 283 799 q 232 861 258 850 q 171 878 206 872 l 178 922 q 287 892 247 914 q 340 835 326 871 q 347 749 354 800 q 324 674 342 708 q 285 610 306 640 q 247 549 264 581 q 225 485 229 518 q 238 430 221 453 q 285 396 256 407 q 346 382 315 385 l 343 360 q 275 345 308 358 q 219 310 242 332 q 192 258 196 289 q 195 192 186 224 q 217 130 204 161 q 239 65 231 99 q 242 -10 247 31 q 208 -97 235 -58 q 136 -159 182 -135 q 22 -190 90 -183 z "},"[":{"ha":390,"x_min":0,"x_max":389,"o":"m 0 -79 l 133 875 l 389 875 l 385 835 l 190 835 l 68 -39 l 263 -39 l 256 -79 l 0 -79 z "},"]":{"ha":390,"x_min":0,"x_max":389,"o":"m 0 -79 l 6 -39 l 199 -39 l 321 835 l 128 835 l 133 875 l 389 875 l 256 -79 l 0 -79 z "},"˘":{"ha":264,"x_min":74,"x_max":339,"o":"m 189 756 q 128 768 151 756 q 92 799 104 781 q 77 838 81 817 q 75 875 74 858 l 117 875 q 139 814 118 835 q 194 793 160 793 q 259 813 232 793 q 297 875 286 833 l 339 875 q 316 822 333 850 q 267 775 299 794 q 189 756 236 756 z "},"̆":{"ha":0,"x_min":74,"x_max":339,"o":"m 189 756 q 128 768 151 756 q 92 799 104 781 q 77 838 81 817 q 75 875 74 858 l 117 875 q 139 814 118 835 q 194 793 160 793 q 259 813 232 793 q 297 875 286 833 l 339 875 q 316 822 333 850 q 267 775 299 794 q 189 756 236 756 z "},"¦":{"ha":310,"x_min":51,"x_max":258,"o":"m 51 -236 l 117 236 l 178 236 l 111 -236 l 51 -236 m 138 381 l 199 813 l 258 813 l 199 381 l 138 381 z "},"•":{"ha":556,"x_min":89,"x_max":468,"o":"m 279 199 q 183 224 226 199 q 115 293 140 250 q 89 389 89 336 q 115 484 89 442 q 183 552 140 526 q 279 578 226 578 q 374 552 332 578 q 442 484 417 526 q 468 389 468 442 q 442 293 468 336 q 374 224 417 250 q 279 199 332 199 z "},"c":{"ha":476,"x_min":29,"x_max":461,"o":"m 192 -14 q 110 -6 143 -14 q 58 24 76 3 q 34 83 39 46 q 38 179 29 121 l 88 532 q 147 665 101 629 q 292 701 193 701 q 425 665 389 701 q 447 532 461 629 l 435 446 l 368 446 l 381 536 q 372 631 390 601 q 286 660 354 660 q 191 631 218 660 q 154 536 164 601 l 101 160 q 110 58 92 88 q 196 29 128 29 q 292 58 265 29 q 328 160 318 88 l 342 250 l 408 250 l 399 179 q 364 60 388 101 q 299 2 340 18 q 192 -14 257 -14 z "},"ć":{"ha":476,"x_min":29,"x_max":461,"o":"m 192 -14 q 110 -6 143 -14 q 58 24 76 3 q 34 83 39 46 q 38 179 29 121 l 88 532 q 147 665 101 629 q 292 701 193 701 q 425 665 389 701 q 447 532 461 629 l 435 446 l 368 446 l 381 536 q 372 631 390 601 q 286 660 354 660 q 191 631 218 660 q 154 536 164 601 l 101 160 q 110 58 92 88 q 196 29 128 29 q 292 58 265 29 q 328 160 318 88 l 342 250 l 408 250 l 399 179 q 364 60 388 101 q 299 2 340 18 q 192 -14 257 -14 m 249 757 l 336 883 l 410 883 l 290 757 l 249 757 z "},"ˇ":{"ha":293,"x_min":76,"x_max":369,"o":"m 181 760 l 76 882 l 124 882 l 210 796 l 322 882 l 369 882 l 229 760 l 181 760 z "},"̌":{"ha":0,"x_min":76,"x_max":369,"o":"m 181 760 l 76 882 l 124 882 l 210 796 l 322 882 l 369 882 l 229 760 l 181 760 z "},"č":{"ha":476,"x_min":29,"x_max":467,"o":"m 192 -14 q 110 -6 143 -14 q 58 24 76 3 q 34 83 39 46 q 38 179 29 121 l 88 532 q 147 665 101 629 q 292 701 193 701 q 425 665 389 701 q 447 532 461 629 l 435 446 l 368 446 l 381 536 q 372 631 390 601 q 286 660 354 660 q 191 631 218 660 q 154 536 164 601 l 101 160 q 110 58 92 88 q 196 29 128 29 q 292 58 265 29 q 328 160 318 88 l 342 250 l 408 250 l 399 179 q 364 60 388 101 q 299 2 340 18 q 192 -14 257 -14 m 278 760 l 174 882 l 221 882 l 307 796 l 419 882 l 467 882 l 326 760 l 278 760 z "},"ç":{"ha":476,"x_min":29,"x_max":461,"o":"m 192 -14 q 110 -6 143 -14 q 58 24 76 3 q 34 83 39 46 q 38 179 29 121 l 88 532 q 147 665 101 629 q 292 701 193 701 q 425 665 389 701 q 447 532 461 629 l 435 446 l 368 446 l 381 536 q 372 631 390 601 q 286 660 354 660 q 191 631 218 660 q 154 536 164 601 l 101 160 q 110 58 92 88 q 196 29 128 29 q 292 58 265 29 q 328 160 318 88 l 342 250 l 408 250 l 399 179 q 364 60 388 101 q 299 2 340 18 q 192 -14 257 -14 m 161 -196 q 125 -189 140 -196 q 100 -176 110 -182 l 115 -149 q 138 -160 122 -154 q 163 -165 153 -165 q 208 -152 192 -165 q 225 -121 224 -139 q 186 -81 231 -81 q 166 -85 176 -81 q 146 -94 156 -89 l 124 -81 l 179 0 l 213 0 l 164 -69 l 157 -67 q 181 -58 168 -60 q 204 -56 193 -56 q 255 -76 239 -56 q 268 -118 271 -96 q 235 -174 263 -153 q 161 -196 207 -196 z "},"ċ":{"ha":476,"x_min":29,"x_max":461,"o":"m 192 -14 q 110 -6 143 -14 q 58 24 76 3 q 34 83 39 46 q 38 179 29 121 l 88 532 q 147 665 101 629 q 292 701 193 701 q 425 665 389 701 q 447 532 461 629 l 435 446 l 368 446 l 381 536 q 372 631 390 601 q 286 660 354 660 q 191 631 218 660 q 154 536 164 601 l 101 160 q 110 58 92 88 q 196 29 128 29 q 292 58 265 29 q 328 160 318 88 l 342 250 l 408 250 l 399 179 q 364 60 388 101 q 299 2 340 18 q 192 -14 257 -14 m 304 774 q 273 786 286 774 q 260 817 260 799 q 273 847 260 835 q 304 860 286 860 q 335 847 322 860 q 349 817 349 835 q 335 786 349 799 q 304 774 322 774 z "},"¸":{"ha":160,"x_min":-74,"x_max":99,"o":"m -11 -193 q -47 -186 -32 -193 q -72 -174 -62 -179 l -57 -146 q -35 -157 -50 -151 q -10 -162 -19 -162 q 35 -149 19 -162 q 53 -118 51 -136 q 14 -78 58 -78 q -6 -82 4 -78 q -26 -92 -17 -86 l -49 -78 l 7 3 l 40 3 l -8 -67 l -15 -64 q 8 -55 -4 -57 q 32 -53 21 -53 q 83 -73 67 -53 q 96 -115 99 -93 q 63 -172 90 -150 q -11 -193 35 -193 z "},"̧":{"ha":0,"x_min":-81,"x_max":90,"o":"m -19 -193 q -56 -186 -40 -193 q -81 -174 -71 -179 l -65 -146 q -43 -157 -58 -151 q -18 -162 -28 -162 q 27 -149 11 -162 q 44 -118 43 -136 q 6 -78 50 -78 q -15 -82 -4 -78 q -35 -92 -25 -86 l -57 -78 l -1 3 l 32 3 l -17 -67 l -24 -64 q 0 -55 -12 -57 q 24 -53 13 -53 q 74 -73 58 -53 q 88 -115 90 -93 q 54 -172 82 -150 q -19 -193 26 -193 z "},"¢":{"ha":475,"x_min":31,"x_max":451,"o":"m 146 -87 l 168 69 q 92 84 124 71 q 45 132 60 97 q 40 233 31 167 l 94 631 q 128 724 104 692 q 188 769 151 756 q 268 783 224 782 l 285 897 l 333 897 l 315 782 q 390 766 358 779 q 436 721 421 753 q 442 631 451 689 l 426 515 l 367 515 l 383 631 q 378 706 390 682 q 342 738 367 729 q 285 746 318 746 q 225 738 251 746 q 181 706 199 729 q 156 631 164 682 l 99 224 q 103 147 92 172 q 138 115 114 122 q 196 107 163 107 q 257 115 231 107 q 301 147 283 122 q 325 224 318 172 l 339 318 l 399 318 l 386 233 q 353 133 378 168 q 294 85 329 99 q 217 71 258 72 l 194 -87 l 146 -87 z "},"ч":{"ha":469,"x_min":36,"x_max":439,"o":"m 278 0 l 317 272 q 262 215 300 239 q 172 192 224 192 q 75 215 104 192 q 41 281 46 239 q 44 378 36 324 l 89 688 l 156 688 l 110 375 q 117 275 101 310 q 199 240 133 240 q 278 267 249 240 q 321 321 308 294 l 371 688 l 439 688 l 342 0 l 278 0 z "},"ˆ":{"ha":293,"x_min":58,"x_max":351,"o":"m 58 760 l 197 882 l 247 882 l 351 760 l 304 760 l 217 846 l 107 760 l 58 760 z "},"̂":{"ha":0,"x_min":58,"x_max":351,"o":"m 58 760 l 197 882 l 247 882 l 351 760 l 304 760 l 217 846 l 107 760 l 58 760 z "},":":{"ha":206,"x_min":25,"x_max":146,"o":"m 107 390 q 86 399 94 390 q 79 421 78 408 q 92 442 82 433 q 115 451 103 451 q 137 442 128 451 q 143 421 146 433 q 131 399 142 408 q 107 390 119 390 m 54 -7 q 33 2 42 -7 q 26 24 25 11 q 40 45 29 36 q 63 54 50 54 q 84 45 75 54 q 90 24 93 36 q 78 2 89 11 q 54 -7 67 -7 z "},",":{"ha":243,"x_min":-1,"x_max":129,"o":"m -1 -156 q 36 -96 17 -126 q 58 -39 56 -65 q 56 -12 60 -21 q 46 5 51 -3 q 40 29 40 13 q 53 60 40 47 q 86 74 65 74 q 117 62 106 74 q 129 29 129 50 q 113 -31 129 3 q 75 -97 97 -64 q 32 -156 53 -129 l -1 -156 z "},"̦":{"ha":0,"x_min":-87,"x_max":17,"o":"m -87 -206 q -51 -151 -64 -174 q -39 -118 -39 -129 q -44 -106 -39 -111 q -53 -94 -49 -101 q -58 -75 -58 -87 q -46 -53 -57 -64 q -19 -43 -35 -43 q 7 -53 -3 -43 q 17 -78 17 -62 q 4 -115 15 -92 q -23 -161 -7 -137 q -57 -206 -39 -185 l -87 -206 z "},"̒":{"ha":0,"x_min":63,"x_max":167,"o":"m 167 917 q 131 864 143 886 q 119 831 119 842 q 124 818 118 824 q 134 806 129 813 q 138 788 139 800 q 126 765 138 776 q 99 754 115 754 q 72 765 82 754 q 64 789 63 775 q 76 827 64 804 q 104 874 88 850 q 136 917 121 899 l 167 917 z "},"©":{"ha":833,"x_min":47,"x_max":856,"o":"m 397 43 q 208 96 289 43 q 87 237 126 149 q 63 433 47 325 q 114 584 74 514 q 215 708 154 654 q 350 791 275 761 q 506 821 425 821 q 694 769 614 821 q 815 628 775 717 q 840 433 856 540 q 789 282 829 353 q 688 157 749 211 q 553 73 628 103 q 397 43 478 43 m 401 75 q 543 103 475 75 q 667 182 611 132 q 759 296 722 232 q 804 433 796 360 q 783 611 819 531 q 674 740 747 692 q 501 788 600 788 q 360 760 428 788 q 237 683 293 732 q 144 570 181 635 q 97 433 108 506 q 106 296 88 360 q 166 182 124 232 q 268 103 208 132 q 401 75 328 75 m 413 215 q 353 221 376 215 q 317 240 329 226 q 301 278 304 254 q 306 339 299 301 l 347 561 q 392 645 358 622 q 499 668 426 668 q 592 645 568 668 q 606 561 617 622 l 594 507 l 549 507 l 560 565 q 554 624 567 606 q 492 643 542 643 q 422 624 442 643 q 394 565 403 606 l 350 325 q 353 263 340 281 q 417 244 367 244 q 485 263 465 244 q 514 325 506 281 l 526 383 l 572 383 l 565 340 q 538 263 556 290 q 489 226 519 236 q 413 215 458 215 z "},"¤":{"ha":625,"x_min":64,"x_max":561,"o":"m 111 178 l 72 217 l 168 311 q 138 361 149 335 q 126 415 126 388 q 167 525 126 475 l 64 626 l 100 664 l 207 558 q 307 588 256 588 q 411 556 360 588 l 515 658 l 551 621 l 451 519 q 488 415 488 471 q 453 317 488 363 l 561 207 l 522 169 l 413 281 q 360 256 386 265 q 307 247 333 247 q 206 275 250 247 l 111 178 m 307 300 q 392 334 357 300 q 426 415 426 368 q 392 500 426 465 q 307 535 357 535 q 221 501 254 535 q 188 415 188 467 q 221 334 188 368 q 307 300 254 300 z "},"d":{"ha":503,"x_min":32,"x_max":499,"o":"m 178 -11 q 94 3 125 -11 q 49 42 63 17 q 33 102 35 67 q 38 181 32 138 l 86 525 q 111 613 93 574 q 167 676 129 653 q 272 700 206 700 q 359 684 329 700 q 400 643 389 668 l 432 875 l 499 875 l 375 0 l 329 0 l 331 65 q 303 28 321 46 q 254 0 285 11 q 178 -11 224 -11 m 194 32 q 266 48 239 32 q 307 90 293 64 q 328 149 321 117 q 338 210 335 181 q 364 396 351 303 q 390 582 376 489 q 379 614 389 597 q 348 644 369 631 q 285 657 326 657 q 201 635 228 657 q 165 579 174 613 q 151 510 157 546 l 104 176 q 99 124 101 150 q 104 76 97 97 q 131 44 111 56 q 194 32 151 32 z "},"†":{"ha":501,"x_min":83,"x_max":465,"o":"m 147 -171 l 238 468 l 83 468 l 90 514 l 244 514 l 286 813 l 347 813 l 306 514 l 465 514 l 458 468 l 299 468 l 208 -171 l 147 -171 z "},"‡":{"ha":504,"x_min":49,"x_max":467,"o":"m 147 -171 l 204 224 l 49 224 l 56 274 l 211 274 l 239 472 l 83 472 l 92 521 l 244 521 l 288 825 l 350 825 l 307 521 l 467 521 l 460 472 l 299 472 l 272 274 l 432 274 l 425 224 l 264 224 l 208 -171 l 147 -171 z "},"ď":{"ha":531,"x_min":32,"x_max":624,"o":"m 178 -11 q 94 3 125 -11 q 49 42 63 17 q 33 102 35 67 q 38 181 32 138 l 86 525 q 111 613 93 574 q 167 676 129 653 q 272 700 206 700 q 359 684 329 700 q 400 643 389 668 l 432 875 l 499 875 l 375 0 l 329 0 l 331 65 q 303 28 321 46 q 254 0 285 11 q 178 -11 224 -11 m 194 32 q 266 48 239 32 q 307 90 293 64 q 328 149 321 117 q 338 210 335 181 q 364 396 351 303 q 390 582 376 489 q 379 614 389 597 q 348 644 369 631 q 285 657 326 657 q 201 635 228 657 q 165 579 174 613 q 151 510 157 546 l 104 176 q 99 124 101 150 q 104 76 97 97 q 131 44 111 56 q 194 32 151 32 m 529 729 l 576 903 l 624 903 l 558 729 l 529 729 z "},"đ":{"ha":490,"x_min":32,"x_max":540,"o":"m 244 765 l 250 801 l 540 801 l 535 765 l 244 765 m 178 -11 q 94 3 125 -11 q 49 42 63 17 q 33 102 35 67 q 38 181 32 138 l 86 525 q 111 613 93 574 q 167 676 129 653 q 272 700 206 700 q 359 684 329 700 q 400 643 389 668 l 432 875 l 499 875 l 375 0 l 329 0 l 331 65 q 303 28 321 46 q 254 0 285 11 q 178 -11 224 -11 m 194 32 q 266 48 239 32 q 307 90 293 64 q 328 149 321 117 q 338 210 335 181 q 364 396 351 303 q 390 582 376 489 q 379 614 389 597 q 348 644 369 631 q 285 657 326 657 q 201 635 228 657 q 165 579 174 613 q 151 510 157 546 l 104 176 q 99 124 101 150 q 104 76 97 97 q 131 44 111 56 q 194 32 151 32 z "},"д":{"ha":676,"x_min":-29,"x_max":613,"o":"m -29 -146 l -3 43 l 63 43 q 98 57 82 46 q 128 92 114 68 q 151 156 143 117 l 279 686 l 593 686 l 503 43 l 613 43 l 585 -146 l 526 -146 l 546 -10 l 49 -10 l 29 -146 l -29 -146 m 167 43 l 432 43 l 515 636 l 333 636 l 224 181 q 204 106 217 147 q 167 43 192 64 z "},"°":{"ha":447,"x_min":54,"x_max":390,"o":"m 201 508 q 87 554 119 508 q 64 663 54 600 q 115 774 72 728 q 249 821 158 821 q 339 800 308 821 q 380 744 369 779 q 385 665 390 708 q 330 553 375 597 q 201 508 285 508 m 208 543 q 297 576 263 543 q 340 664 332 610 q 322 750 346 713 q 240 788 299 788 q 152 753 188 788 q 110 663 117 718 q 131 576 101 610 q 208 543 160 543 z "},"¨":{"ha":206,"x_min":67,"x_max":272,"o":"m 107 776 q 78 788 90 776 q 67 815 67 799 q 78 842 67 832 q 107 853 90 853 q 135 842 124 853 q 146 815 146 832 q 135 788 146 799 q 107 776 124 776 m 232 776 q 203 788 215 776 q 192 815 192 799 q 203 842 192 832 q 232 853 215 853 q 260 842 249 853 q 272 815 272 832 q 260 788 272 799 q 232 776 249 776 z "},"̈":{"ha":0,"x_min":67,"x_max":272,"o":"m 107 776 q 78 788 90 776 q 67 815 67 799 q 78 842 67 832 q 107 853 90 853 q 135 842 124 853 q 146 815 146 832 q 135 788 146 799 q 107 776 124 776 m 232 776 q 203 788 215 776 q 192 815 192 799 q 203 842 192 832 q 232 853 215 853 q 260 842 249 853 q 272 815 272 832 q 260 788 272 799 q 232 776 249 776 z "},"÷":{"ha":504,"x_min":65,"x_max":442,"o":"m 65 379 l 72 429 l 442 429 l 435 379 l 65 379 m 215 131 q 185 142 196 131 q 178 172 175 153 q 193 201 179 189 q 226 213 207 213 q 255 201 243 213 q 265 172 267 189 q 247 142 263 153 q 215 131 232 131 m 276 575 q 247 587 258 575 q 239 617 236 599 q 256 647 242 635 q 288 658 269 658 q 317 647 306 658 q 326 617 329 635 q 310 587 325 599 q 276 575 294 575 z "},"∕":{"ha":390,"x_min":-128,"x_max":542,"o":"m -128 -171 l 486 978 l 542 978 l -72 -171 l -128 -171 z "},"ђ":{"ha":546,"x_min":53,"x_max":499,"o":"m 253 -129 q 211 -124 229 -129 q 179 -110 193 -118 q 186 -92 183 -101 q 194 -75 189 -83 q 217 -85 204 -81 q 249 -89 229 -89 q 336 -44 310 -89 q 375 79 363 0 l 425 436 q 422 497 428 471 q 392 538 415 522 q 324 554 369 554 q 242 535 271 554 q 201 485 214 515 q 183 426 188 456 q 174 375 178 396 l 121 0 l 53 0 l 156 728 l 75 728 l 81 769 l 161 769 l 176 875 l 244 875 l 229 769 l 364 769 l 358 728 l 224 728 l 193 519 q 252 575 213 553 q 347 597 292 597 q 443 577 410 597 q 488 517 476 557 q 490 418 499 478 l 443 89 q 413 -33 433 11 q 367 -97 393 -76 q 312 -124 342 -118 q 253 -129 282 -129 z "},"$":{"ha":475,"x_min":17,"x_max":449,"o":"m 153 -85 l 175 74 q 44 119 72 75 q 31 264 17 163 l 38 317 l 101 317 l 93 256 q 88 186 88 218 q 108 135 88 154 q 188 115 129 115 q 267 135 242 115 q 303 183 293 154 q 317 236 313 211 l 322 271 q 319 331 328 306 q 285 377 310 357 q 219 415 261 397 q 143 456 175 433 q 96 510 111 478 q 88 593 81 543 l 93 635 q 146 741 103 700 q 275 783 189 782 l 296 935 l 335 935 l 314 785 q 419 738 390 779 q 436 607 449 696 l 426 547 l 365 547 l 374 613 q 362 715 385 688 q 283 742 339 742 q 191 712 218 742 q 158 636 164 682 l 153 603 q 160 535 147 561 q 203 490 174 508 q 276 451 233 471 q 344 415 315 435 q 385 363 372 396 q 390 272 397 331 l 386 244 q 365 168 381 206 q 314 105 349 131 q 214 75 279 79 l 192 -85 l 153 -85 z "},"˙":{"ha":81,"x_min":67,"x_max":156,"o":"m 111 774 q 80 786 93 774 q 67 817 67 799 q 80 847 67 835 q 111 860 93 860 q 142 847 129 860 q 156 817 156 835 q 142 786 156 799 q 111 774 129 774 z "},"̇":{"ha":0,"x_min":67,"x_max":156,"o":"m 111 774 q 80 786 93 774 q 67 817 67 799 q 80 847 67 835 q 111 860 93 860 q 142 847 129 860 q 156 817 156 835 q 142 786 156 799 q 111 774 129 774 z "},"̣":{"ha":0,"x_min":-62,"x_max":18,"o":"m -22 -142 q -51 -130 -39 -142 q -62 -101 -62 -118 q -51 -75 -62 -86 q -22 -64 -39 -64 q 6 -75 -6 -64 q 18 -101 18 -86 q 6 -130 18 -118 q -22 -142 -6 -142 z "},"↓":{"ha":710,"x_min":64,"x_max":647,"o":"m 357 0 l 64 310 l 97 344 l 329 110 l 329 986 l 382 986 l 382 111 l 615 343 l 647 310 l 357 0 z "},"ѕ":{"ha":475,"x_min":26,"x_max":454,"o":"m 189 -10 q 89 6 124 -10 q 40 49 54 22 q 27 110 26 76 q 33 181 28 144 l 40 233 l 107 233 l 99 174 q 94 104 94 136 q 114 53 93 72 q 194 33 135 33 q 273 52 247 33 q 309 99 299 71 q 324 153 319 128 l 328 188 q 324 249 333 222 q 291 294 315 275 q 224 332 267 314 q 147 373 179 351 q 99 427 114 394 q 92 510 85 460 l 97 551 q 125 632 103 599 q 190 683 147 665 q 294 701 232 701 q 393 684 357 701 q 442 628 429 667 q 444 525 454 589 l 436 464 l 371 464 l 381 529 q 367 631 390 603 q 290 658 344 658 q 198 628 225 658 q 164 554 171 597 l 160 519 q 167 451 154 478 q 210 407 179 425 q 283 368 240 389 q 351 332 322 351 q 392 280 379 313 q 399 189 406 247 l 394 161 q 372 79 390 118 q 310 15 353 40 q 189 -10 268 -10 z "},"џ":{"ha":538,"x_min":31,"x_max":507,"o":"m 171 -153 l 193 0 l 31 0 l 128 688 l 194 688 l 104 50 l 349 50 l 439 688 l 507 688 l 410 0 l 246 0 l 224 -153 l 171 -153 z "},"e":{"ha":476,"x_min":26,"x_max":474,"o":"m 192 -14 q 90 3 128 -14 q 39 60 51 19 q 38 179 26 101 l 88 532 q 152 663 101 629 q 292 697 203 697 q 436 655 399 697 q 453 511 474 613 q 399 413 439 450 q 306 354 358 375 q 203 324 253 333 q 122 313 153 315 l 101 165 q 109 60 90 90 q 196 31 128 31 q 292 60 265 31 q 329 165 319 89 l 340 244 l 406 244 l 396 172 q 364 58 386 99 q 301 2 342 18 q 192 -14 260 -14 m 129 357 q 199 367 160 360 q 278 392 239 375 q 345 439 317 410 q 383 513 374 468 q 383 619 400 581 q 294 657 367 657 q 194 628 226 657 q 151 525 163 599 l 129 357 z "},"é":{"ha":476,"x_min":26,"x_max":474,"o":"m 192 -14 q 90 3 128 -14 q 39 60 51 19 q 38 179 26 101 l 88 532 q 152 663 101 629 q 292 697 203 697 q 436 655 399 697 q 453 511 474 613 q 399 413 439 450 q 306 354 358 375 q 203 324 253 333 q 122 313 153 315 l 101 165 q 109 60 90 90 q 196 31 128 31 q 292 60 265 31 q 329 165 319 89 l 340 244 l 406 244 l 396 172 q 364 58 386 99 q 301 2 342 18 q 192 -14 260 -14 m 129 357 q 199 367 160 360 q 278 392 239 375 q 345 439 317 410 q 383 513 374 468 q 383 619 400 581 q 294 657 367 657 q 194 628 226 657 q 151 525 163 599 l 129 357 m 249 757 l 336 883 l 410 883 l 290 757 l 249 757 z "},"ě":{"ha":476,"x_min":26,"x_max":474,"o":"m 192 -14 q 90 3 128 -14 q 39 60 51 19 q 38 179 26 101 l 88 532 q 152 663 101 629 q 292 697 203 697 q 436 655 399 697 q 453 511 474 613 q 399 413 439 450 q 306 354 358 375 q 203 324 253 333 q 122 313 153 315 l 101 165 q 109 60 90 90 q 196 31 128 31 q 292 60 265 31 q 329 165 319 89 l 340 244 l 406 244 l 396 172 q 364 58 386 99 q 301 2 342 18 q 192 -14 260 -14 m 129 357 q 199 367 160 360 q 278 392 239 375 q 345 439 317 410 q 383 513 374 468 q 383 619 400 581 q 294 657 367 657 q 194 628 226 657 q 151 525 163 599 l 129 357 m 279 760 l 175 882 l 222 882 l 308 796 l 421 882 l 468 882 l 328 760 l 279 760 z "},"ê":{"ha":476,"x_min":26,"x_max":474,"o":"m 192 -14 q 90 3 128 -14 q 39 60 51 19 q 38 179 26 101 l 88 532 q 152 663 101 629 q 292 697 203 697 q 436 655 399 697 q 453 511 474 613 q 399 413 439 450 q 306 354 358 375 q 203 324 253 333 q 122 313 153 315 l 101 165 q 109 60 90 90 q 196 31 128 31 q 292 60 265 31 q 329 165 319 89 l 340 244 l 406 244 l 396 172 q 364 58 386 99 q 301 2 342 18 q 192 -14 260 -14 m 129 357 q 199 367 160 360 q 278 392 239 375 q 345 439 317 410 q 383 513 374 468 q 383 619 400 581 q 294 657 367 657 q 194 628 226 657 q 151 525 163 599 l 129 357 m 151 760 l 290 882 l 340 882 l 444 760 l 397 760 l 310 846 l 200 760 l 151 760 z "},"ế":{"ha":476,"x_min":26,"x_max":604,"o":"m 192 -14 q 90 3 128 -14 q 39 60 51 19 q 38 179 26 101 l 88 532 q 152 663 101 629 q 292 697 203 697 q 436 655 399 697 q 453 511 474 613 q 399 413 439 450 q 306 354 358 375 q 203 324 253 333 q 122 313 153 315 l 101 165 q 109 60 90 90 q 196 31 128 31 q 292 60 265 31 q 329 165 319 89 l 340 244 l 406 244 l 396 172 q 364 58 386 99 q 301 2 342 18 q 192 -14 260 -14 m 129 357 q 199 367 160 360 q 278 392 239 375 q 345 439 317 410 q 383 513 374 468 q 383 619 400 581 q 294 657 367 657 q 194 628 226 657 q 151 525 163 599 l 129 357 m 151 760 l 290 882 l 340 882 l 444 760 l 397 760 l 310 846 l 200 760 l 151 760 m 444 832 l 532 958 l 606 958 l 486 832 l 444 832 z "},"ệ":{"ha":476,"x_min":26,"x_max":474,"o":"m 192 -14 q 90 3 128 -14 q 39 60 51 19 q 38 179 26 101 l 88 532 q 152 663 101 629 q 292 697 203 697 q 436 655 399 697 q 453 511 474 613 q 399 413 439 450 q 306 354 358 375 q 203 324 253 333 q 122 313 153 315 l 101 165 q 109 60 90 90 q 196 31 128 31 q 292 60 265 31 q 329 165 319 89 l 340 244 l 406 244 l 396 172 q 364 58 386 99 q 301 2 342 18 q 192 -14 260 -14 m 129 357 q 199 367 160 360 q 278 392 239 375 q 345 439 317 410 q 383 513 374 468 q 383 619 400 581 q 294 657 367 657 q 194 628 226 657 q 151 525 163 599 l 129 357 m 175 -142 q 147 -130 158 -142 q 135 -101 135 -118 q 147 -75 135 -86 q 175 -64 158 -64 q 203 -75 192 -64 q 215 -101 215 -86 q 203 -130 215 -118 q 175 -142 192 -142 m 151 760 l 290 882 l 340 882 l 444 760 l 397 760 l 310 846 l 200 760 l 151 760 z "},"ề":{"ha":476,"x_min":26,"x_max":533,"o":"m 192 -14 q 90 3 128 -14 q 39 60 51 19 q 38 179 26 101 l 88 532 q 152 663 101 629 q 292 697 203 697 q 436 655 399 697 q 453 511 474 613 q 399 413 439 450 q 306 354 358 375 q 203 324 253 333 q 122 313 153 315 l 101 165 q 109 60 90 90 q 196 31 128 31 q 292 60 265 31 q 329 165 319 89 l 340 244 l 406 244 l 396 172 q 364 58 386 99 q 301 2 342 18 q 192 -14 260 -14 m 129 357 q 199 367 160 360 q 278 392 239 375 q 345 439 317 410 q 383 513 374 468 q 383 619 400 581 q 294 657 367 657 q 194 628 226 657 q 151 525 163 599 l 129 357 m 151 760 l 290 882 l 340 882 l 444 760 l 397 760 l 310 846 l 200 760 l 151 760 m 492 832 l 400 958 l 472 958 l 533 832 l 492 832 z "},"ể":{"ha":476,"x_min":26,"x_max":581,"o":"m 192 -14 q 90 3 128 -14 q 39 60 51 19 q 38 179 26 101 l 88 532 q 152 663 101 629 q 292 697 203 697 q 436 655 399 697 q 453 511 474 613 q 399 413 439 450 q 306 354 358 375 q 203 324 253 333 q 122 313 153 315 l 101 165 q 109 60 90 90 q 196 31 128 31 q 292 60 265 31 q 329 165 319 89 l 340 244 l 406 244 l 396 172 q 364 58 386 99 q 301 2 342 18 q 192 -14 260 -14 m 129 357 q 199 367 160 360 q 278 392 239 375 q 345 439 317 410 q 383 513 374 468 q 383 619 400 581 q 294 657 367 657 q 194 628 226 657 q 151 525 163 599 l 129 357 m 151 760 l 290 882 l 340 882 l 444 760 l 397 760 l 310 846 l 200 760 l 151 760 m 467 824 l 469 851 q 488 878 472 872 q 519 893 504 885 q 536 922 535 901 l 536 929 q 531 960 538 946 q 501 974 525 974 q 460 940 471 974 l 424 947 q 453 990 433 975 q 510 1004 474 1004 q 565 983 550 1004 q 579 926 581 963 l 578 924 q 567 885 578 897 q 543 869 557 874 q 518 859 529 864 q 507 843 507 854 l 506 824 l 467 824 z "},"ễ":{"ha":476,"x_min":26,"x_max":474,"o":"m 192 -14 q 90 3 128 -14 q 39 60 51 19 q 38 179 26 101 l 88 532 q 152 663 101 629 q 292 697 203 697 q 436 655 399 697 q 453 511 474 613 q 399 413 439 450 q 306 354 358 375 q 203 324 253 333 q 122 313 153 315 l 101 165 q 109 60 90 90 q 196 31 128 31 q 292 60 265 31 q 329 165 319 89 l 340 244 l 406 244 l 396 172 q 364 58 386 99 q 301 2 342 18 q 192 -14 260 -14 m 129 357 q 199 367 160 360 q 278 392 239 375 q 345 439 317 410 q 383 513 374 468 q 383 619 400 581 q 294 657 367 657 q 194 628 226 657 q 151 525 163 599 l 129 357 m 151 760 l 290 882 l 340 882 l 444 760 l 397 760 l 310 846 l 200 760 l 151 760 m 371 914 q 342 919 353 914 q 314 938 331 925 q 290 955 303 946 q 260 964 276 964 q 230 952 243 964 q 210 915 217 940 l 179 915 q 210 977 188 953 q 267 1001 233 1001 q 299 993 285 1001 q 329 974 314 985 q 353 959 342 965 q 378 953 364 953 q 408 963 396 953 q 428 999 421 974 l 461 999 q 427 938 451 961 q 371 914 403 914 z "},"ë":{"ha":476,"x_min":26,"x_max":474,"o":"m 192 -14 q 90 3 128 -14 q 39 60 51 19 q 38 179 26 101 l 88 532 q 152 663 101 629 q 292 697 203 697 q 436 655 399 697 q 453 511 474 613 q 399 413 439 450 q 306 354 358 375 q 203 324 253 333 q 122 313 153 315 l 101 165 q 109 60 90 90 q 196 31 128 31 q 292 60 265 31 q 329 165 319 89 l 340 244 l 406 244 l 396 172 q 364 58 386 99 q 301 2 342 18 q 192 -14 260 -14 m 129 357 q 199 367 160 360 q 278 392 239 375 q 345 439 317 410 q 383 513 374 468 q 383 619 400 581 q 294 657 367 657 q 194 628 226 657 q 151 525 163 599 l 129 357 m 242 776 q 213 788 225 776 q 201 815 201 799 q 213 842 201 832 q 242 853 225 853 q 269 842 258 853 q 281 815 281 832 q 269 788 281 799 q 242 776 258 776 m 367 776 q 338 788 350 776 q 326 815 326 799 q 338 842 326 832 q 367 853 350 853 q 395 842 383 853 q 407 815 407 832 q 395 788 407 799 q 367 776 383 776 z "},"ė":{"ha":476,"x_min":26,"x_max":474,"o":"m 192 -14 q 90 3 128 -14 q 39 60 51 19 q 38 179 26 101 l 88 532 q 152 663 101 629 q 292 697 203 697 q 436 655 399 697 q 453 511 474 613 q 399 413 439 450 q 306 354 358 375 q 203 324 253 333 q 122 313 153 315 l 101 165 q 109 60 90 90 q 196 31 128 31 q 292 60 265 31 q 329 165 319 89 l 340 244 l 406 244 l 396 172 q 364 58 386 99 q 301 2 342 18 q 192 -14 260 -14 m 129 357 q 199 367 160 360 q 278 392 239 375 q 345 439 317 410 q 383 513 374 468 q 383 619 400 581 q 294 657 367 657 q 194 628 226 657 q 151 525 163 599 l 129 357 m 306 774 q 274 786 288 774 q 261 817 261 799 q 274 847 261 835 q 306 860 288 860 q 337 847 324 860 q 350 817 350 835 q 337 786 350 799 q 306 774 324 774 z "},"ẹ":{"ha":476,"x_min":26,"x_max":474,"o":"m 192 -14 q 90 3 128 -14 q 39 60 51 19 q 38 179 26 101 l 88 532 q 152 663 101 629 q 292 697 203 697 q 436 655 399 697 q 453 511 474 613 q 399 413 439 450 q 306 354 358 375 q 203 324 253 333 q 122 313 153 315 l 101 165 q 109 60 90 90 q 196 31 128 31 q 292 60 265 31 q 329 165 319 89 l 340 244 l 406 244 l 396 172 q 364 58 386 99 q 301 2 342 18 q 192 -14 260 -14 m 129 357 q 199 367 160 360 q 278 392 239 375 q 345 439 317 410 q 383 513 374 468 q 383 619 400 581 q 294 657 367 657 q 194 628 226 657 q 151 525 163 599 l 129 357 m 175 -142 q 147 -130 158 -142 q 135 -101 135 -118 q 147 -75 135 -86 q 175 -64 158 -64 q 203 -75 192 -64 q 215 -101 215 -86 q 203 -130 215 -118 q 175 -142 192 -142 z "},"ф":{"ha":814,"x_min":26,"x_max":776,"o":"m 301 -161 l 333 53 q 276 8 313 25 q 183 -10 240 -10 q 54 42 82 -10 q 40 189 26 94 l 78 461 q 106 561 86 519 q 166 625 125 603 q 278 647 207 647 q 365 630 333 647 q 407 581 397 613 l 440 821 l 507 821 l 472 583 q 528 631 492 614 q 619 647 565 647 q 725 625 690 647 q 768 561 760 603 q 768 461 776 519 l 731 189 q 674 42 717 94 q 532 -10 632 -10 q 444 8 475 -10 q 400 54 413 25 l 368 -161 l 301 -161 m 201 31 q 287 53 257 31 q 331 110 317 76 q 350 175 346 143 l 389 453 q 392 524 394 489 q 365 583 389 560 q 283 607 342 607 q 201 586 229 607 q 161 531 172 565 q 144 457 150 497 l 106 182 q 103 106 100 140 q 129 51 107 72 q 201 31 151 31 m 525 31 q 603 51 575 31 q 644 106 631 72 q 664 182 657 140 l 701 457 q 705 531 707 497 q 681 585 703 564 q 604 607 658 607 q 521 585 551 607 q 476 532 490 564 q 457 465 463 500 l 417 179 q 417 112 413 146 q 447 54 422 78 q 525 31 471 31 z "},"è":{"ha":476,"x_min":26,"x_max":474,"o":"m 192 -14 q 90 3 128 -14 q 39 60 51 19 q 38 179 26 101 l 88 532 q 152 663 101 629 q 292 697 203 697 q 436 655 399 697 q 453 511 474 613 q 399 413 439 450 q 306 354 358 375 q 203 324 253 333 q 122 313 153 315 l 101 165 q 109 60 90 90 q 196 31 128 31 q 292 60 265 31 q 329 165 319 89 l 340 244 l 406 244 l 396 172 q 364 58 386 99 q 301 2 342 18 q 192 -14 260 -14 m 129 357 q 199 367 160 360 q 278 392 239 375 q 345 439 317 410 q 383 513 374 468 q 383 619 400 581 q 294 657 367 657 q 194 628 226 657 q 151 525 163 599 l 129 357 m 296 757 l 204 883 l 276 883 l 338 757 l 296 757 z "},"ẻ":{"ha":476,"x_min":26,"x_max":474,"o":"m 192 -14 q 90 3 128 -14 q 39 60 51 19 q 38 179 26 101 l 88 532 q 152 663 101 629 q 292 697 203 697 q 436 655 399 697 q 453 511 474 613 q 399 413 439 450 q 306 354 358 375 q 203 324 253 333 q 122 313 153 315 l 101 165 q 109 60 90 90 q 196 31 128 31 q 292 60 265 31 q 329 165 319 89 l 340 244 l 406 244 l 396 172 q 364 58 386 99 q 301 2 342 18 q 192 -14 260 -14 m 129 357 q 199 367 160 360 q 278 392 239 375 q 345 439 317 410 q 383 513 374 468 q 383 619 400 581 q 294 657 367 657 q 194 628 226 657 q 151 525 163 599 l 129 357 m 272 749 l 275 776 q 294 803 278 797 q 325 818 310 810 q 342 847 340 826 l 342 854 q 337 885 343 871 q 307 899 331 899 q 265 865 276 899 l 229 872 q 259 915 239 900 q 315 929 279 929 q 371 908 356 929 q 385 851 386 888 l 383 849 q 373 810 383 822 q 349 794 363 799 q 324 784 335 789 q 313 768 313 779 l 311 749 l 272 749 z "},"л":{"ha":544,"x_min":-24,"x_max":514,"o":"m -24 0 l -17 40 q 17 51 1 40 q 45 85 33 63 q 64 144 57 108 l 186 686 l 514 686 l 417 0 l 347 0 l 438 636 l 246 636 l 128 124 q 117 87 124 108 q 97 46 110 65 q 63 13 85 26 q 11 0 42 0 l -24 0 z "},"…":{"ha":611,"x_min":24,"x_max":500,"o":"m 64 -8 q 35 4 46 -8 q 25 35 24 17 q 44 66 29 53 q 76 79 58 79 q 107 66 94 79 q 117 35 119 53 q 99 4 114 17 q 64 -8 83 -8 m 258 -10 q 228 3 240 -10 q 218 33 217 17 q 237 65 222 51 q 269 78 251 78 q 301 65 289 78 q 310 33 313 51 q 292 3 307 17 q 258 -10 276 -10 m 446 -10 q 416 3 428 -10 q 406 33 404 17 q 424 65 410 51 q 457 78 439 78 q 488 65 476 78 q 497 33 500 51 q 479 3 494 17 q 446 -10 464 -10 z "},"м":{"ha":646,"x_min":14,"x_max":633,"o":"m 14 0 l 111 688 l 186 688 l 289 90 l 561 688 l 633 688 l 536 0 l 478 0 l 556 550 l 301 0 l 249 0 l 150 550 l 72 0 l 14 0 z "},"ē":{"ha":476,"x_min":26,"x_max":474,"o":"m 192 -14 q 90 3 128 -14 q 39 60 51 19 q 38 179 26 101 l 88 532 q 152 663 101 629 q 292 697 203 697 q 436 655 399 697 q 453 511 474 613 q 399 413 439 450 q 306 354 358 375 q 203 324 253 333 q 122 313 153 315 l 101 165 q 109 60 90 90 q 196 31 128 31 q 292 60 265 31 q 329 165 319 89 l 340 244 l 406 244 l 396 172 q 364 58 386 99 q 301 2 342 18 q 192 -14 260 -14 m 129 357 q 199 367 160 360 q 278 392 239 375 q 345 439 317 410 q 383 513 374 468 q 383 619 400 581 q 294 657 367 657 q 194 628 226 657 q 151 525 163 599 l 129 357 m 174 788 l 179 826 l 429 826 l 425 788 l 174 788 z "},"—":{"ha":811,"x_min":28,"x_max":783,"o":"m 28 336 l 33 386 l 783 386 l 778 336 l 28 336 z "},"∅":{"ha":567,"x_min":3,"x_max":631,"o":"m 3 88 l 540 781 l 572 781 l 33 88 l 3 88 m 217 -17 q 120 10 160 -17 q 68 91 81 36 q 79 232 56 146 l 182 593 q 293 774 215 715 q 458 832 371 832 q 588 773 544 832 q 597 593 631 714 l 496 232 q 428 89 471 144 q 331 8 386 33 q 217 -17 275 -17 m 229 26 q 344 74 290 26 q 422 210 397 122 l 532 604 q 531 740 558 692 q 444 788 504 788 q 331 740 385 788 q 251 604 276 692 l 142 210 q 144 74 117 122 q 229 26 171 26 z "},"н":{"ha":500,"x_min":14,"x_max":486,"o":"m 14 0 l 111 688 l 178 688 l 135 388 l 378 388 l 421 688 l 486 688 l 389 0 l 324 0 l 371 336 l 128 336 l 81 0 l 14 0 z "},"–":{"ha":483,"x_min":28,"x_max":456,"o":"m 28 336 l 33 386 l 456 386 l 449 336 l 28 336 z "},"ŋ":{"ha":510,"x_min":31,"x_max":472,"o":"m 199 -154 q 178 -153 189 -154 q 161 -150 167 -153 l 167 -112 q 174 -113 168 -112 q 188 -115 181 -114 q 200 -115 196 -115 q 284 -97 253 -115 q 325 -24 315 -79 l 399 504 q 404 558 401 532 q 400 604 407 583 q 372 637 393 625 q 306 649 350 649 q 239 634 264 649 q 199 599 214 619 q 178 563 185 579 l 97 0 l 31 0 l 128 688 l 182 688 l 181 615 q 244 680 203 661 q 329 699 286 699 q 417 683 386 699 q 459 642 447 668 q 472 584 471 617 q 468 517 472 551 l 393 -10 q 357 -103 385 -71 q 289 -144 329 -135 q 199 -154 249 -154 z "},"ę":{"ha":476,"x_min":26,"x_max":474,"o":"m 192 -14 q 90 3 128 -14 q 39 60 51 19 q 38 179 26 101 l 88 532 q 152 663 101 629 q 292 697 203 697 q 436 655 399 697 q 453 511 474 613 q 399 413 439 450 q 306 354 358 375 q 203 324 253 333 q 122 313 153 315 l 101 165 q 109 60 90 90 q 196 31 128 31 q 292 60 265 31 q 329 165 319 89 l 340 244 l 406 244 l 396 172 q 364 58 386 99 q 301 2 342 18 q 192 -14 260 -14 m 129 357 q 199 367 160 360 q 278 392 239 375 q 345 439 317 410 q 383 513 374 468 q 383 619 400 581 q 294 657 367 657 q 194 628 226 657 q 151 525 163 599 l 129 357 m 200 -185 q 140 -162 164 -185 q 121 -106 117 -140 q 158 -39 128 -67 q 221 0 189 -11 l 260 0 q 198 -44 221 -18 q 171 -97 175 -71 q 183 -139 167 -125 q 217 -153 199 -153 q 240 -149 229 -153 q 256 -143 250 -146 l 263 -169 q 238 -179 253 -174 q 200 -185 222 -185 z "},"=":{"ha":569,"x_min":44,"x_max":525,"o":"m 88 524 l 94 575 l 525 575 l 518 524 l 88 524 m 44 226 l 51 279 l 482 279 l 475 226 l 44 226 z "},"р":{"ha":504,"x_min":10,"x_max":475,"o":"m 10 -161 l 128 688 l 188 688 l 183 625 q 231 676 200 656 q 328 697 263 697 q 430 674 399 697 q 468 610 461 650 q 467 521 475 571 l 419 181 q 395 85 413 128 q 340 16 378 42 q 229 -10 301 -10 q 146 7 176 -10 q 104 47 115 24 l 75 -161 l 10 -161 m 218 35 q 303 56 276 35 q 339 110 329 78 q 353 178 349 143 l 399 508 q 404 560 403 535 q 399 607 406 586 q 371 640 393 628 q 304 651 349 651 q 235 635 261 651 q 196 594 210 619 q 176 540 182 569 q 167 483 169 510 l 122 168 q 119 101 117 132 q 142 53 121 71 q 218 35 164 35 z "},"э":{"ha":501,"x_min":33,"x_max":468,"o":"m 203 -11 q 106 2 142 -11 q 53 42 69 15 q 35 105 38 68 q 40 189 33 142 l 47 240 l 114 240 l 106 176 q 102 103 100 136 q 127 49 104 69 q 208 29 150 29 q 296 51 268 29 q 334 106 324 72 q 349 175 344 139 l 369 329 l 156 329 l 161 374 l 376 374 l 396 511 q 401 563 400 538 q 395 610 403 589 q 365 645 388 632 q 297 658 342 658 q 210 638 239 658 q 169 585 181 618 q 153 510 158 551 l 144 457 l 78 457 l 86 511 q 113 608 93 565 q 176 674 132 650 q 303 699 221 699 q 400 683 365 699 q 450 642 435 668 q 467 583 465 617 q 463 514 468 550 l 417 186 q 390 85 410 131 q 328 15 371 40 q 203 -11 285 -11 z "},"с":{"ha":476,"x_min":29,"x_max":461,"o":"m 192 -14 q 110 -6 143 -14 q 58 24 76 3 q 34 83 39 46 q 38 179 29 121 l 88 532 q 147 665 101 629 q 292 701 193 701 q 425 665 389 701 q 447 532 461 629 l 435 446 l 368 446 l 381 536 q 372 631 390 601 q 286 660 354 660 q 191 631 218 660 q 154 536 164 601 l 101 160 q 110 58 92 88 q 196 29 128 29 q 292 58 265 29 q 328 160 318 88 l 342 250 l 408 250 l 399 179 q 364 60 388 101 q 299 2 340 18 q 192 -14 257 -14 z "},"ð":{"ha":490,"x_min":28,"x_max":506,"o":"m 186 -11 q 127 -7 157 -11 q 73 14 97 -3 q 38 67 49 31 q 36 167 28 103 l 85 513 q 124 626 97 589 q 192 673 151 663 q 278 683 232 683 q 348 673 313 683 q 394 633 383 663 q 401 763 403 710 q 376 844 400 817 q 288 872 353 872 q 217 866 250 872 q 160 854 183 860 l 167 900 q 222 913 188 904 q 303 921 257 921 q 434 881 397 921 q 470 761 471 842 q 453 557 469 681 l 403 218 q 384 133 397 174 q 347 60 371 92 q 283 8 322 28 q 186 -11 244 -11 m 192 29 q 272 56 243 29 q 315 122 300 82 q 335 199 329 161 l 386 561 q 379 590 388 569 q 347 627 371 610 q 276 644 324 644 q 204 627 229 644 q 169 581 179 610 q 153 511 158 551 l 100 144 q 103 81 94 104 q 128 47 113 57 q 161 33 143 36 q 192 29 179 29 m 254 743 l 235 771 l 486 961 l 506 932 l 254 743 z "},"ẽ":{"ha":476,"x_min":26,"x_max":474,"o":"m 192 -14 q 90 3 128 -14 q 39 60 51 19 q 38 179 26 101 l 88 532 q 152 663 101 629 q 292 697 203 697 q 436 655 399 697 q 453 511 474 613 q 399 413 439 450 q 306 354 358 375 q 203 324 253 333 q 122 313 153 315 l 101 165 q 109 60 90 90 q 196 31 128 31 q 292 60 265 31 q 329 165 319 89 l 340 244 l 406 244 l 396 172 q 364 58 386 99 q 301 2 342 18 q 192 -14 260 -14 m 129 357 q 199 367 160 360 q 278 392 239 375 q 345 439 317 410 q 383 513 374 468 q 383 619 400 581 q 294 657 367 657 q 194 628 226 657 q 151 525 163 599 l 129 357 m 356 771 q 326 776 338 771 q 299 794 315 782 q 274 812 288 803 q 244 821 261 821 q 215 809 228 821 q 194 772 201 797 l 164 772 q 195 834 172 810 q 251 858 218 858 q 284 850 269 858 q 314 831 299 842 q 338 816 326 822 q 363 810 349 810 q 393 820 381 810 q 413 856 406 831 l 446 856 q 412 794 436 818 q 356 771 388 771 z "},"€":{"ha":628,"x_min":50,"x_max":610,"o":"m 303 -17 q 202 -3 246 -17 q 139 52 158 10 q 131 181 119 94 l 151 329 l 50 329 l 69 361 l 156 361 l 168 453 l 67 453 l 86 486 l 174 486 l 197 650 q 240 767 207 728 q 319 819 272 806 q 424 832 367 832 q 524 818 481 832 q 589 766 568 804 q 599 650 610 728 l 593 610 l 525 610 l 531 650 q 526 740 539 711 q 484 779 513 769 q 417 789 456 789 q 346 779 378 789 q 293 740 314 769 q 263 650 272 711 l 240 486 l 456 486 l 433 453 l 236 453 l 224 361 l 383 361 l 364 329 l 217 329 l 194 165 q 199 75 186 104 q 242 36 213 46 q 310 26 271 26 q 381 36 350 26 q 433 75 411 46 q 463 165 454 104 l 474 240 l 542 240 l 532 181 q 489 51 521 93 q 409 -3 457 10 q 303 -17 361 -17 z "},"!":{"ha":229,"x_min":10,"x_max":211,"o":"m 69 269 l 89 501 l 140 875 l 211 875 l 156 504 l 110 269 l 69 269 m 53 -8 q 22 5 33 -8 q 13 38 10 18 q 31 67 15 54 q 65 81 46 81 q 98 67 85 81 q 108 38 111 54 q 89 5 106 18 q 53 -8 72 -8 z "},"¡":{"ha":229,"x_min":29,"x_max":211,"o":"m 111 414 l 151 414 l 140 179 l 101 -192 l 29 -192 l 74 181 l 111 414 m 165 690 q 197 678 183 690 q 210 646 211 665 q 193 616 208 629 q 158 603 178 603 q 126 616 138 603 q 114 646 114 629 q 131 678 117 665 q 165 690 146 690 z "},"f":{"ha":313,"x_min":33,"x_max":385,"o":"m 33 0 l 121 618 l 78 618 l 83 661 l 126 661 l 140 750 q 164 826 146 797 q 211 869 182 856 q 276 882 240 882 q 318 881 297 882 q 358 878 339 881 q 385 876 376 876 l 381 835 q 350 838 381 835 q 285 842 319 842 q 228 811 247 842 q 206 747 210 781 l 193 661 l 354 661 l 349 618 l 188 618 l 100 0 l 33 0 z "},"ﬁ":{"ha":528,"x_min":33,"x_max":531,"o":"m 33 0 l 121 618 l 78 618 l 83 661 l 126 661 l 140 750 q 164 826 146 797 q 211 869 182 856 q 276 882 240 882 q 318 881 297 882 q 358 878 339 881 q 385 876 376 876 l 381 835 q 350 838 381 835 q 285 842 319 842 q 228 811 247 842 q 206 747 210 781 l 193 661 l 354 661 l 349 618 l 188 618 l 100 0 l 33 0 m 335 0 l 432 688 l 497 688 l 400 0 l 335 0 m 486 774 q 455 786 468 774 q 442 817 442 799 q 455 847 442 835 q 486 860 468 860 q 517 847 504 860 q 531 817 531 835 q 517 786 531 799 q 486 774 504 774 z "},"ﬂ":{"ha":536,"x_min":33,"x_max":532,"o":"m 33 0 l 121 618 l 78 618 l 83 661 l 126 661 l 140 750 q 164 826 146 797 q 211 869 182 856 q 276 882 240 882 q 318 881 297 882 q 358 878 339 881 q 385 876 376 876 l 381 835 q 350 838 381 835 q 285 842 319 842 q 228 811 247 842 q 206 747 210 781 l 193 661 l 354 661 l 349 618 l 188 618 l 100 0 l 33 0 m 343 0 l 468 882 l 533 882 l 408 0 l 343 0 z "},"ƒ":{"ha":421,"x_min":-210,"x_max":476,"o":"m -110 -204 q -149 -203 -128 -204 q -187 -200 -169 -201 q -210 -199 -204 -199 l -200 -154 l -114 -160 q -57 -147 -79 -161 q -21 -106 -35 -132 q 3 -47 -7 -81 l 163 561 l 94 561 l 104 601 l 172 601 l 211 740 q 265 840 229 806 q 358 874 301 874 q 389 874 372 874 q 422 873 406 874 q 453 871 439 872 q 476 868 468 869 l 465 826 q 429 831 456 829 q 372 832 403 832 q 305 800 326 832 q 274 732 283 768 l 236 601 l 388 601 l 379 561 l 228 561 l 64 -62 q 4 -167 46 -131 q -110 -204 -37 -204 z "},"⁴":{"ha":329,"x_min":19,"x_max":317,"o":"m 194 328 l 208 428 l 19 428 l 25 468 l 268 821 l 314 821 l 264 464 l 317 464 l 311 428 l 258 428 l 244 328 l 194 328 m 69 464 l 214 464 l 250 721 l 69 464 z "},"⁄":{"ha":418,"x_min":-153,"x_max":458,"o":"m -153 0 l 406 814 l 458 814 l -103 0 l -153 0 z "},"₣":{"ha":524,"x_min":31,"x_max":531,"o":"m 67 0 l 97 208 l 31 208 l 35 246 l 103 246 l 183 821 l 531 821 l 524 771 l 246 771 l 200 457 l 419 457 l 413 404 l 193 404 l 171 246 l 304 246 l 300 208 l 167 208 l 136 0 l 67 0 z "},"g":{"ha":490,"x_min":33,"x_max":469,"o":"m 156 -162 q 122 -161 140 -162 q 85 -158 103 -160 q 54 -154 67 -156 q 38 -151 42 -153 l 43 -111 q 88 -117 58 -112 q 142 -121 117 -121 q 184 -118 158 -121 q 236 -102 210 -115 q 283 -58 263 -89 q 313 31 304 -28 l 325 124 q 291 74 313 94 q 240 42 269 53 q 172 31 211 31 q 122 35 149 31 q 74 55 96 39 q 43 106 53 71 q 42 206 33 142 l 88 532 q 124 639 99 604 q 185 685 149 674 q 264 697 222 697 q 322 692 293 697 q 371 672 350 686 q 396 629 392 657 l 413 685 l 469 685 l 381 47 q 353 -48 372 -8 q 303 -112 333 -87 q 235 -150 272 -137 q 156 -162 197 -162 m 197 75 q 278 101 249 75 q 322 166 307 126 q 340 244 336 206 l 388 579 q 374 612 385 594 q 342 642 364 629 q 278 654 319 654 q 192 627 221 654 q 154 528 163 600 l 107 190 q 110 126 101 150 q 135 92 118 103 q 169 78 151 82 q 197 75 186 75 z "},"ğ":{"ha":490,"x_min":33,"x_max":469,"o":"m 156 -162 q 122 -161 140 -162 q 85 -158 103 -160 q 54 -154 67 -156 q 38 -151 42 -153 l 43 -111 q 88 -117 58 -112 q 142 -121 117 -121 q 184 -118 158 -121 q 236 -102 210 -115 q 283 -58 263 -89 q 313 31 304 -28 l 325 124 q 291 74 313 94 q 240 42 269 53 q 172 31 211 31 q 122 35 149 31 q 74 55 96 39 q 43 106 53 71 q 42 206 33 142 l 88 532 q 124 639 99 604 q 185 685 149 674 q 264 697 222 697 q 322 692 293 697 q 371 672 350 686 q 396 629 392 657 l 413 685 l 469 685 l 381 47 q 353 -48 372 -8 q 303 -112 333 -87 q 235 -150 272 -137 q 156 -162 197 -162 m 197 75 q 278 101 249 75 q 322 166 307 126 q 340 244 336 206 l 388 579 q 374 612 385 594 q 342 642 364 629 q 278 654 319 654 q 192 627 221 654 q 154 528 163 600 l 107 190 q 110 126 101 150 q 135 92 118 103 q 169 78 151 82 q 197 75 186 75 m 303 756 q 242 768 265 756 q 206 799 218 781 q 191 838 194 817 q 189 875 188 858 l 231 875 q 253 814 232 835 q 308 793 274 793 q 373 813 346 793 q 411 875 400 833 l 453 875 q 430 822 447 850 q 381 775 413 794 q 303 756 350 756 z "},"ģ":{"ha":490,"x_min":33,"x_max":469,"o":"m 375 917 q 340 864 353 886 q 328 831 328 842 q 333 818 328 824 q 342 806 338 813 q 347 788 347 800 q 335 765 346 776 q 307 754 324 754 q 281 765 292 754 q 272 789 271 775 q 285 827 274 804 q 313 874 296 850 q 344 917 329 899 l 375 917 m 156 -162 q 122 -161 140 -162 q 85 -158 103 -160 q 54 -154 67 -156 q 38 -151 42 -153 l 43 -111 q 88 -117 58 -112 q 142 -121 117 -121 q 184 -118 158 -121 q 236 -102 210 -115 q 283 -58 263 -89 q 313 31 304 -28 l 325 124 q 291 74 313 94 q 240 42 269 53 q 172 31 211 31 q 122 35 149 31 q 74 55 96 39 q 43 106 53 71 q 42 206 33 142 l 88 532 q 124 639 99 604 q 185 685 149 674 q 264 697 222 697 q 322 692 293 697 q 371 672 350 686 q 396 629 392 657 l 413 685 l 469 685 l 381 47 q 353 -48 372 -8 q 303 -112 333 -87 q 235 -150 272 -137 q 156 -162 197 -162 m 197 75 q 278 101 249 75 q 322 166 307 126 q 340 244 336 206 l 388 579 q 374 612 385 594 q 342 642 364 629 q 278 654 319 654 q 192 627 221 654 q 154 528 163 600 l 107 190 q 110 126 101 150 q 135 92 118 103 q 169 78 151 82 q 197 75 186 75 z "},"ġ":{"ha":490,"x_min":33,"x_max":469,"o":"m 156 -162 q 122 -161 140 -162 q 85 -158 103 -160 q 54 -154 67 -156 q 38 -151 42 -153 l 43 -111 q 88 -117 58 -112 q 142 -121 117 -121 q 184 -118 158 -121 q 236 -102 210 -115 q 283 -58 263 -89 q 313 31 304 -28 l 325 124 q 291 74 313 94 q 240 42 269 53 q 172 31 211 31 q 122 35 149 31 q 74 55 96 39 q 43 106 53 71 q 42 206 33 142 l 88 532 q 124 639 99 604 q 185 685 149 674 q 264 697 222 697 q 322 692 293 697 q 371 672 350 686 q 396 629 392 657 l 413 685 l 469 685 l 381 47 q 353 -48 372 -8 q 303 -112 333 -87 q 235 -150 272 -137 q 156 -162 197 -162 m 197 75 q 278 101 249 75 q 322 166 307 126 q 340 244 336 206 l 388 579 q 374 612 385 594 q 342 642 364 629 q 278 654 319 654 q 192 627 221 654 q 154 528 163 600 l 107 190 q 110 126 101 150 q 135 92 118 103 q 169 78 151 82 q 197 75 186 75 m 311 774 q 280 786 293 774 q 267 817 267 799 q 280 847 267 835 q 311 860 293 860 q 342 847 329 860 q 356 817 356 835 q 342 786 356 799 q 311 774 329 774 z "},"г":{"ha":396,"x_min":31,"x_max":439,"o":"m 31 0 l 128 688 l 439 688 l 431 636 l 189 636 l 101 0 l 31 0 z "},"ß":{"ha":521,"x_min":-126,"x_max":536,"o":"m -56 -204 q -93 -202 -71 -204 q -126 -199 -115 -200 q -126 -190 -126 -196 q -124 -178 -125 -185 q -122 -165 -124 -171 q -121 -157 -121 -160 l -101 -160 q -85 -162 -94 -161 q -61 -162 -75 -162 q 11 -133 -10 -162 q 38 -64 32 -104 l 136 638 l 90 638 l 97 688 l 144 688 l 149 725 q 176 811 157 778 q 237 860 194 844 q 357 876 279 876 q 492 847 449 876 q 525 740 536 817 l 507 608 q 469 514 499 550 q 407 475 439 478 l 406 469 q 449 451 429 467 q 481 408 469 436 q 486 339 493 381 l 463 168 q 425 60 453 96 q 356 12 397 24 q 260 0 314 0 l 160 0 l 165 42 l 258 42 q 323 53 296 42 q 369 96 350 64 q 396 192 388 128 l 415 332 q 408 402 422 376 q 366 438 394 428 q 300 449 338 449 l 244 449 l 250 490 l 324 490 q 409 524 385 490 q 442 615 433 558 l 457 725 q 440 810 465 782 q 351 838 415 838 q 269 820 297 838 q 231 778 242 803 q 215 726 219 753 l 106 -53 q 86 -122 100 -93 q 51 -169 72 -150 q 3 -196 31 -187 q -56 -204 -24 -204 z "},"ѓ":{"ha":396,"x_min":31,"x_max":439,"o":"m 31 0 l 128 688 l 439 688 l 431 636 l 189 636 l 101 0 l 31 0 m 250 757 l 338 883 l 411 883 l 292 757 l 250 757 z "},"`":{"ha":151,"x_min":76,"x_max":210,"o":"m 168 757 l 76 883 l 149 883 l 210 757 l 168 757 z "},"̀":{"ha":0,"x_min":76,"x_max":210,"o":"m 168 757 l 76 883 l 149 883 l 210 757 l 168 757 z "},">":{"ha":479,"x_min":40,"x_max":408,"o":"m 40 206 l 50 276 l 343 454 l 100 635 l 110 703 l 408 481 l 400 429 l 40 206 z "},"≥":{"ha":492,"x_min":32,"x_max":456,"o":"m 57 214 l 68 258 l 413 453 l 178 650 l 189 693 l 456 472 l 444 435 l 57 214 m 32 -1 l 40 28 l 356 28 l 349 -1 l 32 -1 z "},"«":{"ha":639,"x_min":63,"x_max":611,"o":"m 460 153 l 324 397 l 543 660 l 611 660 l 394 397 l 528 153 l 460 153 m 197 153 l 63 397 l 282 660 l 350 660 l 133 397 l 267 153 l 197 153 z "},"»":{"ha":639,"x_min":40,"x_max":575,"o":"m 303 153 l 504 397 l 361 660 l 428 660 l 575 397 l 371 153 l 303 153 m 40 153 l 243 397 l 100 660 l 168 660 l 313 397 l 108 153 l 40 153 z "},"‹":{"ha":376,"x_min":63,"x_max":349,"o":"m 197 153 l 63 397 l 281 660 l 349 660 l 133 397 l 267 153 l 197 153 z "},"›":{"ha":376,"x_min":39,"x_max":311,"o":"m 39 153 l 242 397 l 100 660 l 168 660 l 311 397 l 107 153 l 39 153 z "},"h":{"ha":510,"x_min":32,"x_max":472,"o":"m 32 0 l 154 875 l 218 875 l 183 633 q 241 681 204 664 q 329 699 278 699 q 417 683 386 699 q 460 642 447 668 q 472 584 472 617 q 468 517 472 551 l 396 0 l 329 0 l 399 501 q 404 549 403 524 q 399 595 406 574 q 370 631 392 617 q 304 646 349 646 q 237 633 264 646 q 196 601 210 619 q 179 571 182 583 l 99 0 l 32 0 z "},"х":{"ha":418,"x_min":-35,"x_max":446,"o":"m -35 0 q 6 110 -22 53 q 67 222 33 168 q 133 314 101 275 q 182 367 164 353 q 141 420 161 383 q 106 505 121 457 q 85 601 92 553 q 82 688 78 650 l 140 688 q 148 583 138 639 q 179 481 158 526 q 224 417 200 436 q 263 455 239 424 q 313 528 288 486 q 358 613 338 571 q 383 688 378 656 l 446 688 q 409 592 435 643 q 353 492 383 540 q 296 410 324 444 q 253 367 268 376 q 289 321 269 357 q 326 232 308 285 q 356 119 344 179 q 367 0 368 58 l 300 0 q 292 90 300 42 q 271 182 285 138 q 241 258 257 226 q 210 301 225 290 q 159 249 193 290 q 88 144 125 208 q 28 0 51 81 l -35 0 z "},"ъ":{"ha":531,"x_min":47,"x_max":478,"o":"m 50 0 l 140 643 l 47 643 l 56 688 l 215 688 l 185 471 l 326 471 q 423 451 389 471 q 467 393 457 432 q 468 294 478 354 l 456 201 q 434 108 449 147 q 395 46 419 69 q 337 11 371 22 q 254 0 303 0 l 50 0 m 124 40 l 249 40 q 328 60 300 40 q 369 113 356 79 q 388 188 382 147 l 400 281 q 404 351 407 318 q 380 406 401 385 q 303 426 358 426 l 179 426 l 124 40 z "},"ħ":{"ha":493,"x_min":32,"x_max":472,"o":"m 42 767 l 49 806 l 282 806 l 276 767 l 42 767 m 32 0 l 154 875 l 218 875 l 183 633 q 241 681 204 664 q 329 699 278 699 q 417 683 386 699 q 460 642 447 668 q 472 584 472 617 q 468 517 472 551 l 396 0 l 329 0 l 399 501 q 404 549 403 524 q 399 595 406 574 q 370 631 392 617 q 304 646 349 646 q 237 633 264 646 q 196 601 210 619 q 179 571 182 583 l 99 0 l 32 0 z "},"̉":{"ha":0,"x_min":76,"x_max":233,"o":"m 119 749 l 122 776 q 141 803 125 797 q 172 818 157 810 q 189 847 188 826 l 189 854 q 184 885 190 871 q 154 899 178 899 q 113 865 124 899 l 76 872 q 106 915 86 900 q 163 929 126 929 q 218 908 203 929 q 232 851 233 888 l 231 849 q 220 810 231 822 q 196 794 210 799 q 171 784 182 789 q 160 768 160 779 l 158 749 l 119 749 z "},"̛":{"ha":0,"x_min":47,"x_max":192,"o":"m 47 643 l 47 678 l 63 678 q 140 740 132 678 l 143 763 l 192 763 l 190 746 q 146 668 183 694 q 47 643 108 642 z "},"˝":{"ha":199,"x_min":58,"x_max":274,"o":"m 58 757 l 115 883 l 179 883 l 90 757 l 58 757 m 149 757 l 211 883 l 274 883 l 183 757 l 149 757 z "},"̋":{"ha":0,"x_min":58,"x_max":274,"o":"m 58 757 l 115 883 l 179 883 l 90 757 l 58 757 m 149 757 l 211 883 l 274 883 l 183 757 l 149 757 z "},"-":{"ha":407,"x_min":60,"x_max":347,"o":"m 60 336 l 67 386 l 347 386 l 342 336 l 60 336 z "},"i":{"ha":224,"x_min":31,"x_max":226,"o":"m 31 0 l 128 688 l 193 688 l 96 0 l 31 0 m 182 774 q 151 786 164 774 q 138 817 138 799 q 151 847 138 835 q 182 860 164 860 q 213 847 200 860 q 226 817 226 835 q 213 786 226 799 q 182 774 200 774 z "},"і":{"ha":224,"x_min":31,"x_max":226,"o":"m 31 0 l 128 688 l 193 688 l 96 0 l 31 0 m 182 774 q 151 786 164 774 q 138 817 138 799 q 151 847 138 835 q 182 860 164 860 q 213 847 200 860 q 226 817 226 835 q 213 786 226 799 q 182 774 200 774 z "},"я":{"ha":529,"x_min":8,"x_max":514,"o":"m 8 0 l 131 243 q 175 306 151 282 q 228 333 199 331 q 129 376 160 338 q 108 493 99 415 l 115 540 q 176 653 128 619 q 292 688 224 688 l 514 688 l 417 0 l 347 0 l 393 326 l 292 318 q 231 275 257 310 q 179 189 204 240 l 86 0 l 8 0 m 288 361 l 399 361 l 438 644 l 293 644 q 222 617 254 644 q 182 539 190 590 l 176 493 q 197 392 167 422 q 288 361 226 361 z "},"í":{"ha":224,"x_min":31,"x_max":286,"o":"m 31 0 l 128 688 l 193 688 l 96 0 l 31 0 m 126 757 l 214 883 l 288 883 l 168 757 l 126 757 z "},"ǐ":{"ha":224,"x_min":31,"x_max":344,"o":"m 31 0 l 128 688 l 193 688 l 96 0 l 31 0 m 156 760 l 51 882 l 99 882 l 185 796 l 297 882 l 344 882 l 204 760 l 156 760 z "},"î":{"ha":224,"x_min":28,"x_max":321,"o":"m 31 0 l 128 688 l 193 688 l 96 0 l 31 0 m 28 760 l 167 882 l 217 882 l 321 760 l 274 760 l 186 846 l 76 760 l 28 760 z "},"ï":{"ha":224,"x_min":31,"x_max":283,"o":"m 31 0 l 128 688 l 193 688 l 96 0 l 31 0 m 118 776 q 90 788 101 776 q 78 815 78 799 q 90 842 78 832 q 118 853 101 853 q 146 842 135 853 q 157 815 157 832 q 146 788 157 799 q 118 776 135 776 m 243 776 q 215 788 226 776 q 203 815 203 799 q 215 842 203 832 q 243 853 226 853 q 272 842 260 853 q 283 815 283 832 q 272 788 283 799 q 243 776 260 776 z "},"ị":{"ha":224,"x_min":13,"x_max":226,"o":"m 31 0 l 128 688 l 193 688 l 96 0 l 31 0 m 182 774 q 151 786 164 774 q 138 817 138 799 q 151 847 138 835 q 182 860 164 860 q 213 847 200 860 q 226 817 226 835 q 213 786 226 799 q 182 774 200 774 m 53 -142 q 24 -130 36 -142 q 13 -101 13 -118 q 24 -75 13 -86 q 53 -64 36 -64 q 81 -75 69 -64 q 93 -101 93 -86 q 81 -130 93 -118 q 53 -142 69 -142 z "},"ı":{"ha":224,"x_min":31,"x_max":193,"o":"m 31 0 l 128 688 l 193 688 l 96 0 l 31 0 z "},"е":{"ha":476,"x_min":26,"x_max":474,"o":"m 192 -14 q 90 3 128 -14 q 39 60 51 19 q 38 179 26 101 l 88 532 q 152 663 101 629 q 292 697 203 697 q 436 655 399 697 q 453 511 474 613 q 399 413 439 450 q 306 354 358 375 q 203 324 253 333 q 122 313 153 315 l 101 165 q 109 60 90 90 q 196 31 128 31 q 292 60 265 31 q 329 165 319 89 l 340 244 l 406 244 l 396 172 q 364 58 386 99 q 301 2 342 18 q 192 -14 260 -14 m 129 357 q 199 367 160 360 q 278 392 239 375 q 345 439 317 410 q 383 513 374 468 q 383 619 400 581 q 294 657 367 657 q 194 628 226 657 q 151 525 163 599 l 129 357 z "},"ѐ":{"ha":476,"x_min":26,"x_max":474,"o":"m 192 -14 q 90 3 128 -14 q 39 60 51 19 q 38 179 26 101 l 88 532 q 152 663 101 629 q 292 697 203 697 q 436 655 399 697 q 453 511 474 613 q 399 413 439 450 q 306 354 358 375 q 203 324 253 333 q 122 313 153 315 l 101 165 q 109 60 90 90 q 196 31 128 31 q 292 60 265 31 q 329 165 319 89 l 340 244 l 406 244 l 396 172 q 364 58 386 99 q 301 2 342 18 q 192 -14 260 -14 m 129 357 q 199 367 160 360 q 278 392 239 375 q 345 439 317 410 q 383 513 374 468 q 383 619 400 581 q 294 657 367 657 q 194 628 226 657 q 151 525 163 599 l 129 357 m 296 757 l 204 883 l 276 883 l 338 757 l 296 757 z "},"ì":{"ha":224,"x_min":31,"x_max":215,"o":"m 31 0 l 128 688 l 193 688 l 96 0 l 31 0 m 174 757 l 82 883 l 154 883 l 215 757 l 174 757 z "},"ỉ":{"ha":224,"x_min":31,"x_max":263,"o":"m 31 0 l 128 688 l 193 688 l 96 0 l 31 0 m 149 749 l 151 776 q 170 803 154 797 q 201 818 186 810 q 218 847 217 826 l 218 854 q 213 885 219 871 q 183 899 207 899 q 142 865 153 899 l 106 872 q 135 915 115 900 q 192 929 156 929 q 247 908 232 929 q 261 851 263 888 l 260 849 q 249 810 260 822 q 225 794 239 799 q 200 784 211 789 q 189 768 189 779 l 188 749 l 149 749 z "},"и":{"ha":531,"x_min":31,"x_max":500,"o":"m 31 0 l 128 686 l 189 686 l 110 124 l 438 686 l 500 686 l 403 0 l 343 0 l 424 576 q 258 288 340 431 q 89 0 175 144 l 31 0 z "},"ѝ":{"ha":531,"x_min":31,"x_max":500,"o":"m 31 0 l 128 686 l 189 686 l 110 124 l 438 686 l 500 686 l 403 0 l 343 0 l 424 576 q 258 288 340 431 q 89 0 175 144 l 31 0 m 324 757 l 232 883 l 304 883 l 365 757 l 324 757 z "},"й":{"ha":531,"x_min":31,"x_max":500,"o":"m 31 0 l 128 686 l 189 686 l 110 124 l 438 686 l 500 686 l 403 0 l 343 0 l 424 576 q 258 288 340 431 q 89 0 175 144 l 31 0 m 324 756 q 263 768 286 756 q 227 799 239 781 q 212 838 215 817 q 210 875 208 858 l 251 875 q 274 814 253 835 q 329 793 294 793 q 394 813 367 793 q 432 875 421 833 l 474 875 q 451 822 468 850 q 402 775 433 794 q 324 756 371 756 z "},"ī":{"ha":224,"x_min":31,"x_max":307,"o":"m 31 0 l 128 688 l 193 688 l 96 0 l 31 0 m 51 788 l 57 826 l 307 826 l 303 788 l 51 788 z "},"∞":{"ha":992,"x_min":49,"x_max":942,"o":"m 203 140 q 85 188 122 140 q 63 335 49 236 q 122 478 75 424 q 258 532 169 532 q 341 516 306 532 q 413 463 376 500 q 501 368 450 426 q 617 465 571 429 q 702 516 663 500 q 789 532 742 532 q 910 478 878 532 q 929 335 942 424 q 869 194 917 247 q 735 140 822 140 q 651 157 688 140 q 578 210 615 174 q 492 306 542 247 q 376 208 424 244 q 290 156 329 172 q 203 140 250 140 m 210 188 q 322 225 267 188 q 458 338 378 263 q 397 403 428 369 q 333 459 367 436 q 253 482 299 482 q 155 440 190 482 q 110 333 119 397 q 124 231 101 274 q 210 188 147 188 m 739 189 q 835 229 799 189 q 882 338 872 269 q 867 442 890 399 q 782 485 844 485 q 732 478 754 485 q 685 456 710 471 q 624 411 660 440 q 533 335 589 382 q 612 250 581 282 q 672 203 643 218 q 739 189 701 189 z "},"∫":{"ha":535,"x_min":-211,"x_max":588,"o":"m -114 -404 q -162 -401 -137 -403 q -211 -396 -187 -399 l -196 -350 l -107 -356 q -36 -324 -62 -354 q -1 -261 -10 -293 l 317 746 q 354 821 331 792 q 412 863 378 850 q 489 876 446 876 q 540 873 515 875 q 588 868 565 871 l 574 822 l 483 828 q 413 797 436 828 q 379 733 389 767 l 61 -274 q 22 -349 46 -319 q -36 -391 -3 -378 q -114 -404 -69 -404 z "},"ё":{"ha":476,"x_min":26,"x_max":474,"o":"m 192 -14 q 90 3 128 -14 q 39 60 51 19 q 38 179 26 101 l 88 532 q 152 663 101 629 q 292 697 203 697 q 436 655 399 697 q 453 511 474 613 q 399 413 439 450 q 306 354 358 375 q 203 324 253 333 q 122 313 153 315 l 101 165 q 109 60 90 90 q 196 31 128 31 q 292 60 265 31 q 329 165 319 89 l 340 244 l 406 244 l 396 172 q 364 58 386 99 q 301 2 342 18 q 192 -14 260 -14 m 129 357 q 199 367 160 360 q 278 392 239 375 q 345 439 317 410 q 383 513 374 468 q 383 619 400 581 q 294 657 367 657 q 194 628 226 657 q 151 525 163 599 l 129 357 m 242 776 q 213 788 225 776 q 201 815 201 799 q 213 842 201 832 q 242 853 225 853 q 269 842 258 853 q 281 815 281 832 q 269 788 281 799 q 242 776 258 776 m 367 776 q 338 788 350 776 q 326 815 326 799 q 338 842 326 832 q 367 853 350 853 q 395 842 383 853 q 407 815 407 832 q 395 788 407 799 q 367 776 383 776 z "},"į":{"ha":224,"x_min":-46,"x_max":226,"o":"m 31 0 l 128 688 l 193 688 l 96 0 l 31 0 m 182 774 q 151 786 164 774 q 138 817 138 799 q 151 847 138 835 q 182 860 164 860 q 213 847 200 860 q 226 817 226 835 q 213 786 226 799 q 182 774 200 774 m 38 -185 q -22 -162 1 -185 q -42 -106 -46 -140 q -4 -39 -35 -67 q 58 0 26 -11 l 97 0 q 35 -44 58 -18 q 8 -97 13 -71 q 20 -139 4 -125 q 54 -153 36 -153 q 77 -149 67 -153 q 93 -143 88 -146 l 100 -169 q 75 -179 90 -174 q 38 -185 60 -185 z "},"ĩ":{"ha":224,"x_min":31,"x_max":322,"o":"m 31 0 l 128 688 l 193 688 l 96 0 l 31 0 m 233 771 q 204 776 215 771 q 176 794 193 782 q 152 812 165 803 q 122 821 139 821 q 92 809 106 821 q 72 772 79 797 l 42 772 q 73 834 50 810 q 129 858 96 858 q 162 850 147 858 q 192 831 176 842 q 215 816 204 822 q 240 810 226 810 q 271 820 258 810 q 290 856 283 831 l 324 856 q 290 794 314 818 q 233 771 265 771 z "},"ю":{"ha":799,"x_min":14,"x_max":767,"o":"m 507 -11 q 413 3 447 -11 q 365 44 379 18 q 348 106 350 71 q 353 183 346 142 l 399 517 q 425 607 407 565 q 485 674 443 649 q 607 699 528 699 q 699 684 665 699 q 747 644 732 669 q 765 586 763 618 q 761 517 767 554 l 715 185 q 688 83 707 128 q 626 14 668 39 q 507 -11 585 -11 m 14 0 l 111 688 l 178 688 l 135 388 l 397 388 l 390 336 l 128 336 l 81 0 l 14 0 m 511 29 q 592 50 565 29 q 631 103 619 71 q 647 172 643 136 l 696 518 q 698 585 700 553 q 675 638 696 617 q 601 658 654 658 q 520 638 547 658 q 482 585 493 617 q 467 518 471 553 l 417 172 q 414 103 413 136 q 437 50 415 71 q 511 29 458 29 z "},"j":{"ha":196,"x_min":-154,"x_max":210,"o":"m -121 -154 q -140 -152 -128 -153 q -154 -150 -151 -151 l -149 -111 q -135 -113 -146 -112 q -114 -114 -124 -114 q -27 -94 -60 -112 q 14 -19 6 -76 l 113 688 l 178 688 l 81 -8 q 43 -105 72 -74 q -29 -145 14 -136 q -121 -154 -72 -154 m 165 774 q 134 786 147 774 q 121 817 121 799 q 134 847 121 835 q 165 860 147 860 q 197 847 183 860 q 210 817 210 835 q 197 786 210 799 q 165 774 183 774 z "},"ȷ":{"ha":196,"x_min":-154,"x_max":178,"o":"m -121 -154 q -140 -152 -128 -153 q -154 -150 -151 -151 l -149 -111 q -135 -113 -146 -112 q -114 -114 -124 -114 q -27 -94 -60 -112 q 14 -19 6 -76 l 113 688 l 178 688 l 81 -8 q 43 -105 72 -74 q -29 -145 14 -136 q -121 -154 -72 -154 z "},"ј":{"ha":196,"x_min":-154,"x_max":210,"o":"m -121 -154 q -140 -152 -128 -153 q -154 -150 -151 -151 l -149 -111 q -135 -113 -146 -112 q -114 -114 -124 -114 q -27 -94 -60 -112 q 14 -19 6 -76 l 113 688 l 178 688 l 81 -8 q 43 -105 72 -74 q -29 -145 14 -136 q -121 -154 -72 -154 m 165 774 q 134 786 147 774 q 121 817 121 799 q 134 847 121 835 q 165 860 147 860 q 197 847 183 860 q 210 817 210 835 q 197 786 210 799 q 165 774 183 774 z "},"k":{"ha":450,"x_min":31,"x_max":474,"o":"m 31 0 l 156 882 l 221 882 l 96 0 l 31 0 m 308 0 l 181 400 l 407 688 l 474 688 l 247 400 l 379 0 l 308 0 z "},"к":{"ha":469,"x_min":31,"x_max":492,"o":"m 31 0 l 128 688 l 194 688 l 150 369 q 264 522 201 456 q 388 626 326 589 q 492 667 449 664 l 486 618 q 413 584 449 607 q 346 531 376 561 q 303 485 324 510 q 264 435 283 461 l 394 0 l 318 0 l 200 364 q 163 310 181 339 q 135 267 144 281 l 97 0 l 31 0 z "},"ķ":{"ha":450,"x_min":31,"x_max":474,"o":"m 31 0 l 156 882 l 221 882 l 96 0 l 31 0 m 308 0 l 181 400 l 407 688 l 474 688 l 247 400 l 379 0 l 308 0 m 126 -206 q 163 -151 150 -174 q 175 -118 175 -129 q 170 -106 175 -111 q 160 -94 165 -101 q 156 -75 156 -87 q 168 -53 157 -64 q 194 -43 179 -43 q 221 -53 211 -43 q 231 -78 231 -62 q 218 -115 229 -92 q 191 -161 207 -137 q 157 -206 175 -185 l 126 -206 z "},"ќ":{"ha":469,"x_min":31,"x_max":492,"o":"m 31 0 l 128 688 l 194 688 l 150 369 q 264 522 201 456 q 388 626 326 589 q 492 667 449 664 l 486 618 q 413 584 449 607 q 346 531 376 561 q 303 485 324 510 q 264 435 283 461 l 394 0 l 318 0 l 200 364 q 163 310 181 339 q 135 267 144 281 l 97 0 l 31 0 m 281 757 l 368 883 l 442 883 l 322 757 l 281 757 z "},"l":{"ha":224,"x_min":31,"x_max":221,"o":"m 31 0 l 156 882 l 221 882 l 96 0 l 31 0 z "},"ĺ":{"ha":224,"x_min":31,"x_max":317,"o":"m 31 0 l 156 882 l 221 882 l 96 0 l 31 0 m 117 933 l 243 1044 l 317 1044 l 163 933 l 117 933 z "},"ľ":{"ha":251,"x_min":31,"x_max":344,"o":"m 31 0 l 156 882 l 221 882 l 96 0 l 31 0 m 250 722 l 297 896 l 344 896 l 279 722 l 250 722 z "},"ļ":{"ha":224,"x_min":-14,"x_max":221,"o":"m 31 0 l 156 882 l 221 882 l 96 0 l 31 0 m -15 -206 q 21 -151 8 -174 q 33 -118 33 -129 q 28 -106 33 -111 q 19 -94 24 -101 q 14 -75 14 -87 q 26 -53 15 -64 q 53 -43 38 -43 q 79 -53 69 -43 q 89 -78 89 -62 q 76 -115 88 -92 q 49 -161 65 -137 q 15 -206 33 -185 l -15 -206 z "},"←":{"ha":1117,"x_min":64,"x_max":1050,"o":"m 375 101 l 64 392 l 375 685 l 408 651 l 174 421 l 1050 419 l 1050 365 l 174 367 l 408 135 l 375 101 z "},"↔":{"ha":1342,"x_min":63,"x_max":1276,"o":"m 378 75 l 63 367 l 378 658 l 411 625 l 178 393 l 1161 393 l 928 625 l 963 658 l 1276 367 l 963 75 l 928 108 l 1161 339 l 179 339 l 411 108 l 378 75 z "},"<":{"ha":479,"x_min":71,"x_max":440,"o":"m 369 206 l 71 428 l 78 479 l 440 703 l 429 633 l 136 453 l 379 275 l 369 206 z "},"≤":{"ha":458,"x_min":29,"x_max":438,"o":"m 367 206 l 69 429 l 76 481 l 438 703 l 428 635 l 135 454 l 378 276 l 367 206 m 350 -3 l 29 -3 l 35 47 l 353 47 l 350 -3 z "},"љ":{"ha":826,"x_min":-24,"x_max":774,"o":"m -24 0 l -17 40 q 17 51 1 40 q 45 85 33 63 q 64 144 57 108 l 186 686 l 514 686 l 483 471 l 624 471 q 724 450 692 471 q 765 390 757 429 q 765 294 774 350 l 757 228 q 736 130 749 172 q 701 58 724 88 q 642 15 678 29 q 553 0 607 0 l 347 0 l 438 636 l 246 636 l 128 124 q 117 87 124 108 q 97 46 110 65 q 63 13 85 26 q 11 0 42 0 l -24 0 m 422 40 l 547 40 q 626 60 599 40 q 667 113 654 79 q 685 188 679 147 l 699 281 q 701 351 703 318 q 677 406 699 385 q 600 426 656 426 l 478 426 l 422 40 z "},"¬":{"ha":774,"x_min":79,"x_max":731,"o":"m 640 261 l 675 510 l 79 510 l 86 561 l 731 561 l 689 261 l 640 261 z "},"ſ":{"ha":321,"x_min":-129,"x_max":442,"o":"m -28 -203 q -83 -201 -54 -203 q -129 -197 -111 -200 l -125 -154 l -89 -158 q -60 -159 -75 -160 q -28 -157 -44 -158 q 26 -126 8 -156 q 49 -68 44 -97 l 139 565 l 92 565 l 97 611 l 144 611 l 165 750 q 190 826 171 797 q 240 869 208 856 q 314 882 272 882 q 381 877 350 882 q 442 865 413 872 l 429 824 q 374 833 401 829 q 310 838 346 838 q 252 806 271 838 q 229 740 233 774 l 117 -53 q 91 -135 110 -101 q 42 -185 72 -168 q -28 -203 13 -201 z "},"◊":{"ha":651,"x_min":64,"x_max":589,"o":"m 297 -49 l 64 406 l 297 858 l 356 858 l 589 406 l 356 -49 l 297 -49 m 328 19 l 519 407 l 328 788 l 133 407 l 328 19 z "},"ł":{"ha":383,"x_min":26,"x_max":313,"o":"m 96 0 l 131 247 l 26 204 l 32 244 l 138 289 l 219 882 l 285 882 l 206 318 l 313 364 l 307 324 l 200 278 l 160 0 l 96 0 z "},"m":{"ha":790,"x_min":32,"x_max":761,"o":"m 32 0 l 128 688 l 183 688 l 181 615 q 243 676 200 654 q 328 697 286 697 q 428 676 397 697 q 464 607 460 654 q 528 672 488 646 q 618 697 568 697 q 738 654 714 697 q 747 515 761 611 l 675 0 l 608 0 l 681 521 q 681 601 689 574 q 651 638 674 628 q 593 647 629 647 q 509 616 547 647 q 461 539 471 585 l 386 0 l 319 0 l 394 526 q 392 605 401 579 q 360 639 383 631 q 303 647 338 647 q 225 622 256 647 q 178 561 194 596 l 99 0 l 32 0 z "},"¯":{"ha":251,"x_min":64,"x_max":318,"o":"m 63 788 l 68 826 l 318 826 l 314 788 l 63 788 z "},"̄":{"ha":0,"x_min":64,"x_max":319,"o":"m 64 788 l 69 826 l 319 826 l 315 788 l 64 788 z "},"µ":{"ha":488,"x_min":3,"x_max":486,"o":"m 3 -179 l 125 688 l 192 688 l 113 126 q 145 62 119 85 q 219 39 171 39 q 276 47 251 39 q 319 82 301 54 q 346 167 338 110 l 419 688 l 486 688 l 414 172 q 387 69 406 110 q 332 9 368 28 q 231 -10 296 -10 q 151 9 189 -10 q 101 72 114 28 l 58 -179 l 3 -179 z "},"−":{"ha":606,"x_min":71,"x_max":511,"o":"m 71 324 l 79 379 l 511 379 l 503 324 l 71 324 z "},"×":{"ha":492,"x_min":53,"x_max":440,"o":"m 364 182 l 240 325 l 86 192 l 53 231 l 206 365 l 83 507 l 129 547 l 250 404 l 406 540 l 440 500 l 286 365 l 407 221 l 364 182 z "},"n":{"ha":510,"x_min":32,"x_max":471,"o":"m 32 0 l 128 688 l 182 688 l 181 615 q 244 680 203 661 q 329 699 286 699 q 417 683 386 699 q 459 642 447 668 q 471 584 471 617 q 467 517 471 551 l 396 0 l 329 0 l 400 504 q 405 556 403 531 q 400 602 407 582 q 372 635 393 622 q 306 647 350 647 q 240 633 265 647 q 199 599 214 618 q 178 563 185 579 l 99 0 l 32 0 z "},"ń":{"ha":510,"x_min":32,"x_max":471,"o":"m 32 0 l 128 688 l 182 688 l 181 615 q 244 680 203 661 q 329 699 286 699 q 417 683 386 699 q 459 642 447 668 q 471 584 471 617 q 467 517 471 551 l 396 0 l 329 0 l 400 504 q 405 556 403 531 q 400 602 407 582 q 372 635 393 622 q 306 647 350 647 q 240 633 265 647 q 199 599 214 618 q 178 563 185 579 l 99 0 l 32 0 m 274 757 l 361 883 l 435 883 l 315 757 l 274 757 z "},"ň":{"ha":510,"x_min":32,"x_max":493,"o":"m 32 0 l 128 688 l 182 688 l 181 615 q 244 680 203 661 q 329 699 286 699 q 417 683 386 699 q 459 642 447 668 q 471 584 471 617 q 467 517 471 551 l 396 0 l 329 0 l 400 504 q 405 556 403 531 q 400 602 407 582 q 372 635 393 622 q 306 647 350 647 q 240 633 265 647 q 199 599 214 618 q 178 563 185 579 l 99 0 l 32 0 m 304 760 l 200 882 l 247 882 l 333 796 l 446 882 l 493 882 l 353 760 l 304 760 z "},"ņ":{"ha":510,"x_min":32,"x_max":471,"o":"m 32 0 l 128 688 l 182 688 l 181 615 q 244 680 203 661 q 329 699 286 699 q 417 683 386 699 q 459 642 447 668 q 471 584 471 617 q 467 517 471 551 l 396 0 l 329 0 l 400 504 q 405 556 403 531 q 400 602 407 582 q 372 635 393 622 q 306 647 350 647 q 240 633 265 647 q 199 599 214 618 q 178 563 185 579 l 99 0 l 32 0 m 136 -206 q 172 -151 160 -174 q 185 -118 185 -129 q 180 -106 185 -111 q 170 -94 175 -101 q 165 -75 165 -87 q 178 -53 167 -64 q 204 -43 189 -43 q 231 -53 221 -43 q 240 -78 240 -62 q 228 -115 239 -92 q 201 -161 217 -137 q 167 -206 185 -185 l 136 -206 z "},"њ":{"ha":801,"x_min":14,"x_max":749,"o":"m 14 0 l 111 688 l 178 688 l 135 388 l 378 388 l 421 688 l 486 688 l 456 471 l 597 471 q 697 450 664 471 q 740 390 731 429 q 740 294 749 350 l 731 228 q 710 130 724 172 q 674 58 697 88 q 615 15 651 29 q 526 0 579 0 l 324 0 l 371 336 l 128 336 l 81 0 l 14 0 m 394 40 l 521 40 q 599 60 571 40 q 640 113 626 79 q 658 188 653 147 l 671 281 q 676 351 678 318 q 651 406 674 385 q 574 426 629 426 l 450 426 l 394 40 z "},"↗":{"ha":826,"x_min":51,"x_max":768,"o":"m 90 110 l 51 150 l 671 768 l 343 768 l 343 814 l 768 828 l 756 401 l 708 401 l 710 732 l 90 110 z "},"↖":{"ha":839,"x_min":67,"x_max":785,"o":"m 746 103 l 128 722 l 129 394 l 81 394 l 67 821 l 494 807 l 494 760 l 165 761 l 785 140 l 746 103 z "},"≠":{"ha":558,"x_min":18,"x_max":544,"o":"m 18 -7 l 175 226 l 57 226 l 65 279 l 210 279 l 371 524 l 99 524 l 107 575 l 406 575 l 501 722 l 544 722 l 447 575 l 525 575 l 518 524 l 413 524 l 250 279 l 483 279 l 475 226 l 215 226 l 61 -7 l 18 -7 z "},"ñ":{"ha":510,"x_min":32,"x_max":471,"o":"m 32 0 l 128 688 l 182 688 l 181 615 q 244 680 203 661 q 329 699 286 699 q 417 683 386 699 q 459 642 447 668 q 471 584 471 617 q 467 517 471 551 l 396 0 l 329 0 l 400 504 q 405 556 403 531 q 400 602 407 582 q 372 635 393 622 q 306 647 350 647 q 240 633 265 647 q 199 599 214 618 q 178 563 185 579 l 99 0 l 32 0 m 381 771 q 351 776 363 771 q 324 794 340 782 q 299 812 313 803 q 269 821 286 821 q 240 809 253 821 q 219 772 226 797 l 189 772 q 220 834 197 810 q 276 858 243 858 q 309 850 294 858 q 339 831 324 842 q 363 816 351 822 q 388 810 374 810 q 418 820 406 810 q 438 856 431 831 l 471 856 q 437 794 461 818 q 381 771 413 771 z "},"#":{"ha":953,"x_min":63,"x_max":890,"o":"m 181 0 l 265 267 l 63 267 l 75 310 l 278 310 l 351 544 l 149 546 l 163 588 l 367 588 l 432 796 l 472 796 l 408 588 l 647 588 l 713 796 l 756 796 l 690 588 l 890 588 l 876 544 l 675 544 l 601 310 l 803 310 l 790 267 l 589 267 l 506 0 l 463 0 l 546 267 l 307 267 l 222 0 l 181 0 m 321 310 l 560 310 l 633 544 l 393 544 l 321 310 z "},"o":{"ha":483,"x_min":33,"x_max":451,"o":"m 193 -10 q 101 5 135 -10 q 51 45 67 19 q 35 107 36 71 q 39 185 33 143 l 85 514 q 110 606 92 564 q 172 674 129 649 q 293 699 214 699 q 385 684 351 699 q 434 644 419 669 q 450 585 449 618 q 446 514 451 551 l 401 185 q 374 85 393 129 q 312 15 354 40 q 193 -10 269 -10 m 199 36 q 280 56 253 36 q 318 109 307 76 q 333 176 329 142 l 381 514 q 384 581 386 549 q 361 633 382 613 q 286 653 340 653 q 206 633 233 653 q 168 581 179 613 q 151 514 157 549 l 104 176 q 101 109 100 142 q 124 56 103 76 q 199 36 144 36 z "},"о":{"ha":483,"x_min":33,"x_max":451,"o":"m 193 -10 q 101 5 135 -10 q 51 45 67 19 q 35 107 36 71 q 39 185 33 143 l 85 514 q 110 606 92 564 q 172 674 129 649 q 293 699 214 699 q 385 684 351 699 q 434 644 419 669 q 450 585 449 618 q 446 514 451 551 l 401 185 q 374 85 393 129 q 312 15 354 40 q 193 -10 269 -10 m 199 36 q 280 56 253 36 q 318 109 307 76 q 333 176 329 142 l 381 514 q 384 581 386 549 q 361 633 382 613 q 286 653 340 653 q 206 633 233 653 q 168 581 179 613 q 151 514 157 549 l 104 176 q 101 109 100 142 q 124 56 103 76 q 199 36 144 36 z "},"ó":{"ha":483,"x_min":33,"x_max":451,"o":"m 193 -10 q 101 5 135 -10 q 51 45 67 19 q 35 107 36 71 q 39 185 33 143 l 85 514 q 110 606 92 564 q 172 674 129 649 q 293 699 214 699 q 385 684 351 699 q 434 644 419 669 q 450 585 449 618 q 446 514 451 551 l 401 185 q 374 85 393 129 q 312 15 354 40 q 193 -10 269 -10 m 199 36 q 280 56 253 36 q 318 109 307 76 q 333 176 329 142 l 381 514 q 384 581 386 549 q 361 633 382 613 q 286 653 340 653 q 206 633 233 653 q 168 581 179 613 q 151 514 157 549 l 104 176 q 101 109 100 142 q 124 56 103 76 q 199 36 144 36 m 253 757 l 340 883 l 414 883 l 294 757 l 253 757 z "},"ǒ":{"ha":483,"x_min":33,"x_max":471,"o":"m 193 -10 q 101 5 135 -10 q 51 45 67 19 q 35 107 36 71 q 39 185 33 143 l 85 514 q 110 606 92 564 q 172 674 129 649 q 293 699 214 699 q 385 684 351 699 q 434 644 419 669 q 450 585 449 618 q 446 514 451 551 l 401 185 q 374 85 393 129 q 312 15 354 40 q 193 -10 269 -10 m 199 36 q 280 56 253 36 q 318 109 307 76 q 333 176 329 142 l 381 514 q 384 581 386 549 q 361 633 382 613 q 286 653 340 653 q 206 633 233 653 q 168 581 179 613 q 151 514 157 549 l 104 176 q 101 109 100 142 q 124 56 103 76 q 199 36 144 36 m 282 760 l 178 882 l 225 882 l 311 796 l 424 882 l 471 882 l 331 760 l 282 760 z "},"ô":{"ha":483,"x_min":33,"x_max":451,"o":"m 193 -10 q 101 5 135 -10 q 51 45 67 19 q 35 107 36 71 q 39 185 33 143 l 85 514 q 110 606 92 564 q 172 674 129 649 q 293 699 214 699 q 385 684 351 699 q 434 644 419 669 q 450 585 449 618 q 446 514 451 551 l 401 185 q 374 85 393 129 q 312 15 354 40 q 193 -10 269 -10 m 199 36 q 280 56 253 36 q 318 109 307 76 q 333 176 329 142 l 381 514 q 384 581 386 549 q 361 633 382 613 q 286 653 340 653 q 206 633 233 653 q 168 581 179 613 q 151 514 157 549 l 104 176 q 101 109 100 142 q 124 56 103 76 q 199 36 144 36 m 154 760 l 293 882 l 343 882 l 447 760 l 400 760 l 313 846 l 203 760 l 154 760 z "},"ố":{"ha":483,"x_min":33,"x_max":608,"o":"m 193 -10 q 101 5 135 -10 q 51 45 67 19 q 35 107 36 71 q 39 185 33 143 l 85 514 q 110 606 92 564 q 172 674 129 649 q 293 699 214 699 q 385 684 351 699 q 434 644 419 669 q 450 585 449 618 q 446 514 451 551 l 401 185 q 374 85 393 129 q 312 15 354 40 q 193 -10 269 -10 m 199 36 q 280 56 253 36 q 318 109 307 76 q 333 176 329 142 l 381 514 q 384 581 386 549 q 361 633 382 613 q 286 653 340 653 q 206 633 233 653 q 168 581 179 613 q 151 514 157 549 l 104 176 q 101 109 100 142 q 124 56 103 76 q 199 36 144 36 m 154 760 l 293 882 l 343 882 l 447 760 l 400 760 l 313 846 l 203 760 l 154 760 m 447 832 l 535 958 l 608 958 l 489 832 l 447 832 z "},"ộ":{"ha":483,"x_min":33,"x_max":451,"o":"m 193 -10 q 101 5 135 -10 q 51 45 67 19 q 35 107 36 71 q 39 185 33 143 l 85 514 q 110 606 92 564 q 172 674 129 649 q 293 699 214 699 q 385 684 351 699 q 434 644 419 669 q 450 585 449 618 q 446 514 451 551 l 401 185 q 374 85 393 129 q 312 15 354 40 q 193 -10 269 -10 m 199 36 q 280 56 253 36 q 318 109 307 76 q 333 176 329 142 l 381 514 q 384 581 386 549 q 361 633 382 613 q 286 653 340 653 q 206 633 233 653 q 168 581 179 613 q 151 514 157 549 l 104 176 q 101 109 100 142 q 124 56 103 76 q 199 36 144 36 m 178 -142 q 149 -130 161 -142 q 138 -101 138 -118 q 149 -75 138 -86 q 178 -64 161 -64 q 206 -75 194 -64 q 218 -101 218 -86 q 206 -130 218 -118 q 178 -142 194 -142 m 154 760 l 293 882 l 343 882 l 447 760 l 400 760 l 313 846 l 203 760 l 154 760 z "},"ồ":{"ha":483,"x_min":33,"x_max":536,"o":"m 193 -10 q 101 5 135 -10 q 51 45 67 19 q 35 107 36 71 q 39 185 33 143 l 85 514 q 110 606 92 564 q 172 674 129 649 q 293 699 214 699 q 385 684 351 699 q 434 644 419 669 q 450 585 449 618 q 446 514 451 551 l 401 185 q 374 85 393 129 q 312 15 354 40 q 193 -10 269 -10 m 199 36 q 280 56 253 36 q 318 109 307 76 q 333 176 329 142 l 381 514 q 384 581 386 549 q 361 633 382 613 q 286 653 340 653 q 206 633 233 653 q 168 581 179 613 q 151 514 157 549 l 104 176 q 101 109 100 142 q 124 56 103 76 q 199 36 144 36 m 154 760 l 293 882 l 343 882 l 447 760 l 400 760 l 313 846 l 203 760 l 154 760 m 494 832 l 403 958 l 475 958 l 536 832 l 494 832 z "},"ổ":{"ha":483,"x_min":33,"x_max":585,"o":"m 193 -10 q 101 5 135 -10 q 51 45 67 19 q 35 107 36 71 q 39 185 33 143 l 85 514 q 110 606 92 564 q 172 674 129 649 q 293 699 214 699 q 385 684 351 699 q 434 644 419 669 q 450 585 449 618 q 446 514 451 551 l 401 185 q 374 85 393 129 q 312 15 354 40 q 193 -10 269 -10 m 199 36 q 280 56 253 36 q 318 109 307 76 q 333 176 329 142 l 381 514 q 384 581 386 549 q 361 633 382 613 q 286 653 340 653 q 206 633 233 653 q 168 581 179 613 q 151 514 157 549 l 104 176 q 101 109 100 142 q 124 56 103 76 q 199 36 144 36 m 154 760 l 293 882 l 343 882 l 447 760 l 400 760 l 313 846 l 203 760 l 154 760 m 471 824 l 474 851 q 492 878 476 872 q 524 893 508 885 q 540 922 539 901 l 540 929 q 535 960 542 946 q 506 974 529 974 q 464 940 475 974 l 428 947 q 458 990 438 975 q 514 1004 478 1004 q 569 983 554 1004 q 583 926 585 963 l 582 924 q 572 885 582 897 q 547 869 561 874 q 522 859 533 864 q 511 843 511 854 l 510 824 l 471 824 z "},"ỗ":{"ha":483,"x_min":33,"x_max":464,"o":"m 193 -10 q 101 5 135 -10 q 51 45 67 19 q 35 107 36 71 q 39 185 33 143 l 85 514 q 110 606 92 564 q 172 674 129 649 q 293 699 214 699 q 385 684 351 699 q 434 644 419 669 q 450 585 449 618 q 446 514 451 551 l 401 185 q 374 85 393 129 q 312 15 354 40 q 193 -10 269 -10 m 199 36 q 280 56 253 36 q 318 109 307 76 q 333 176 329 142 l 381 514 q 384 581 386 549 q 361 633 382 613 q 286 653 340 653 q 206 633 233 653 q 168 581 179 613 q 151 514 157 549 l 104 176 q 101 109 100 142 q 124 56 103 76 q 199 36 144 36 m 154 760 l 293 882 l 343 882 l 447 760 l 400 760 l 313 846 l 203 760 l 154 760 m 374 914 q 344 919 356 914 q 317 938 333 925 q 292 955 306 946 q 263 964 279 964 q 233 952 246 964 q 213 915 219 940 l 182 915 q 213 977 190 953 q 269 1001 236 1001 q 302 993 288 1001 q 332 974 317 985 q 356 959 344 965 q 381 953 367 953 q 411 963 399 953 q 431 999 424 974 l 464 999 q 430 938 454 961 q 374 914 406 914 z "}}}
